%TF.GenerationSoftware,KiCad,Pcbnew,9.0.6*%
%TF.CreationDate,2025-11-16T15:46:06-05:00*%
%TF.ProjectId,power_supply,706f7765-725f-4737-9570-706c792e6b69,rev?*%
%TF.SameCoordinates,Original*%
%TF.FileFunction,Copper,L2,Bot*%
%TF.FilePolarity,Positive*%
%FSLAX46Y46*%
G04 Gerber Fmt 4.6, Leading zero omitted, Abs format (unit mm)*
G04 Created by KiCad (PCBNEW 9.0.6) date 2025-11-16 15:46:06*
%MOMM*%
%LPD*%
G01*
G04 APERTURE LIST*
G04 Aperture macros list*
%AMRoundRect*
0 Rectangle with rounded corners*
0 $1 Rounding radius*
0 $2 $3 $4 $5 $6 $7 $8 $9 X,Y pos of 4 corners*
0 Add a 4 corners polygon primitive as box body*
4,1,4,$2,$3,$4,$5,$6,$7,$8,$9,$2,$3,0*
0 Add four circle primitives for the rounded corners*
1,1,$1+$1,$2,$3*
1,1,$1+$1,$4,$5*
1,1,$1+$1,$6,$7*
1,1,$1+$1,$8,$9*
0 Add four rect primitives between the rounded corners*
20,1,$1+$1,$2,$3,$4,$5,0*
20,1,$1+$1,$4,$5,$6,$7,0*
20,1,$1+$1,$6,$7,$8,$9,0*
20,1,$1+$1,$8,$9,$2,$3,0*%
G04 Aperture macros list end*
%TA.AperFunction,ComponentPad*%
%ADD10R,2.500000X4.500000*%
%TD*%
%TA.AperFunction,ComponentPad*%
%ADD11O,2.500000X4.500000*%
%TD*%
%TA.AperFunction,ComponentPad*%
%ADD12RoundRect,0.250001X0.949999X-0.949999X0.949999X0.949999X-0.949999X0.949999X-0.949999X-0.949999X0*%
%TD*%
%TA.AperFunction,ComponentPad*%
%ADD13C,2.400000*%
%TD*%
%TA.AperFunction,ComponentPad*%
%ADD14C,1.400000*%
%TD*%
%TA.AperFunction,ComponentPad*%
%ADD15C,3.000000*%
%TD*%
%TA.AperFunction,ComponentPad*%
%ADD16C,1.308000*%
%TD*%
%TA.AperFunction,ComponentPad*%
%ADD17R,2.400000X2.400000*%
%TD*%
%TA.AperFunction,ComponentPad*%
%ADD18R,3.200000X3.200000*%
%TD*%
%TA.AperFunction,ComponentPad*%
%ADD19O,3.200000X3.200000*%
%TD*%
%TA.AperFunction,ComponentPad*%
%ADD20RoundRect,0.250000X0.350000X0.350000X-0.350000X0.350000X-0.350000X-0.350000X0.350000X-0.350000X0*%
%TD*%
%TA.AperFunction,ComponentPad*%
%ADD21C,1.200000*%
%TD*%
%TA.AperFunction,ComponentPad*%
%ADD22R,1.905000X2.000000*%
%TD*%
%TA.AperFunction,ComponentPad*%
%ADD23O,1.905000X2.000000*%
%TD*%
%TA.AperFunction,ComponentPad*%
%ADD24R,2.600000X2.600000*%
%TD*%
%TA.AperFunction,ComponentPad*%
%ADD25C,2.600000*%
%TD*%
%TA.AperFunction,Conductor*%
%ADD26C,1.000000*%
%TD*%
%TA.AperFunction,Conductor*%
%ADD27C,6.000000*%
%TD*%
G04 APERTURE END LIST*
D10*
%TO.P,Q2,1,B*%
%TO.N,Net-(Q2-B)*%
X180964000Y-115522000D03*
D11*
%TO.P,Q2,2,C*%
%TO.N,/V-*%
X175514000Y-115522000D03*
%TO.P,Q2,3,E*%
%TO.N,/UNREG-*%
X170064000Y-115522000D03*
%TD*%
D12*
%TO.P,C13,1*%
%TO.N,/UNREG+*%
X114300000Y-59182000D03*
D13*
%TO.P,C13,2*%
%TO.N,GND*%
X114300000Y-51682000D03*
%TD*%
D14*
%TO.P,R4,1*%
%TO.N,/V-*%
X156210000Y-120142000D03*
%TO.P,R4,2*%
%TO.N,Net-(U2-ADJ)*%
X156210000Y-112522000D03*
%TD*%
D15*
%TO.P,J5,1,1*%
%TO.N,/V-*%
X169772000Y-104140000D03*
%TO.P,J5,2,2*%
X169772000Y-99060000D03*
%TD*%
D14*
%TO.P,R3,1*%
%TO.N,/UNREG-*%
X166116000Y-112522000D03*
%TO.P,R3,2*%
%TO.N,Net-(Q2-B)*%
X166116000Y-120142000D03*
%TD*%
D16*
%TO.P,RV2,1,1*%
%TO.N,GND*%
X151384000Y-113284000D03*
%TO.P,RV2,2,2*%
X151384000Y-115824000D03*
%TO.P,RV2,3,3*%
%TO.N,Net-(U2-ADJ)*%
X151384000Y-118364000D03*
%TD*%
D17*
%TO.P,C2,1*%
%TO.N,GND*%
X114300000Y-93084000D03*
D13*
%TO.P,C2,2*%
%TO.N,/UNREG-*%
X114300000Y-100584000D03*
%TD*%
D14*
%TO.P,R2,1*%
%TO.N,Net-(U1-ADJ)*%
X155956000Y-53340000D03*
%TO.P,R2,2*%
%TO.N,/V+*%
X155956000Y-60960000D03*
%TD*%
D18*
%TO.P,D4,1,K*%
%TO.N,/AC1*%
X97790000Y-90170000D03*
D19*
%TO.P,D4,2,A*%
%TO.N,/UNREG-*%
X97790000Y-102870000D03*
%TD*%
D12*
%TO.P,C12,1*%
%TO.N,GND*%
X135382000Y-121079780D03*
D13*
%TO.P,C12,2*%
%TO.N,/UNREG-*%
X135382000Y-113579780D03*
%TD*%
D20*
%TO.P,C10,1*%
%TO.N,Net-(U2-ADJ)*%
X164592000Y-108458000D03*
D21*
%TO.P,C10,2*%
%TO.N,/V-*%
X162592000Y-108458000D03*
%TD*%
D17*
%TO.P,C5,1*%
%TO.N,/UNREG+*%
X135128000Y-72256000D03*
D13*
%TO.P,C5,2*%
%TO.N,GND*%
X135128000Y-79756000D03*
%TD*%
D15*
%TO.P,J3,1,1*%
%TO.N,GND*%
X176276000Y-88900000D03*
%TO.P,J3,2,2*%
X176276000Y-83820000D03*
%TD*%
D18*
%TO.P,D3,1,K*%
%TO.N,/UNREG+*%
X83058000Y-69850000D03*
D19*
%TO.P,D3,2,A*%
%TO.N,/AC2*%
X83058000Y-82550000D03*
%TD*%
D15*
%TO.P,J1,1,1*%
%TO.N,/AC1*%
X79756000Y-110744000D03*
%TO.P,J1,2,2*%
X84836000Y-110744000D03*
%TD*%
D22*
%TO.P,U2,1,ADJ*%
%TO.N,Net-(U2-ADJ)*%
X162814000Y-122748000D03*
D23*
%TO.P,U2,2,VI*%
%TO.N,Net-(Q2-B)*%
X160274000Y-122748000D03*
%TO.P,U2,3,VO*%
%TO.N,/V-*%
X157734000Y-122748000D03*
%TD*%
D10*
%TO.P,Q1,1,B*%
%TO.N,Net-(Q1-B)*%
X170064000Y-57960000D03*
D11*
%TO.P,Q1,2,C*%
%TO.N,/V+*%
X175514000Y-57960000D03*
%TO.P,Q1,3,E*%
%TO.N,/UNREG+*%
X180964000Y-57960000D03*
%TD*%
D22*
%TO.P,U1,1,ADJ*%
%TO.N,Net-(U1-ADJ)*%
X157734000Y-49718000D03*
D23*
%TO.P,U1,2,VO*%
%TO.N,/V+*%
X160274000Y-49718000D03*
%TO.P,U1,3,VI*%
%TO.N,Net-(Q1-B)*%
X162814000Y-49718000D03*
%TD*%
D14*
%TO.P,R1,1*%
%TO.N,/UNREG+*%
X164338000Y-61214000D03*
%TO.P,R1,2*%
%TO.N,Net-(Q1-B)*%
X164338000Y-53594000D03*
%TD*%
D12*
%TO.P,C11,1*%
%TO.N,/UNREG+*%
X135128000Y-59436000D03*
D13*
%TO.P,C11,2*%
%TO.N,GND*%
X135128000Y-51936000D03*
%TD*%
D17*
%TO.P,C8,1*%
%TO.N,GND*%
X155702000Y-93084000D03*
D13*
%TO.P,C8,2*%
%TO.N,/UNREG-*%
X155702000Y-100584000D03*
%TD*%
D17*
%TO.P,C7,1*%
%TO.N,/UNREG+*%
X155702000Y-72136000D03*
D13*
%TO.P,C7,2*%
%TO.N,GND*%
X155702000Y-79636000D03*
%TD*%
D17*
%TO.P,C1,1*%
%TO.N,/UNREG+*%
X114300000Y-72256000D03*
D13*
%TO.P,C1,2*%
%TO.N,GND*%
X114300000Y-79756000D03*
%TD*%
D24*
%TO.P,J7,1,Pin_1*%
%TO.N,GND*%
X184963000Y-88860000D03*
D25*
%TO.P,J7,2,Pin_2*%
X184963000Y-83860000D03*
%TD*%
D20*
%TO.P,C9,1*%
%TO.N,/V+*%
X163786600Y-64516000D03*
D21*
%TO.P,C9,2*%
%TO.N,Net-(U1-ADJ)*%
X161786600Y-64516000D03*
%TD*%
D15*
%TO.P,J6,1,1*%
%TO.N,/V+*%
X169772000Y-73406000D03*
%TO.P,J6,2,2*%
X169772000Y-68326000D03*
%TD*%
D12*
%TO.P,C14,1*%
%TO.N,GND*%
X114300000Y-121079780D03*
D13*
%TO.P,C14,2*%
%TO.N,/UNREG-*%
X114300000Y-113579780D03*
%TD*%
D15*
%TO.P,J4,1,1*%
%TO.N,/AC2*%
X80518000Y-63246000D03*
%TO.P,J4,2,2*%
X85598000Y-63246000D03*
%TD*%
D17*
%TO.P,C6,1*%
%TO.N,GND*%
X135128000Y-92964000D03*
D13*
%TO.P,C6,2*%
%TO.N,/UNREG-*%
X135128000Y-100464000D03*
%TD*%
D15*
%TO.P,J6,1,1*%
%TO.N,/V+*%
X176276000Y-73406000D03*
%TO.P,J6,2,2*%
X176276000Y-68326000D03*
%TD*%
D18*
%TO.P,D1,1,K*%
%TO.N,/UNREG+*%
X97790000Y-69850000D03*
D19*
%TO.P,D1,2,A*%
%TO.N,/AC1*%
X97790000Y-82550000D03*
%TD*%
D15*
%TO.P,J5,1,1*%
%TO.N,/V-*%
X176276000Y-104140000D03*
%TO.P,J5,2,2*%
X176276000Y-99060000D03*
%TD*%
%TO.P,J2,1,1*%
%TO.N,GND*%
X73406000Y-90170000D03*
%TO.P,J2,2,2*%
X73406000Y-85090000D03*
%TD*%
D18*
%TO.P,D2,1,K*%
%TO.N,/AC2*%
X83058000Y-90170000D03*
D19*
%TO.P,D2,2,A*%
%TO.N,/UNREG-*%
X83058000Y-102870000D03*
%TD*%
D15*
%TO.P,J3,1,1*%
%TO.N,GND*%
X169772000Y-88900000D03*
%TO.P,J3,2,2*%
X169772000Y-83820000D03*
%TD*%
D16*
%TO.P,RV1,1,1*%
%TO.N,Net-(U1-ADJ)*%
X150876000Y-54610000D03*
%TO.P,RV1,2,2*%
%TO.N,GND*%
X150876000Y-57150000D03*
%TO.P,RV1,3,3*%
X150876000Y-59690000D03*
%TD*%
D26*
%TO.N,/V-*%
X162592000Y-107609472D02*
X166061472Y-104140000D01*
X166061472Y-104140000D02*
X169772000Y-104140000D01*
X162592000Y-108458000D02*
X162592000Y-107609472D01*
D27*
%TO.N,/UNREG+*%
X111894000Y-69850000D02*
X114300000Y-72256000D01*
X83058000Y-69850000D02*
X111894000Y-69850000D01*
%TO.N,/UNREG-*%
X83058000Y-102870000D02*
X112014000Y-102870000D01*
X112014000Y-102870000D02*
X114300000Y-100584000D01*
%TD*%
%TA.AperFunction,Conductor*%
%TO.N,/UNREG-*%
G36*
X157317434Y-97536221D02*
G01*
X157664885Y-97557059D01*
X157679593Y-97558831D01*
X158018395Y-97620380D01*
X158032792Y-97623897D01*
X158296186Y-97705233D01*
X158361814Y-97725499D01*
X158375702Y-97730717D01*
X158690220Y-97870915D01*
X158703364Y-97877746D01*
X158998871Y-98054528D01*
X159011117Y-98062889D01*
X159184472Y-98197133D01*
X159283365Y-98273715D01*
X159294538Y-98283491D01*
X159539631Y-98525338D01*
X159549556Y-98536380D01*
X159763988Y-98805787D01*
X159772520Y-98817933D01*
X159934509Y-99080694D01*
X159953222Y-99111048D01*
X159960241Y-99124130D01*
X160020205Y-99253970D01*
X160104605Y-99436720D01*
X160110012Y-99450547D01*
X160215983Y-99778158D01*
X160219699Y-99792532D01*
X160285757Y-100130467D01*
X160287728Y-100145183D01*
X160313194Y-100492298D01*
X160313515Y-100499718D01*
X160411128Y-107820677D01*
X160414026Y-108037996D01*
X160414026Y-108038006D01*
X160528000Y-116586000D01*
X152254709Y-116586000D01*
X152264603Y-116576106D01*
X152371417Y-116429090D01*
X152453917Y-116267174D01*
X152510072Y-116094346D01*
X152538500Y-115914861D01*
X152538500Y-115733139D01*
X152510072Y-115553654D01*
X152510071Y-115553650D01*
X152510071Y-115553649D01*
X152453918Y-115380828D01*
X152453916Y-115380825D01*
X152402432Y-115279780D01*
X152371417Y-115218910D01*
X152264603Y-115071894D01*
X152136106Y-114943397D01*
X151989090Y-114836583D01*
X151827174Y-114754083D01*
X151827171Y-114754081D01*
X151654349Y-114697928D01*
X151558008Y-114682669D01*
X151518884Y-114676472D01*
X151455750Y-114646544D01*
X151418819Y-114587232D01*
X151419817Y-114517370D01*
X151458427Y-114459137D01*
X151518884Y-114431527D01*
X151654346Y-114410072D01*
X151654349Y-114410071D01*
X151654350Y-114410071D01*
X151827171Y-114353918D01*
X151827171Y-114353917D01*
X151827174Y-114353917D01*
X151989090Y-114271417D01*
X152136106Y-114164603D01*
X152264603Y-114036106D01*
X152371417Y-113889090D01*
X152453917Y-113727174D01*
X152465604Y-113691204D01*
X152510071Y-113554350D01*
X152510071Y-113554349D01*
X152510072Y-113554346D01*
X152538500Y-113374861D01*
X152538500Y-113193139D01*
X152510072Y-113013654D01*
X152510071Y-113013650D01*
X152510071Y-113013649D01*
X152453918Y-112840828D01*
X152453916Y-112840825D01*
X152446505Y-112826279D01*
X152371417Y-112678910D01*
X152264603Y-112531894D01*
X152160222Y-112427513D01*
X155009500Y-112427513D01*
X155009500Y-112616486D01*
X155039059Y-112803118D01*
X155097454Y-112982836D01*
X155122587Y-113032161D01*
X155183240Y-113151199D01*
X155294310Y-113304073D01*
X155427927Y-113437690D01*
X155580801Y-113548760D01*
X155660347Y-113589290D01*
X155749163Y-113634545D01*
X155749165Y-113634545D01*
X155749168Y-113634547D01*
X155845497Y-113665846D01*
X155928881Y-113692940D01*
X156115514Y-113722500D01*
X156115519Y-113722500D01*
X156304486Y-113722500D01*
X156491118Y-113692940D01*
X156496461Y-113691204D01*
X156670832Y-113634547D01*
X156839199Y-113548760D01*
X156992073Y-113437690D01*
X157125690Y-113304073D01*
X157236760Y-113151199D01*
X157322547Y-112982832D01*
X157380940Y-112803118D01*
X157384034Y-112783581D01*
X157410500Y-112616486D01*
X157410500Y-112427513D01*
X157380940Y-112240881D01*
X157353846Y-112157497D01*
X157322547Y-112061168D01*
X157322545Y-112061165D01*
X157322545Y-112061163D01*
X157274333Y-111966543D01*
X157236760Y-111892801D01*
X157125690Y-111739927D01*
X156992073Y-111606310D01*
X156839199Y-111495240D01*
X156670836Y-111409454D01*
X156491118Y-111351059D01*
X156304486Y-111321500D01*
X156304481Y-111321500D01*
X156115519Y-111321500D01*
X156115514Y-111321500D01*
X155928881Y-111351059D01*
X155749163Y-111409454D01*
X155580800Y-111495240D01*
X155493579Y-111558610D01*
X155427927Y-111606310D01*
X155427925Y-111606312D01*
X155427924Y-111606312D01*
X155294312Y-111739924D01*
X155294312Y-111739925D01*
X155294310Y-111739927D01*
X155246610Y-111805579D01*
X155183240Y-111892800D01*
X155097454Y-112061163D01*
X155039059Y-112240881D01*
X155009500Y-112427513D01*
X152160222Y-112427513D01*
X152136106Y-112403397D01*
X151989090Y-112296583D01*
X151827174Y-112214083D01*
X151827171Y-112214081D01*
X151654348Y-112157928D01*
X151534689Y-112138976D01*
X151474861Y-112129500D01*
X151293139Y-112129500D01*
X151233310Y-112138976D01*
X151113652Y-112157928D01*
X151113649Y-112157928D01*
X150940828Y-112214081D01*
X150940825Y-112214083D01*
X150778909Y-112296583D01*
X150695030Y-112357525D01*
X150631894Y-112403397D01*
X150631892Y-112403399D01*
X150631891Y-112403399D01*
X150503399Y-112531891D01*
X150503399Y-112531892D01*
X150503397Y-112531894D01*
X150457525Y-112595030D01*
X150396583Y-112678909D01*
X150314083Y-112840825D01*
X150314081Y-112840828D01*
X150257928Y-113013649D01*
X150257928Y-113013652D01*
X150229500Y-113193139D01*
X150229500Y-113374860D01*
X150257928Y-113554347D01*
X150257928Y-113554350D01*
X150314081Y-113727171D01*
X150314083Y-113727174D01*
X150396583Y-113889090D01*
X150503397Y-114036106D01*
X150631894Y-114164603D01*
X150778910Y-114271417D01*
X150940826Y-114353917D01*
X150940828Y-114353918D01*
X151102029Y-114406294D01*
X151113654Y-114410072D01*
X151249114Y-114431527D01*
X151312249Y-114461456D01*
X151349180Y-114520768D01*
X151348182Y-114590630D01*
X151309572Y-114648863D01*
X151249114Y-114676473D01*
X151113652Y-114697928D01*
X151113649Y-114697928D01*
X150940828Y-114754081D01*
X150940825Y-114754083D01*
X150778909Y-114836583D01*
X150695030Y-114897525D01*
X150631894Y-114943397D01*
X150631892Y-114943399D01*
X150631891Y-114943399D01*
X150503399Y-115071891D01*
X150503399Y-115071892D01*
X150503397Y-115071894D01*
X150477360Y-115107731D01*
X150396583Y-115218909D01*
X150314083Y-115380825D01*
X150314081Y-115380828D01*
X150257928Y-115553649D01*
X150257928Y-115553652D01*
X150229500Y-115733139D01*
X150229500Y-115914860D01*
X150257928Y-116094347D01*
X150257928Y-116094350D01*
X150314081Y-116267171D01*
X150314083Y-116267174D01*
X150396583Y-116429090D01*
X150503397Y-116576106D01*
X150503399Y-116576108D01*
X150513291Y-116586000D01*
X112437988Y-116586000D01*
X112430565Y-116585778D01*
X112083129Y-116564940D01*
X112068391Y-116563166D01*
X111729616Y-116501621D01*
X111715194Y-116498099D01*
X111386185Y-116396500D01*
X111372287Y-116391278D01*
X111057786Y-116251087D01*
X111044627Y-116244249D01*
X110749132Y-116067473D01*
X110736879Y-116059107D01*
X110550606Y-115914860D01*
X110464634Y-115848284D01*
X110453461Y-115838508D01*
X110208363Y-115596656D01*
X110198439Y-115585614D01*
X109984013Y-115316215D01*
X109975478Y-115304065D01*
X109851965Y-115103715D01*
X109839246Y-115083084D01*
X113503800Y-115083084D01*
X113503800Y-115083085D01*
X113546487Y-115107730D01*
X113546488Y-115107731D01*
X113752381Y-115193016D01*
X113967632Y-115250691D01*
X113967645Y-115250694D01*
X114188575Y-115279780D01*
X114411425Y-115279780D01*
X114632354Y-115250694D01*
X114632367Y-115250691D01*
X114847618Y-115193016D01*
X115053500Y-115107736D01*
X115053516Y-115107728D01*
X115096198Y-115083085D01*
X115096198Y-115083084D01*
X134585800Y-115083084D01*
X134585800Y-115083085D01*
X134628487Y-115107730D01*
X134628488Y-115107731D01*
X134834381Y-115193016D01*
X135049632Y-115250691D01*
X135049645Y-115250694D01*
X135270575Y-115279780D01*
X135493425Y-115279780D01*
X135714354Y-115250694D01*
X135714367Y-115250691D01*
X135929618Y-115193016D01*
X136135500Y-115107736D01*
X136135516Y-115107728D01*
X136178198Y-115083085D01*
X136178198Y-115083084D01*
X135382001Y-114286886D01*
X135382000Y-114286886D01*
X134585800Y-115083084D01*
X115096198Y-115083084D01*
X114300001Y-114286886D01*
X114300000Y-114286886D01*
X113503800Y-115083084D01*
X109839246Y-115083084D01*
X109794779Y-115010954D01*
X109787759Y-114997872D01*
X109675170Y-114754083D01*
X109643389Y-114685268D01*
X109637991Y-114671463D01*
X109532015Y-114343838D01*
X109528300Y-114329467D01*
X109462240Y-113991519D01*
X109460272Y-113976829D01*
X109434803Y-113629682D01*
X109434483Y-113622275D01*
X109433916Y-113579780D01*
X109432430Y-113468355D01*
X112600000Y-113468355D01*
X112600000Y-113691204D01*
X112629085Y-113912134D01*
X112629088Y-113912147D01*
X112686763Y-114127398D01*
X112772041Y-114333277D01*
X112772044Y-114333282D01*
X112796694Y-114375977D01*
X113592893Y-113579780D01*
X113513902Y-113500789D01*
X113700000Y-113500789D01*
X113700000Y-113658771D01*
X113740889Y-113811371D01*
X113819881Y-113948188D01*
X113931592Y-114059899D01*
X114068409Y-114138891D01*
X114221009Y-114179780D01*
X114378991Y-114179780D01*
X114531591Y-114138891D01*
X114668408Y-114059899D01*
X114780119Y-113948188D01*
X114859111Y-113811371D01*
X114900000Y-113658771D01*
X114900000Y-113579779D01*
X115007106Y-113579779D01*
X115007106Y-113579780D01*
X115803304Y-114375978D01*
X115803305Y-114375978D01*
X115827948Y-114333296D01*
X115827956Y-114333280D01*
X115913236Y-114127398D01*
X115970911Y-113912147D01*
X115970914Y-113912134D01*
X116000000Y-113691204D01*
X116000000Y-113468355D01*
X133682000Y-113468355D01*
X133682000Y-113691204D01*
X133711085Y-113912134D01*
X133711088Y-113912147D01*
X133768763Y-114127398D01*
X133854041Y-114333277D01*
X133854044Y-114333282D01*
X133878694Y-114375977D01*
X134674893Y-113579780D01*
X134595902Y-113500789D01*
X134782000Y-113500789D01*
X134782000Y-113658771D01*
X134822889Y-113811371D01*
X134901881Y-113948188D01*
X135013592Y-114059899D01*
X135150409Y-114138891D01*
X135303009Y-114179780D01*
X135460991Y-114179780D01*
X135613591Y-114138891D01*
X135750408Y-114059899D01*
X135862119Y-113948188D01*
X135941111Y-113811371D01*
X135982000Y-113658771D01*
X135982000Y-113579779D01*
X136089106Y-113579779D01*
X136089106Y-113579780D01*
X136885304Y-114375978D01*
X136885305Y-114375978D01*
X136909948Y-114333296D01*
X136909956Y-114333280D01*
X136995236Y-114127398D01*
X137052911Y-113912147D01*
X137052914Y-113912134D01*
X137082000Y-113691204D01*
X137082000Y-113468355D01*
X137052914Y-113247425D01*
X137052911Y-113247412D01*
X136995236Y-113032161D01*
X136909951Y-112826268D01*
X136909950Y-112826267D01*
X136885304Y-112783580D01*
X136089106Y-113579779D01*
X135982000Y-113579779D01*
X135982000Y-113500789D01*
X135941111Y-113348189D01*
X135862119Y-113211372D01*
X135750408Y-113099661D01*
X135613591Y-113020669D01*
X135460991Y-112979780D01*
X135303009Y-112979780D01*
X135150409Y-113020669D01*
X135013592Y-113099661D01*
X134901881Y-113211372D01*
X134822889Y-113348189D01*
X134782000Y-113500789D01*
X134595902Y-113500789D01*
X133878694Y-112783581D01*
X133854043Y-112826279D01*
X133854040Y-112826285D01*
X133768763Y-113032161D01*
X133711088Y-113247412D01*
X133711085Y-113247425D01*
X133682000Y-113468355D01*
X116000000Y-113468355D01*
X115970914Y-113247425D01*
X115970911Y-113247412D01*
X115913236Y-113032161D01*
X115827951Y-112826268D01*
X115827950Y-112826267D01*
X115803304Y-112783580D01*
X115007106Y-113579779D01*
X114900000Y-113579779D01*
X114900000Y-113500789D01*
X114859111Y-113348189D01*
X114780119Y-113211372D01*
X114668408Y-113099661D01*
X114531591Y-113020669D01*
X114378991Y-112979780D01*
X114221009Y-112979780D01*
X114068409Y-113020669D01*
X113931592Y-113099661D01*
X113819881Y-113211372D01*
X113740889Y-113348189D01*
X113700000Y-113500789D01*
X113513902Y-113500789D01*
X112796694Y-112783581D01*
X112772043Y-112826279D01*
X112772040Y-112826285D01*
X112686763Y-113032161D01*
X112629088Y-113247412D01*
X112629085Y-113247425D01*
X112600000Y-113468355D01*
X109432430Y-113468355D01*
X109414554Y-112127531D01*
X109413873Y-112076474D01*
X113503801Y-112076474D01*
X114300000Y-112872673D01*
X114300001Y-112872673D01*
X115096198Y-112076474D01*
X134585801Y-112076474D01*
X135382000Y-112872673D01*
X135382001Y-112872673D01*
X136178198Y-112076474D01*
X136135502Y-112051824D01*
X136135497Y-112051821D01*
X135929618Y-111966543D01*
X135714367Y-111908868D01*
X135714354Y-111908865D01*
X135493425Y-111879780D01*
X135270575Y-111879780D01*
X135049645Y-111908865D01*
X135049632Y-111908868D01*
X134834381Y-111966543D01*
X134628505Y-112051820D01*
X134628499Y-112051823D01*
X134585801Y-112076474D01*
X115096198Y-112076474D01*
X115053502Y-112051824D01*
X115053497Y-112051821D01*
X114847618Y-111966543D01*
X114632367Y-111908868D01*
X114632354Y-111908865D01*
X114411425Y-111879780D01*
X114188575Y-111879780D01*
X113967645Y-111908865D01*
X113967632Y-111908868D01*
X113752381Y-111966543D01*
X113546505Y-112051820D01*
X113546499Y-112051823D01*
X113503801Y-112076474D01*
X109413873Y-112076474D01*
X109412407Y-111966543D01*
X109290985Y-102859911D01*
X109280684Y-102087304D01*
X113503800Y-102087304D01*
X113503800Y-102087305D01*
X113546487Y-102111950D01*
X113546488Y-102111951D01*
X113752381Y-102197236D01*
X113967632Y-102254911D01*
X113967645Y-102254914D01*
X114188575Y-102284000D01*
X114411425Y-102284000D01*
X114632354Y-102254914D01*
X114632367Y-102254911D01*
X114847618Y-102197236D01*
X115053500Y-102111956D01*
X115053516Y-102111948D01*
X115096198Y-102087305D01*
X115096198Y-102087304D01*
X115019438Y-102010544D01*
X114976198Y-101967304D01*
X134331800Y-101967304D01*
X134331800Y-101967305D01*
X134374487Y-101991950D01*
X134374488Y-101991951D01*
X134580381Y-102077236D01*
X134795632Y-102134911D01*
X134795645Y-102134914D01*
X135016575Y-102164000D01*
X135239425Y-102164000D01*
X135460354Y-102134914D01*
X135460367Y-102134911D01*
X135638043Y-102087304D01*
X154905800Y-102087304D01*
X154905800Y-102087305D01*
X154948487Y-102111950D01*
X154948488Y-102111951D01*
X155154381Y-102197236D01*
X155369632Y-102254911D01*
X155369645Y-102254914D01*
X155590575Y-102284000D01*
X155813425Y-102284000D01*
X156034354Y-102254914D01*
X156034367Y-102254911D01*
X156249618Y-102197236D01*
X156455500Y-102111956D01*
X156455516Y-102111948D01*
X156498198Y-102087305D01*
X156498198Y-102087304D01*
X155702001Y-101291106D01*
X155702000Y-101291106D01*
X154905800Y-102087304D01*
X135638043Y-102087304D01*
X135675618Y-102077236D01*
X135881500Y-101991956D01*
X135881516Y-101991948D01*
X135924198Y-101967305D01*
X135924198Y-101967304D01*
X135128001Y-101171106D01*
X135128000Y-101171106D01*
X134331800Y-101967304D01*
X114976198Y-101967304D01*
X114300001Y-101291106D01*
X114300000Y-101291106D01*
X113503800Y-102087304D01*
X109280684Y-102087304D01*
X109260579Y-100579470D01*
X109260683Y-100572511D01*
X109265007Y-100472575D01*
X112600000Y-100472575D01*
X112600000Y-100695424D01*
X112629085Y-100916354D01*
X112629088Y-100916367D01*
X112686763Y-101131618D01*
X112772041Y-101337497D01*
X112772044Y-101337502D01*
X112796694Y-101380197D01*
X113592893Y-100584000D01*
X113513902Y-100505009D01*
X113700000Y-100505009D01*
X113700000Y-100662991D01*
X113740889Y-100815591D01*
X113819881Y-100952408D01*
X113931592Y-101064119D01*
X114068409Y-101143111D01*
X114221009Y-101184000D01*
X114378991Y-101184000D01*
X114531591Y-101143111D01*
X114668408Y-101064119D01*
X114780119Y-100952408D01*
X114859111Y-100815591D01*
X114900000Y-100662991D01*
X114900000Y-100583999D01*
X115007106Y-100583999D01*
X115007106Y-100584000D01*
X115803304Y-101380198D01*
X115803305Y-101380198D01*
X115827948Y-101337516D01*
X115827956Y-101337500D01*
X115913236Y-101131618D01*
X115970911Y-100916367D01*
X115970914Y-100916354D01*
X116000000Y-100695424D01*
X116000000Y-100472575D01*
X115985798Y-100364702D01*
X115984201Y-100352575D01*
X133428000Y-100352575D01*
X133428000Y-100575424D01*
X133457085Y-100796354D01*
X133457088Y-100796367D01*
X133514763Y-101011618D01*
X133600041Y-101217497D01*
X133600044Y-101217502D01*
X133624694Y-101260197D01*
X134420893Y-100464000D01*
X134341902Y-100385009D01*
X134528000Y-100385009D01*
X134528000Y-100542991D01*
X134568889Y-100695591D01*
X134647881Y-100832408D01*
X134759592Y-100944119D01*
X134896409Y-101023111D01*
X135049009Y-101064000D01*
X135206991Y-101064000D01*
X135359591Y-101023111D01*
X135496408Y-100944119D01*
X135608119Y-100832408D01*
X135687111Y-100695591D01*
X135728000Y-100542991D01*
X135728000Y-100463999D01*
X135835106Y-100463999D01*
X135835106Y-100464000D01*
X136631304Y-101260198D01*
X136631305Y-101260198D01*
X136655948Y-101217516D01*
X136655956Y-101217500D01*
X136741236Y-101011618D01*
X136798911Y-100796367D01*
X136798914Y-100796354D01*
X136828000Y-100575424D01*
X136828000Y-100472575D01*
X154002000Y-100472575D01*
X154002000Y-100695424D01*
X154031085Y-100916354D01*
X154031088Y-100916367D01*
X154088763Y-101131618D01*
X154174041Y-101337497D01*
X154174044Y-101337502D01*
X154198694Y-101380197D01*
X154994893Y-100584000D01*
X154915902Y-100505009D01*
X155102000Y-100505009D01*
X155102000Y-100662991D01*
X155142889Y-100815591D01*
X155221881Y-100952408D01*
X155333592Y-101064119D01*
X155470409Y-101143111D01*
X155623009Y-101184000D01*
X155780991Y-101184000D01*
X155933591Y-101143111D01*
X156070408Y-101064119D01*
X156182119Y-100952408D01*
X156261111Y-100815591D01*
X156302000Y-100662991D01*
X156302000Y-100583999D01*
X156409106Y-100583999D01*
X156409106Y-100584000D01*
X157205304Y-101380198D01*
X157205305Y-101380198D01*
X157229948Y-101337516D01*
X157229956Y-101337500D01*
X157315236Y-101131618D01*
X157372911Y-100916367D01*
X157372914Y-100916354D01*
X157402000Y-100695424D01*
X157402000Y-100472575D01*
X157372914Y-100251645D01*
X157372911Y-100251632D01*
X157315236Y-100036381D01*
X157229951Y-99830488D01*
X157229950Y-99830487D01*
X157205304Y-99787800D01*
X156409106Y-100583999D01*
X156302000Y-100583999D01*
X156302000Y-100505009D01*
X156261111Y-100352409D01*
X156182119Y-100215592D01*
X156070408Y-100103881D01*
X155933591Y-100024889D01*
X155780991Y-99984000D01*
X155623009Y-99984000D01*
X155470409Y-100024889D01*
X155333592Y-100103881D01*
X155221881Y-100215592D01*
X155142889Y-100352409D01*
X155102000Y-100505009D01*
X154915902Y-100505009D01*
X154198694Y-99787801D01*
X154174043Y-99830499D01*
X154174040Y-99830505D01*
X154088763Y-100036381D01*
X154031088Y-100251632D01*
X154031085Y-100251645D01*
X154002000Y-100472575D01*
X136828000Y-100472575D01*
X136828000Y-100352575D01*
X136798914Y-100131645D01*
X136798911Y-100131632D01*
X136741236Y-99916381D01*
X136655951Y-99710488D01*
X136655950Y-99710487D01*
X136631304Y-99667800D01*
X135835106Y-100463999D01*
X135728000Y-100463999D01*
X135728000Y-100385009D01*
X135687111Y-100232409D01*
X135608119Y-100095592D01*
X135496408Y-99983881D01*
X135359591Y-99904889D01*
X135206991Y-99864000D01*
X135049009Y-99864000D01*
X134896409Y-99904889D01*
X134759592Y-99983881D01*
X134647881Y-100095592D01*
X134568889Y-100232409D01*
X134528000Y-100385009D01*
X134341902Y-100385009D01*
X133624694Y-99667801D01*
X133600043Y-99710499D01*
X133600040Y-99710505D01*
X133514763Y-99916381D01*
X133457088Y-100131632D01*
X133457085Y-100131645D01*
X133428000Y-100352575D01*
X115984201Y-100352575D01*
X115970914Y-100251645D01*
X115970911Y-100251632D01*
X115913236Y-100036381D01*
X115827951Y-99830488D01*
X115827950Y-99830487D01*
X115803304Y-99787800D01*
X115007106Y-100583999D01*
X114900000Y-100583999D01*
X114900000Y-100505009D01*
X114859111Y-100352409D01*
X114780119Y-100215592D01*
X114668408Y-100103881D01*
X114531591Y-100024889D01*
X114378991Y-99984000D01*
X114221009Y-99984000D01*
X114068409Y-100024889D01*
X113931592Y-100103881D01*
X113819881Y-100215592D01*
X113740889Y-100352409D01*
X113700000Y-100505009D01*
X113513902Y-100505009D01*
X112796694Y-99787801D01*
X112772043Y-99830499D01*
X112772040Y-99830505D01*
X112686763Y-100036381D01*
X112629088Y-100251632D01*
X112629085Y-100251645D01*
X112600000Y-100472575D01*
X109265007Y-100472575D01*
X109274896Y-100244052D01*
X109276293Y-100230104D01*
X109291819Y-100131645D01*
X109326952Y-99908829D01*
X109329917Y-99895127D01*
X109334955Y-99876893D01*
X109416523Y-99581645D01*
X109421009Y-99568378D01*
X109542469Y-99266649D01*
X109548422Y-99253982D01*
X109642159Y-99080694D01*
X113503801Y-99080694D01*
X114300000Y-99876893D01*
X114300001Y-99876893D01*
X115096197Y-99080694D01*
X115053502Y-99056044D01*
X115053497Y-99056041D01*
X114847618Y-98970763D01*
X114810039Y-98960694D01*
X134331801Y-98960694D01*
X135128000Y-99756893D01*
X135128001Y-99756893D01*
X135804198Y-99080694D01*
X154905801Y-99080694D01*
X155702000Y-99876893D01*
X155702001Y-99876893D01*
X156498198Y-99080694D01*
X156455502Y-99056044D01*
X156455497Y-99056041D01*
X156249618Y-98970763D01*
X156034367Y-98913088D01*
X156034354Y-98913085D01*
X155813425Y-98884000D01*
X155590575Y-98884000D01*
X155369645Y-98913085D01*
X155369632Y-98913088D01*
X155154381Y-98970763D01*
X154948505Y-99056040D01*
X154948499Y-99056043D01*
X154905801Y-99080694D01*
X135804198Y-99080694D01*
X135847438Y-99037454D01*
X135924198Y-98960694D01*
X135881502Y-98936044D01*
X135881497Y-98936041D01*
X135675618Y-98850763D01*
X135460367Y-98793088D01*
X135460354Y-98793085D01*
X135239425Y-98764000D01*
X135016575Y-98764000D01*
X134795645Y-98793085D01*
X134795632Y-98793088D01*
X134580381Y-98850763D01*
X134374505Y-98936040D01*
X134374499Y-98936043D01*
X134331801Y-98960694D01*
X114810039Y-98960694D01*
X114632367Y-98913088D01*
X114632354Y-98913085D01*
X114411425Y-98884000D01*
X114188575Y-98884000D01*
X113967645Y-98913085D01*
X113967632Y-98913088D01*
X113752381Y-98970763D01*
X113546505Y-99056040D01*
X113546499Y-99056043D01*
X113503801Y-99080694D01*
X109642159Y-99080694D01*
X109703170Y-98967904D01*
X109710527Y-98955971D01*
X109724425Y-98936044D01*
X109896581Y-98689201D01*
X109905219Y-98678198D01*
X110120216Y-98434130D01*
X110130051Y-98424164D01*
X110371224Y-98205939D01*
X110382127Y-98197141D01*
X110646393Y-98007544D01*
X110658206Y-98000042D01*
X110942217Y-97841482D01*
X110954799Y-97835365D01*
X111254867Y-97709900D01*
X111268075Y-97705235D01*
X111580413Y-97614446D01*
X111594042Y-97611309D01*
X111914611Y-97556371D01*
X111928534Y-97554788D01*
X112256771Y-97536197D01*
X112263783Y-97536000D01*
X157310012Y-97536000D01*
X157317434Y-97536221D01*
G37*
%TD.AperFunction*%
%TD*%
%TA.AperFunction,Conductor*%
%TO.N,GND*%
G36*
X158629061Y-77216596D02*
G01*
X158833835Y-77236765D01*
X158857670Y-77241505D01*
X159048732Y-77299464D01*
X159071171Y-77308759D01*
X159247247Y-77402873D01*
X159267457Y-77416377D01*
X159421782Y-77543029D01*
X159438970Y-77560217D01*
X159565622Y-77714542D01*
X159579127Y-77734754D01*
X159673237Y-77910822D01*
X159682537Y-77933273D01*
X159728589Y-78085085D01*
X159740492Y-78124323D01*
X159745234Y-78148164D01*
X159765403Y-78352938D01*
X159766000Y-78365092D01*
X159766000Y-79502000D01*
X157734000Y-79502000D01*
X157734000Y-93218000D01*
X159766000Y-93218000D01*
X159766000Y-94482588D01*
X159765528Y-94493396D01*
X159747651Y-94697725D01*
X159743898Y-94719011D01*
X159692217Y-94911887D01*
X159684824Y-94932198D01*
X159600437Y-95113165D01*
X159589630Y-95131883D01*
X159475095Y-95295456D01*
X159461201Y-95312014D01*
X159320014Y-95453201D01*
X159303456Y-95467095D01*
X159139883Y-95581630D01*
X159121165Y-95592437D01*
X158940198Y-95676824D01*
X158919887Y-95684217D01*
X158727011Y-95735898D01*
X158705725Y-95739651D01*
X158528008Y-95755199D01*
X158501394Y-95757528D01*
X158490588Y-95758000D01*
X111928906Y-95758000D01*
X111921484Y-95757778D01*
X111574132Y-95736950D01*
X111559395Y-95735176D01*
X111220694Y-95673660D01*
X111206275Y-95670138D01*
X110877344Y-95568589D01*
X110863448Y-95563369D01*
X110549018Y-95423247D01*
X110535846Y-95416405D01*
X110240399Y-95239710D01*
X110228139Y-95231342D01*
X110088188Y-95123000D01*
X109955938Y-95020619D01*
X109944765Y-95010847D01*
X109699675Y-94769092D01*
X109689751Y-94758054D01*
X109641712Y-94697725D01*
X109475315Y-94488758D01*
X109466790Y-94476627D01*
X109377485Y-94331844D01*
X112600000Y-94331844D01*
X112606401Y-94391372D01*
X112606403Y-94391379D01*
X112656645Y-94526086D01*
X112656649Y-94526093D01*
X112742809Y-94641187D01*
X112742812Y-94641190D01*
X112857906Y-94727350D01*
X112857913Y-94727354D01*
X112992620Y-94777596D01*
X112992627Y-94777598D01*
X113052155Y-94783999D01*
X113052172Y-94784000D01*
X113800000Y-94784000D01*
X114800000Y-94784000D01*
X115547828Y-94784000D01*
X115547844Y-94783999D01*
X115607372Y-94777598D01*
X115607379Y-94777596D01*
X115742086Y-94727354D01*
X115742093Y-94727350D01*
X115857187Y-94641190D01*
X115857190Y-94641187D01*
X115943350Y-94526093D01*
X115943354Y-94526086D01*
X115993596Y-94391379D01*
X115993598Y-94391372D01*
X115999999Y-94331844D01*
X116000000Y-94331827D01*
X116000000Y-94211844D01*
X133428000Y-94211844D01*
X133434401Y-94271372D01*
X133434403Y-94271379D01*
X133484645Y-94406086D01*
X133484649Y-94406093D01*
X133570809Y-94521187D01*
X133570812Y-94521190D01*
X133685906Y-94607350D01*
X133685913Y-94607354D01*
X133820620Y-94657596D01*
X133820627Y-94657598D01*
X133880155Y-94663999D01*
X133880172Y-94664000D01*
X134628000Y-94664000D01*
X135628000Y-94664000D01*
X136375828Y-94664000D01*
X136375844Y-94663999D01*
X136435372Y-94657598D01*
X136435379Y-94657596D01*
X136570086Y-94607354D01*
X136570093Y-94607350D01*
X136685187Y-94521190D01*
X136685190Y-94521187D01*
X136771350Y-94406093D01*
X136771354Y-94406086D01*
X136799044Y-94331844D01*
X154002000Y-94331844D01*
X154008401Y-94391372D01*
X154008403Y-94391379D01*
X154058645Y-94526086D01*
X154058649Y-94526093D01*
X154144809Y-94641187D01*
X154144812Y-94641190D01*
X154259906Y-94727350D01*
X154259913Y-94727354D01*
X154394620Y-94777596D01*
X154394627Y-94777598D01*
X154454155Y-94783999D01*
X154454172Y-94784000D01*
X155202000Y-94784000D01*
X156202000Y-94784000D01*
X156949828Y-94784000D01*
X156949844Y-94783999D01*
X157009372Y-94777598D01*
X157009379Y-94777596D01*
X157144086Y-94727354D01*
X157144093Y-94727350D01*
X157259187Y-94641190D01*
X157259190Y-94641187D01*
X157345350Y-94526093D01*
X157345354Y-94526086D01*
X157395596Y-94391379D01*
X157395598Y-94391372D01*
X157401999Y-94331844D01*
X157402000Y-94331827D01*
X157402000Y-93584000D01*
X156202000Y-93584000D01*
X156202000Y-94784000D01*
X155202000Y-94784000D01*
X155202000Y-93584000D01*
X154002000Y-93584000D01*
X154002000Y-94331844D01*
X136799044Y-94331844D01*
X136821596Y-94271379D01*
X136821598Y-94271372D01*
X136827999Y-94211844D01*
X136828000Y-94211827D01*
X136828000Y-93464000D01*
X135628000Y-93464000D01*
X135628000Y-94664000D01*
X134628000Y-94664000D01*
X134628000Y-93464000D01*
X133428000Y-93464000D01*
X133428000Y-94211844D01*
X116000000Y-94211844D01*
X116000000Y-93584000D01*
X114800000Y-93584000D01*
X114800000Y-94784000D01*
X113800000Y-94784000D01*
X113800000Y-93584000D01*
X112600000Y-93584000D01*
X112600000Y-94331844D01*
X109377485Y-94331844D01*
X109286056Y-94183617D01*
X109279040Y-94170551D01*
X109134620Y-93858061D01*
X109129211Y-93844238D01*
X109040686Y-93570836D01*
X109023167Y-93516731D01*
X109019448Y-93502361D01*
X109016236Y-93485960D01*
X108953296Y-93164528D01*
X108951322Y-93149817D01*
X108940647Y-93005009D01*
X113700000Y-93005009D01*
X113700000Y-93162991D01*
X113740889Y-93315591D01*
X113819881Y-93452408D01*
X113931592Y-93564119D01*
X114068409Y-93643111D01*
X114221009Y-93684000D01*
X114378991Y-93684000D01*
X114531591Y-93643111D01*
X114668408Y-93564119D01*
X114780119Y-93452408D01*
X114859111Y-93315591D01*
X114900000Y-93162991D01*
X114900000Y-93005009D01*
X114867846Y-92885009D01*
X134528000Y-92885009D01*
X134528000Y-93042991D01*
X134568889Y-93195591D01*
X134647881Y-93332408D01*
X134759592Y-93444119D01*
X134896409Y-93523111D01*
X135049009Y-93564000D01*
X135206991Y-93564000D01*
X135359591Y-93523111D01*
X135496408Y-93444119D01*
X135608119Y-93332408D01*
X135687111Y-93195591D01*
X135728000Y-93042991D01*
X135728000Y-93005009D01*
X155102000Y-93005009D01*
X155102000Y-93162991D01*
X155142889Y-93315591D01*
X155221881Y-93452408D01*
X155333592Y-93564119D01*
X155470409Y-93643111D01*
X155623009Y-93684000D01*
X155780991Y-93684000D01*
X155933591Y-93643111D01*
X156070408Y-93564119D01*
X156182119Y-93452408D01*
X156261111Y-93315591D01*
X156302000Y-93162991D01*
X156302000Y-93005009D01*
X156261111Y-92852409D01*
X156182119Y-92715592D01*
X156070408Y-92603881D01*
X156035973Y-92584000D01*
X156202000Y-92584000D01*
X157402000Y-92584000D01*
X157402000Y-91836172D01*
X157401999Y-91836155D01*
X157395598Y-91776627D01*
X157395596Y-91776620D01*
X157345354Y-91641913D01*
X157345350Y-91641906D01*
X157259190Y-91526812D01*
X157259187Y-91526809D01*
X157144093Y-91440649D01*
X157144086Y-91440645D01*
X157009379Y-91390403D01*
X157009372Y-91390401D01*
X156949844Y-91384000D01*
X156202000Y-91384000D01*
X156202000Y-92584000D01*
X156035973Y-92584000D01*
X155933591Y-92524889D01*
X155780991Y-92484000D01*
X155623009Y-92484000D01*
X155470409Y-92524889D01*
X155333592Y-92603881D01*
X155221881Y-92715592D01*
X155142889Y-92852409D01*
X155102000Y-93005009D01*
X135728000Y-93005009D01*
X135728000Y-92885009D01*
X135687111Y-92732409D01*
X135608119Y-92595592D01*
X135496408Y-92483881D01*
X135461973Y-92464000D01*
X135628000Y-92464000D01*
X136828000Y-92464000D01*
X136828000Y-91836155D01*
X154002000Y-91836155D01*
X154002000Y-92584000D01*
X155202000Y-92584000D01*
X155202000Y-91384000D01*
X154454155Y-91384000D01*
X154394627Y-91390401D01*
X154394620Y-91390403D01*
X154259913Y-91440645D01*
X154259906Y-91440649D01*
X154144812Y-91526809D01*
X154144809Y-91526812D01*
X154058649Y-91641906D01*
X154058645Y-91641913D01*
X154008403Y-91776620D01*
X154008401Y-91776627D01*
X154002000Y-91836155D01*
X136828000Y-91836155D01*
X136828000Y-91716172D01*
X136827999Y-91716155D01*
X136821598Y-91656627D01*
X136821596Y-91656620D01*
X136771354Y-91521913D01*
X136771350Y-91521906D01*
X136685190Y-91406812D01*
X136685187Y-91406809D01*
X136570093Y-91320649D01*
X136570086Y-91320645D01*
X136435379Y-91270403D01*
X136435372Y-91270401D01*
X136375844Y-91264000D01*
X135628000Y-91264000D01*
X135628000Y-92464000D01*
X135461973Y-92464000D01*
X135359591Y-92404889D01*
X135206991Y-92364000D01*
X135049009Y-92364000D01*
X134896409Y-92404889D01*
X134759592Y-92483881D01*
X134647881Y-92595592D01*
X134568889Y-92732409D01*
X134528000Y-92885009D01*
X114867846Y-92885009D01*
X114859111Y-92852409D01*
X114780119Y-92715592D01*
X114668408Y-92603881D01*
X114633973Y-92584000D01*
X114800000Y-92584000D01*
X116000000Y-92584000D01*
X116000000Y-91836172D01*
X115999999Y-91836155D01*
X115993598Y-91776627D01*
X115993597Y-91776623D01*
X115985974Y-91756183D01*
X115985973Y-91756180D01*
X115971045Y-91716155D01*
X133428000Y-91716155D01*
X133428000Y-92464000D01*
X134628000Y-92464000D01*
X134628000Y-91264000D01*
X133880155Y-91264000D01*
X133820627Y-91270401D01*
X133820620Y-91270403D01*
X133685913Y-91320645D01*
X133685906Y-91320649D01*
X133570812Y-91406809D01*
X133570809Y-91406812D01*
X133484649Y-91521906D01*
X133484645Y-91521913D01*
X133434403Y-91656620D01*
X133434401Y-91656627D01*
X133428000Y-91716155D01*
X115971045Y-91716155D01*
X115943354Y-91641913D01*
X115943350Y-91641906D01*
X115857190Y-91526812D01*
X115857187Y-91526809D01*
X115742093Y-91440649D01*
X115742086Y-91440645D01*
X115607379Y-91390403D01*
X115607372Y-91390401D01*
X115547844Y-91384000D01*
X114800000Y-91384000D01*
X114800000Y-92584000D01*
X114633973Y-92584000D01*
X114531591Y-92524889D01*
X114378991Y-92484000D01*
X114221009Y-92484000D01*
X114068409Y-92524889D01*
X113931592Y-92603881D01*
X113819881Y-92715592D01*
X113740889Y-92852409D01*
X113700000Y-93005009D01*
X108940647Y-93005009D01*
X108925740Y-92802797D01*
X108925416Y-92795379D01*
X108922520Y-92584000D01*
X108912276Y-91836155D01*
X112600000Y-91836155D01*
X112600000Y-92584000D01*
X113800000Y-92584000D01*
X113800000Y-91384000D01*
X113052155Y-91384000D01*
X112992627Y-91390401D01*
X112992620Y-91390403D01*
X112857913Y-91440645D01*
X112857906Y-91440649D01*
X112742812Y-91526809D01*
X112742809Y-91526812D01*
X112656649Y-91641906D01*
X112656645Y-91641913D01*
X112606403Y-91776620D01*
X112606401Y-91776627D01*
X112600000Y-91836155D01*
X108912276Y-91836155D01*
X108767388Y-81259304D01*
X113503800Y-81259304D01*
X113503800Y-81259305D01*
X113546487Y-81283950D01*
X113546488Y-81283951D01*
X113752381Y-81369236D01*
X113967632Y-81426911D01*
X113967645Y-81426914D01*
X114188575Y-81456000D01*
X114411425Y-81456000D01*
X114632354Y-81426914D01*
X114632367Y-81426911D01*
X114847618Y-81369236D01*
X115053500Y-81283956D01*
X115053516Y-81283948D01*
X115096198Y-81259305D01*
X115096198Y-81259304D01*
X134331800Y-81259304D01*
X134331800Y-81259305D01*
X134374487Y-81283950D01*
X134374488Y-81283951D01*
X134580381Y-81369236D01*
X134795632Y-81426911D01*
X134795645Y-81426914D01*
X135016575Y-81456000D01*
X135239425Y-81456000D01*
X135460354Y-81426914D01*
X135460367Y-81426911D01*
X135675618Y-81369236D01*
X135881500Y-81283956D01*
X135881516Y-81283948D01*
X135924198Y-81259305D01*
X135924198Y-81259304D01*
X135847438Y-81182544D01*
X135804198Y-81139304D01*
X154905800Y-81139304D01*
X154905800Y-81139305D01*
X154948487Y-81163950D01*
X154948488Y-81163951D01*
X155154381Y-81249236D01*
X155369632Y-81306911D01*
X155369645Y-81306914D01*
X155590575Y-81336000D01*
X155813425Y-81336000D01*
X156034354Y-81306914D01*
X156034367Y-81306911D01*
X156249618Y-81249236D01*
X156455500Y-81163956D01*
X156455516Y-81163948D01*
X156498198Y-81139305D01*
X156498198Y-81139304D01*
X155702001Y-80343106D01*
X155702000Y-80343106D01*
X154905800Y-81139304D01*
X135804198Y-81139304D01*
X135128001Y-80463106D01*
X135128000Y-80463106D01*
X134331800Y-81259304D01*
X115096198Y-81259304D01*
X114300001Y-80463106D01*
X114300000Y-80463106D01*
X113503800Y-81259304D01*
X108767388Y-81259304D01*
X108753707Y-80260602D01*
X108753809Y-80253593D01*
X108760900Y-80088367D01*
X108767909Y-79925054D01*
X108769299Y-79911126D01*
X108811241Y-79644575D01*
X112600000Y-79644575D01*
X112600000Y-79867424D01*
X112629085Y-80088354D01*
X112629088Y-80088367D01*
X112686763Y-80303618D01*
X112772041Y-80509497D01*
X112772044Y-80509502D01*
X112796694Y-80552197D01*
X113592893Y-79756000D01*
X113513902Y-79677009D01*
X113700000Y-79677009D01*
X113700000Y-79834991D01*
X113740889Y-79987591D01*
X113819881Y-80124408D01*
X113931592Y-80236119D01*
X114068409Y-80315111D01*
X114221009Y-80356000D01*
X114378991Y-80356000D01*
X114531591Y-80315111D01*
X114668408Y-80236119D01*
X114780119Y-80124408D01*
X114859111Y-79987591D01*
X114900000Y-79834991D01*
X114900000Y-79755999D01*
X115007106Y-79755999D01*
X115007106Y-79756000D01*
X115803304Y-80552198D01*
X115803305Y-80552198D01*
X115827948Y-80509516D01*
X115827956Y-80509500D01*
X115913236Y-80303618D01*
X115970911Y-80088367D01*
X115970914Y-80088354D01*
X116000000Y-79867424D01*
X116000000Y-79644575D01*
X133428000Y-79644575D01*
X133428000Y-79867424D01*
X133457085Y-80088354D01*
X133457088Y-80088367D01*
X133514763Y-80303618D01*
X133600041Y-80509497D01*
X133600044Y-80509502D01*
X133624694Y-80552197D01*
X134420893Y-79756000D01*
X134341902Y-79677009D01*
X134528000Y-79677009D01*
X134528000Y-79834991D01*
X134568889Y-79987591D01*
X134647881Y-80124408D01*
X134759592Y-80236119D01*
X134896409Y-80315111D01*
X135049009Y-80356000D01*
X135206991Y-80356000D01*
X135359591Y-80315111D01*
X135496408Y-80236119D01*
X135608119Y-80124408D01*
X135687111Y-79987591D01*
X135728000Y-79834991D01*
X135728000Y-79755999D01*
X135835106Y-79755999D01*
X135835106Y-79756000D01*
X136631304Y-80552198D01*
X136631305Y-80552198D01*
X136655948Y-80509516D01*
X136655956Y-80509500D01*
X136741236Y-80303618D01*
X136798911Y-80088367D01*
X136798914Y-80088354D01*
X136828000Y-79867424D01*
X136828000Y-79644575D01*
X136813798Y-79536702D01*
X136812201Y-79524575D01*
X154002000Y-79524575D01*
X154002000Y-79747424D01*
X154031085Y-79968354D01*
X154031088Y-79968367D01*
X154088763Y-80183618D01*
X154174041Y-80389497D01*
X154174044Y-80389502D01*
X154198694Y-80432197D01*
X154994893Y-79636000D01*
X154915902Y-79557009D01*
X155102000Y-79557009D01*
X155102000Y-79714991D01*
X155142889Y-79867591D01*
X155221881Y-80004408D01*
X155333592Y-80116119D01*
X155470409Y-80195111D01*
X155623009Y-80236000D01*
X155780991Y-80236000D01*
X155933591Y-80195111D01*
X156070408Y-80116119D01*
X156182119Y-80004408D01*
X156261111Y-79867591D01*
X156302000Y-79714991D01*
X156302000Y-79635999D01*
X156409106Y-79635999D01*
X156409106Y-79636000D01*
X157205304Y-80432198D01*
X157205305Y-80432198D01*
X157229948Y-80389516D01*
X157229956Y-80389500D01*
X157315236Y-80183618D01*
X157372911Y-79968367D01*
X157372914Y-79968354D01*
X157402000Y-79747424D01*
X157402000Y-79524575D01*
X157372914Y-79303645D01*
X157372911Y-79303632D01*
X157315236Y-79088381D01*
X157229951Y-78882488D01*
X157229950Y-78882487D01*
X157205304Y-78839800D01*
X156409106Y-79635999D01*
X156302000Y-79635999D01*
X156302000Y-79557009D01*
X156261111Y-79404409D01*
X156182119Y-79267592D01*
X156070408Y-79155881D01*
X155933591Y-79076889D01*
X155780991Y-79036000D01*
X155623009Y-79036000D01*
X155470409Y-79076889D01*
X155333592Y-79155881D01*
X155221881Y-79267592D01*
X155142889Y-79404409D01*
X155102000Y-79557009D01*
X154915902Y-79557009D01*
X154198694Y-78839801D01*
X154174043Y-78882499D01*
X154174040Y-78882505D01*
X154088763Y-79088381D01*
X154031088Y-79303632D01*
X154031085Y-79303645D01*
X154002000Y-79524575D01*
X136812201Y-79524575D01*
X136798914Y-79423645D01*
X136798911Y-79423632D01*
X136741236Y-79208381D01*
X136655951Y-79002488D01*
X136655950Y-79002487D01*
X136631304Y-78959800D01*
X135835106Y-79755999D01*
X135728000Y-79755999D01*
X135728000Y-79677009D01*
X135687111Y-79524409D01*
X135608119Y-79387592D01*
X135496408Y-79275881D01*
X135359591Y-79196889D01*
X135206991Y-79156000D01*
X135049009Y-79156000D01*
X134896409Y-79196889D01*
X134759592Y-79275881D01*
X134647881Y-79387592D01*
X134568889Y-79524409D01*
X134528000Y-79677009D01*
X134341902Y-79677009D01*
X133624694Y-78959801D01*
X133600043Y-79002499D01*
X133600040Y-79002505D01*
X133514763Y-79208381D01*
X133457088Y-79423632D01*
X133457085Y-79423645D01*
X133428000Y-79644575D01*
X116000000Y-79644575D01*
X115970914Y-79423645D01*
X115970911Y-79423632D01*
X115913236Y-79208381D01*
X115827951Y-79002488D01*
X115827950Y-79002487D01*
X115803304Y-78959800D01*
X115007106Y-79755999D01*
X114900000Y-79755999D01*
X114900000Y-79677009D01*
X114859111Y-79524409D01*
X114780119Y-79387592D01*
X114668408Y-79275881D01*
X114531591Y-79196889D01*
X114378991Y-79156000D01*
X114221009Y-79156000D01*
X114068409Y-79196889D01*
X113931592Y-79275881D01*
X113819881Y-79387592D01*
X113740889Y-79524409D01*
X113700000Y-79677009D01*
X113513902Y-79677009D01*
X112796694Y-78959801D01*
X112772043Y-79002499D01*
X112772040Y-79002505D01*
X112686763Y-79208381D01*
X112629088Y-79423632D01*
X112629085Y-79423645D01*
X112600000Y-79644575D01*
X108811241Y-79644575D01*
X108819868Y-79589747D01*
X108822824Y-79576059D01*
X108909361Y-79262457D01*
X108913841Y-79249198D01*
X109035248Y-78947361D01*
X109041205Y-78934678D01*
X109195910Y-78648511D01*
X109203267Y-78636569D01*
X109389305Y-78369697D01*
X109397957Y-78358674D01*
X109491277Y-78252694D01*
X113503801Y-78252694D01*
X114300000Y-79048893D01*
X114300001Y-79048893D01*
X115096198Y-78252694D01*
X134331801Y-78252694D01*
X135128000Y-79048893D01*
X135128001Y-79048893D01*
X135924197Y-78252694D01*
X135881502Y-78228044D01*
X135881497Y-78228041D01*
X135675618Y-78142763D01*
X135638039Y-78132694D01*
X154905801Y-78132694D01*
X155702000Y-78928893D01*
X155702001Y-78928893D01*
X156498198Y-78132694D01*
X156455502Y-78108044D01*
X156455497Y-78108041D01*
X156249618Y-78022763D01*
X156034367Y-77965088D01*
X156034354Y-77965085D01*
X155813425Y-77936000D01*
X155590575Y-77936000D01*
X155369645Y-77965085D01*
X155369632Y-77965088D01*
X155154381Y-78022763D01*
X154948505Y-78108040D01*
X154948499Y-78108043D01*
X154905801Y-78132694D01*
X135638039Y-78132694D01*
X135460367Y-78085088D01*
X135460354Y-78085085D01*
X135239425Y-78056000D01*
X135016575Y-78056000D01*
X134795645Y-78085085D01*
X134795632Y-78085088D01*
X134580381Y-78142763D01*
X134374505Y-78228040D01*
X134374499Y-78228043D01*
X134331801Y-78252694D01*
X115096198Y-78252694D01*
X115053502Y-78228044D01*
X115053497Y-78228041D01*
X114847618Y-78142763D01*
X114632367Y-78085088D01*
X114632354Y-78085085D01*
X114411425Y-78056000D01*
X114188575Y-78056000D01*
X113967645Y-78085085D01*
X113967632Y-78085088D01*
X113752381Y-78142763D01*
X113546505Y-78228040D01*
X113546499Y-78228043D01*
X113503801Y-78252694D01*
X109491277Y-78252694D01*
X109524302Y-78215189D01*
X109612940Y-78114526D01*
X109622777Y-78104551D01*
X109863978Y-77886226D01*
X109874867Y-77877437D01*
X110139175Y-77687755D01*
X110150993Y-77680248D01*
X110435030Y-77521629D01*
X110447635Y-77515499D01*
X110747769Y-77389974D01*
X110760970Y-77385312D01*
X111073353Y-77294487D01*
X111087011Y-77291342D01*
X111407639Y-77236380D01*
X111421568Y-77234796D01*
X111749882Y-77216198D01*
X111756895Y-77216000D01*
X158616908Y-77216000D01*
X158629061Y-77216596D01*
G37*
%TD.AperFunction*%
%TD*%
%TA.AperFunction,Conductor*%
%TO.N,/UNREG+*%
G36*
X149721500Y-57059139D02*
G01*
X149721500Y-57240860D01*
X149749928Y-57420347D01*
X149749928Y-57420350D01*
X149806081Y-57593171D01*
X149806083Y-57593174D01*
X149888583Y-57755090D01*
X149995397Y-57902106D01*
X150123894Y-58030603D01*
X150270910Y-58137417D01*
X150432826Y-58219917D01*
X150432828Y-58219918D01*
X150594029Y-58272294D01*
X150605654Y-58276072D01*
X150720361Y-58294240D01*
X150741114Y-58297527D01*
X150804249Y-58327456D01*
X150841180Y-58386768D01*
X150840182Y-58456630D01*
X150801572Y-58514863D01*
X150741114Y-58542473D01*
X150605652Y-58563928D01*
X150605649Y-58563928D01*
X150432828Y-58620081D01*
X150432825Y-58620083D01*
X150270909Y-58702583D01*
X150187030Y-58763525D01*
X150123894Y-58809397D01*
X150123892Y-58809399D01*
X150123891Y-58809399D01*
X149995399Y-58937891D01*
X149995399Y-58937892D01*
X149995397Y-58937894D01*
X149982329Y-58955881D01*
X149888583Y-59084909D01*
X149806083Y-59246825D01*
X149806081Y-59246828D01*
X149749928Y-59419649D01*
X149749928Y-59419652D01*
X149749928Y-59419654D01*
X149721500Y-59599139D01*
X149721500Y-59780861D01*
X149722799Y-59789060D01*
X149749928Y-59960347D01*
X149749928Y-59960350D01*
X149806081Y-60133171D01*
X149806083Y-60133174D01*
X149888583Y-60295090D01*
X149995397Y-60442106D01*
X150123894Y-60570603D01*
X150270910Y-60677417D01*
X150432826Y-60759917D01*
X150432828Y-60759918D01*
X150594029Y-60812294D01*
X150605654Y-60816072D01*
X150785139Y-60844500D01*
X150785140Y-60844500D01*
X150966860Y-60844500D01*
X150966861Y-60844500D01*
X151146346Y-60816072D01*
X151146349Y-60816071D01*
X151146350Y-60816071D01*
X151319171Y-60759918D01*
X151319171Y-60759917D01*
X151319174Y-60759917D01*
X151319180Y-60759914D01*
X151338318Y-60750163D01*
X151338320Y-60750162D01*
X151389047Y-60724315D01*
X151481090Y-60677417D01*
X151628106Y-60570603D01*
X151756603Y-60442106D01*
X151863417Y-60295090D01*
X151945917Y-60133174D01*
X152002072Y-59960346D01*
X152030500Y-59780861D01*
X152030500Y-59599139D01*
X152002072Y-59419654D01*
X152002071Y-59419650D01*
X152002071Y-59419649D01*
X151945918Y-59246828D01*
X151945916Y-59246825D01*
X151940044Y-59235299D01*
X151863417Y-59084910D01*
X151756603Y-58937894D01*
X151628106Y-58809397D01*
X151481090Y-58702583D01*
X151319174Y-58620083D01*
X151319171Y-58620081D01*
X151146349Y-58563928D01*
X151050008Y-58548669D01*
X151010884Y-58542472D01*
X150947750Y-58512544D01*
X150910819Y-58453232D01*
X150911817Y-58383370D01*
X150950427Y-58325137D01*
X151010884Y-58297527D01*
X151146346Y-58276072D01*
X151146349Y-58276071D01*
X151146350Y-58276071D01*
X151319171Y-58219918D01*
X151319171Y-58219917D01*
X151319174Y-58219917D01*
X151481090Y-58137417D01*
X151628106Y-58030603D01*
X151756603Y-57902106D01*
X151863417Y-57755090D01*
X151945917Y-57593174D01*
X151978630Y-57492493D01*
X152002071Y-57420350D01*
X152002071Y-57420349D01*
X152002072Y-57420346D01*
X152030500Y-57240861D01*
X152030500Y-57059139D01*
X152004661Y-56896000D01*
X159766000Y-56896000D01*
X159766000Y-62230000D01*
X159766000Y-72180519D01*
X159765805Y-72187472D01*
X159747527Y-72512941D01*
X159745970Y-72526759D01*
X159691950Y-72844695D01*
X159688856Y-72858252D01*
X159599576Y-73168148D01*
X159594983Y-73181272D01*
X159471572Y-73479215D01*
X159465539Y-73491744D01*
X159309538Y-73774006D01*
X159302139Y-73785780D01*
X159115528Y-74048783D01*
X159106859Y-74059655D01*
X158891960Y-74300127D01*
X158882127Y-74309960D01*
X158641655Y-74524859D01*
X158630783Y-74533528D01*
X158367780Y-74720139D01*
X158356006Y-74727538D01*
X158073744Y-74883539D01*
X158061215Y-74889572D01*
X157763272Y-75012983D01*
X157750148Y-75017576D01*
X157440252Y-75106856D01*
X157426695Y-75109950D01*
X157108759Y-75163970D01*
X157094941Y-75165527D01*
X156769472Y-75183805D01*
X156762519Y-75184000D01*
X111715481Y-75184000D01*
X111708528Y-75183805D01*
X111383058Y-75165527D01*
X111369240Y-75163970D01*
X111051304Y-75109950D01*
X111037747Y-75106856D01*
X110727851Y-75017576D01*
X110714727Y-75012983D01*
X110416784Y-74889572D01*
X110404255Y-74883539D01*
X110121993Y-74727538D01*
X110110219Y-74720139D01*
X109847216Y-74533528D01*
X109836344Y-74524859D01*
X109595872Y-74309960D01*
X109586039Y-74300127D01*
X109371140Y-74059655D01*
X109362475Y-74048789D01*
X109175859Y-73785779D01*
X109168461Y-73774006D01*
X109019147Y-73503844D01*
X112600000Y-73503844D01*
X112606401Y-73563372D01*
X112606403Y-73563379D01*
X112656645Y-73698086D01*
X112656649Y-73698093D01*
X112742809Y-73813187D01*
X112742812Y-73813190D01*
X112857906Y-73899350D01*
X112857913Y-73899354D01*
X112992620Y-73949596D01*
X112992627Y-73949598D01*
X113052155Y-73955999D01*
X113052172Y-73956000D01*
X113800000Y-73956000D01*
X114800000Y-73956000D01*
X115547828Y-73956000D01*
X115547844Y-73955999D01*
X115607372Y-73949598D01*
X115607379Y-73949596D01*
X115742086Y-73899354D01*
X115742093Y-73899350D01*
X115857187Y-73813190D01*
X115857190Y-73813187D01*
X115943350Y-73698093D01*
X115943354Y-73698086D01*
X115993596Y-73563379D01*
X115993598Y-73563372D01*
X115999999Y-73503844D01*
X133428000Y-73503844D01*
X133434401Y-73563372D01*
X133434403Y-73563379D01*
X133484645Y-73698086D01*
X133484649Y-73698093D01*
X133570809Y-73813187D01*
X133570812Y-73813190D01*
X133685906Y-73899350D01*
X133685913Y-73899354D01*
X133820620Y-73949596D01*
X133820627Y-73949598D01*
X133880155Y-73955999D01*
X133880172Y-73956000D01*
X134628000Y-73956000D01*
X135628000Y-73956000D01*
X136375828Y-73956000D01*
X136375844Y-73955999D01*
X136435372Y-73949598D01*
X136435379Y-73949596D01*
X136570086Y-73899354D01*
X136570093Y-73899350D01*
X136685187Y-73813190D01*
X136685190Y-73813187D01*
X136771350Y-73698093D01*
X136771354Y-73698086D01*
X136821596Y-73563379D01*
X136821598Y-73563372D01*
X136827999Y-73503844D01*
X136828000Y-73503827D01*
X136828000Y-73383844D01*
X154002000Y-73383844D01*
X154008401Y-73443372D01*
X154008403Y-73443379D01*
X154058645Y-73578086D01*
X154058649Y-73578093D01*
X154144809Y-73693187D01*
X154144812Y-73693190D01*
X154259906Y-73779350D01*
X154259913Y-73779354D01*
X154394620Y-73829596D01*
X154394627Y-73829598D01*
X154454155Y-73835999D01*
X154454172Y-73836000D01*
X155202000Y-73836000D01*
X156202000Y-73836000D01*
X156949828Y-73836000D01*
X156949844Y-73835999D01*
X157009372Y-73829598D01*
X157009379Y-73829596D01*
X157144086Y-73779354D01*
X157144093Y-73779350D01*
X157259187Y-73693190D01*
X157259190Y-73693187D01*
X157345350Y-73578093D01*
X157345354Y-73578086D01*
X157395596Y-73443379D01*
X157395598Y-73443372D01*
X157401999Y-73383844D01*
X157402000Y-73383827D01*
X157402000Y-72636000D01*
X156202000Y-72636000D01*
X156202000Y-73836000D01*
X155202000Y-73836000D01*
X155202000Y-72636000D01*
X154002000Y-72636000D01*
X154002000Y-73383844D01*
X136828000Y-73383844D01*
X136828000Y-72756000D01*
X135628000Y-72756000D01*
X135628000Y-73956000D01*
X134628000Y-73956000D01*
X134628000Y-72756000D01*
X133428000Y-72756000D01*
X133428000Y-73503844D01*
X115999999Y-73503844D01*
X116000000Y-73503827D01*
X116000000Y-72756000D01*
X114800000Y-72756000D01*
X114800000Y-73956000D01*
X113800000Y-73956000D01*
X113800000Y-72756000D01*
X112600000Y-72756000D01*
X112600000Y-73503844D01*
X109019147Y-73503844D01*
X109012456Y-73491737D01*
X109006427Y-73479215D01*
X108991580Y-73443372D01*
X108966916Y-73383827D01*
X108883016Y-73181272D01*
X108878423Y-73168148D01*
X108789143Y-72858252D01*
X108786049Y-72844695D01*
X108770979Y-72756000D01*
X108732027Y-72526748D01*
X108730473Y-72512949D01*
X108712195Y-72187471D01*
X108712000Y-72180519D01*
X108712000Y-72177009D01*
X113700000Y-72177009D01*
X113700000Y-72334991D01*
X113740889Y-72487591D01*
X113819881Y-72624408D01*
X113931592Y-72736119D01*
X114068409Y-72815111D01*
X114221009Y-72856000D01*
X114378991Y-72856000D01*
X114531591Y-72815111D01*
X114668408Y-72736119D01*
X114780119Y-72624408D01*
X114859111Y-72487591D01*
X114900000Y-72334991D01*
X114900000Y-72177009D01*
X134528000Y-72177009D01*
X134528000Y-72334991D01*
X134568889Y-72487591D01*
X134647881Y-72624408D01*
X134759592Y-72736119D01*
X134896409Y-72815111D01*
X135049009Y-72856000D01*
X135206991Y-72856000D01*
X135359591Y-72815111D01*
X135496408Y-72736119D01*
X135608119Y-72624408D01*
X135687111Y-72487591D01*
X135728000Y-72334991D01*
X135728000Y-72177009D01*
X135695846Y-72057009D01*
X155102000Y-72057009D01*
X155102000Y-72214991D01*
X155142889Y-72367591D01*
X155221881Y-72504408D01*
X155333592Y-72616119D01*
X155470409Y-72695111D01*
X155623009Y-72736000D01*
X155780991Y-72736000D01*
X155933591Y-72695111D01*
X156070408Y-72616119D01*
X156182119Y-72504408D01*
X156261111Y-72367591D01*
X156302000Y-72214991D01*
X156302000Y-72057009D01*
X156261111Y-71904409D01*
X156182119Y-71767592D01*
X156070408Y-71655881D01*
X156035973Y-71636000D01*
X156202000Y-71636000D01*
X157402000Y-71636000D01*
X157402000Y-70888172D01*
X157401999Y-70888155D01*
X157395598Y-70828627D01*
X157395596Y-70828620D01*
X157345354Y-70693913D01*
X157345350Y-70693906D01*
X157259190Y-70578812D01*
X157259187Y-70578809D01*
X157144093Y-70492649D01*
X157144086Y-70492645D01*
X157009379Y-70442403D01*
X157009372Y-70442401D01*
X156949844Y-70436000D01*
X156202000Y-70436000D01*
X156202000Y-71636000D01*
X156035973Y-71636000D01*
X155933591Y-71576889D01*
X155780991Y-71536000D01*
X155623009Y-71536000D01*
X155470409Y-71576889D01*
X155333592Y-71655881D01*
X155221881Y-71767592D01*
X155142889Y-71904409D01*
X155102000Y-72057009D01*
X135695846Y-72057009D01*
X135687111Y-72024409D01*
X135608119Y-71887592D01*
X135496408Y-71775881D01*
X135461973Y-71756000D01*
X135628000Y-71756000D01*
X136828000Y-71756000D01*
X136828000Y-71008172D01*
X136827999Y-71008155D01*
X136821598Y-70948627D01*
X136821597Y-70948623D01*
X136813974Y-70928183D01*
X136813973Y-70928180D01*
X136799045Y-70888155D01*
X154002000Y-70888155D01*
X154002000Y-71636000D01*
X155202000Y-71636000D01*
X155202000Y-70436000D01*
X154454155Y-70436000D01*
X154394627Y-70442401D01*
X154394620Y-70442403D01*
X154259913Y-70492645D01*
X154259906Y-70492649D01*
X154144812Y-70578809D01*
X154144809Y-70578812D01*
X154058649Y-70693906D01*
X154058645Y-70693913D01*
X154008403Y-70828620D01*
X154008401Y-70828627D01*
X154002000Y-70888155D01*
X136799045Y-70888155D01*
X136771354Y-70813913D01*
X136771350Y-70813906D01*
X136685190Y-70698812D01*
X136685187Y-70698809D01*
X136570093Y-70612649D01*
X136570086Y-70612645D01*
X136435379Y-70562403D01*
X136435372Y-70562401D01*
X136375844Y-70556000D01*
X135628000Y-70556000D01*
X135628000Y-71756000D01*
X135461973Y-71756000D01*
X135359591Y-71696889D01*
X135206991Y-71656000D01*
X135049009Y-71656000D01*
X134896409Y-71696889D01*
X134759592Y-71775881D01*
X134647881Y-71887592D01*
X134568889Y-72024409D01*
X134528000Y-72177009D01*
X114900000Y-72177009D01*
X114859111Y-72024409D01*
X114780119Y-71887592D01*
X114668408Y-71775881D01*
X114633973Y-71756000D01*
X114800000Y-71756000D01*
X116000000Y-71756000D01*
X116000000Y-71008172D01*
X115999999Y-71008155D01*
X133428000Y-71008155D01*
X133428000Y-71756000D01*
X134628000Y-71756000D01*
X134628000Y-70556000D01*
X133880155Y-70556000D01*
X133820627Y-70562401D01*
X133820620Y-70562403D01*
X133685913Y-70612645D01*
X133685906Y-70612649D01*
X133570812Y-70698809D01*
X133570809Y-70698812D01*
X133484649Y-70813906D01*
X133484645Y-70813913D01*
X133434403Y-70948620D01*
X133434401Y-70948627D01*
X133428000Y-71008155D01*
X115999999Y-71008155D01*
X115993598Y-70948627D01*
X115993596Y-70948620D01*
X115943354Y-70813913D01*
X115943350Y-70813906D01*
X115857190Y-70698812D01*
X115857187Y-70698809D01*
X115742093Y-70612649D01*
X115742086Y-70612645D01*
X115607379Y-70562403D01*
X115607372Y-70562401D01*
X115547844Y-70556000D01*
X114800000Y-70556000D01*
X114800000Y-71756000D01*
X114633973Y-71756000D01*
X114531591Y-71696889D01*
X114378991Y-71656000D01*
X114221009Y-71656000D01*
X114068409Y-71696889D01*
X113931592Y-71775881D01*
X113819881Y-71887592D01*
X113740889Y-72024409D01*
X113700000Y-72177009D01*
X108712000Y-72177009D01*
X108712000Y-71008155D01*
X112600000Y-71008155D01*
X112600000Y-71756000D01*
X113800000Y-71756000D01*
X113800000Y-70556000D01*
X113052155Y-70556000D01*
X112992627Y-70562401D01*
X112992620Y-70562403D01*
X112857913Y-70612645D01*
X112857906Y-70612649D01*
X112742812Y-70698809D01*
X112742809Y-70698812D01*
X112656649Y-70813906D01*
X112656645Y-70813913D01*
X112606403Y-70948620D01*
X112606401Y-70948627D01*
X112600000Y-71008155D01*
X108712000Y-71008155D01*
X108712000Y-60181985D01*
X112600000Y-60181985D01*
X112610493Y-60284689D01*
X112610494Y-60284696D01*
X112665641Y-60451118D01*
X112665643Y-60451123D01*
X112757684Y-60600344D01*
X112881655Y-60724315D01*
X113030876Y-60816356D01*
X113030881Y-60816358D01*
X113197303Y-60871505D01*
X113197310Y-60871506D01*
X113300014Y-60881999D01*
X113300027Y-60882000D01*
X113800000Y-60882000D01*
X114800000Y-60882000D01*
X115299973Y-60882000D01*
X115299985Y-60881999D01*
X115402689Y-60871506D01*
X115402696Y-60871505D01*
X115569118Y-60816358D01*
X115569123Y-60816356D01*
X115718344Y-60724315D01*
X115842315Y-60600344D01*
X115934356Y-60451123D01*
X115934358Y-60451118D01*
X115939373Y-60435985D01*
X133428000Y-60435985D01*
X133438493Y-60538689D01*
X133438494Y-60538696D01*
X133493641Y-60705118D01*
X133493643Y-60705123D01*
X133585684Y-60854344D01*
X133709655Y-60978315D01*
X133858876Y-61070356D01*
X133858881Y-61070358D01*
X134025303Y-61125505D01*
X134025310Y-61125506D01*
X134128014Y-61135999D01*
X134128027Y-61136000D01*
X134628000Y-61136000D01*
X135628000Y-61136000D01*
X136127973Y-61136000D01*
X136127985Y-61135999D01*
X136230689Y-61125506D01*
X136230696Y-61125505D01*
X136397118Y-61070358D01*
X136397123Y-61070356D01*
X136546344Y-60978315D01*
X136659146Y-60865513D01*
X154755500Y-60865513D01*
X154755500Y-61054486D01*
X154785059Y-61241118D01*
X154843454Y-61420836D01*
X154929240Y-61589199D01*
X155040310Y-61742073D01*
X155173927Y-61875690D01*
X155326801Y-61986760D01*
X155406347Y-62027290D01*
X155495163Y-62072545D01*
X155495165Y-62072545D01*
X155495168Y-62072547D01*
X155591497Y-62103846D01*
X155674881Y-62130940D01*
X155861514Y-62160500D01*
X155861519Y-62160500D01*
X156050486Y-62160500D01*
X156237118Y-62130940D01*
X156416832Y-62072547D01*
X156585199Y-61986760D01*
X156738073Y-61875690D01*
X156871690Y-61742073D01*
X156982760Y-61589199D01*
X157068547Y-61420832D01*
X157126940Y-61241118D01*
X157145251Y-61125506D01*
X157156500Y-61054486D01*
X157156500Y-60865513D01*
X157126940Y-60678881D01*
X157091757Y-60570600D01*
X157068547Y-60499168D01*
X157068545Y-60499165D01*
X157068545Y-60499163D01*
X156982759Y-60330800D01*
X156956814Y-60295090D01*
X156871690Y-60177927D01*
X156738073Y-60044310D01*
X156585199Y-59933240D01*
X156551597Y-59916119D01*
X156416836Y-59847454D01*
X156237118Y-59789059D01*
X156050486Y-59759500D01*
X156050481Y-59759500D01*
X155861519Y-59759500D01*
X155861514Y-59759500D01*
X155674881Y-59789059D01*
X155495163Y-59847454D01*
X155326800Y-59933240D01*
X155289487Y-59960350D01*
X155173927Y-60044310D01*
X155173925Y-60044312D01*
X155173924Y-60044312D01*
X155040312Y-60177924D01*
X155040312Y-60177925D01*
X155040310Y-60177927D01*
X155037362Y-60181985D01*
X154929240Y-60330800D01*
X154843454Y-60499163D01*
X154785059Y-60678881D01*
X154755500Y-60865513D01*
X136659146Y-60865513D01*
X136670315Y-60854344D01*
X136762356Y-60705123D01*
X136762358Y-60705118D01*
X136817505Y-60538696D01*
X136817506Y-60538689D01*
X136827999Y-60435985D01*
X136828000Y-60435972D01*
X136828000Y-59936000D01*
X135628000Y-59936000D01*
X135628000Y-61136000D01*
X134628000Y-61136000D01*
X134628000Y-59936000D01*
X133428000Y-59936000D01*
X133428000Y-60435985D01*
X115939373Y-60435985D01*
X115989505Y-60284696D01*
X115989506Y-60284689D01*
X115999999Y-60181985D01*
X116000000Y-60181972D01*
X116000000Y-59682000D01*
X114800000Y-59682000D01*
X114800000Y-60882000D01*
X113800000Y-60882000D01*
X113800000Y-59682000D01*
X112600000Y-59682000D01*
X112600000Y-60181985D01*
X108712000Y-60181985D01*
X108712000Y-59899480D01*
X108712195Y-59892528D01*
X108714726Y-59847454D01*
X108730473Y-59567046D01*
X108732027Y-59553253D01*
X108786049Y-59235299D01*
X108789143Y-59221747D01*
X108823351Y-59103009D01*
X113700000Y-59103009D01*
X113700000Y-59260991D01*
X113740889Y-59413591D01*
X113819881Y-59550408D01*
X113931592Y-59662119D01*
X114068409Y-59741111D01*
X114221009Y-59782000D01*
X114378991Y-59782000D01*
X114531591Y-59741111D01*
X114668408Y-59662119D01*
X114780119Y-59550408D01*
X114859111Y-59413591D01*
X114874272Y-59357009D01*
X134528000Y-59357009D01*
X134528000Y-59514991D01*
X134568889Y-59667591D01*
X134647881Y-59804408D01*
X134759592Y-59916119D01*
X134896409Y-59995111D01*
X135049009Y-60036000D01*
X135206991Y-60036000D01*
X135359591Y-59995111D01*
X135496408Y-59916119D01*
X135608119Y-59804408D01*
X135687111Y-59667591D01*
X135728000Y-59514991D01*
X135728000Y-59357009D01*
X135687111Y-59204409D01*
X135608119Y-59067592D01*
X135496408Y-58955881D01*
X135461973Y-58936000D01*
X135628000Y-58936000D01*
X136828000Y-58936000D01*
X136828000Y-58436027D01*
X136827999Y-58436014D01*
X136817506Y-58333310D01*
X136817505Y-58333303D01*
X136762358Y-58166881D01*
X136762356Y-58166876D01*
X136670315Y-58017655D01*
X136546344Y-57893684D01*
X136397123Y-57801643D01*
X136397118Y-57801641D01*
X136230696Y-57746494D01*
X136230689Y-57746493D01*
X136127985Y-57736000D01*
X135628000Y-57736000D01*
X135628000Y-58936000D01*
X135461973Y-58936000D01*
X135359591Y-58876889D01*
X135206991Y-58836000D01*
X135049009Y-58836000D01*
X134896409Y-58876889D01*
X134759592Y-58955881D01*
X134647881Y-59067592D01*
X134568889Y-59204409D01*
X134528000Y-59357009D01*
X114874272Y-59357009D01*
X114900000Y-59260991D01*
X114900000Y-59103009D01*
X114859111Y-58950409D01*
X114780119Y-58813592D01*
X114668408Y-58701881D01*
X114633973Y-58682000D01*
X114800000Y-58682000D01*
X116000000Y-58682000D01*
X116000000Y-58436014D01*
X133428000Y-58436014D01*
X133428000Y-58936000D01*
X134628000Y-58936000D01*
X134628000Y-57736000D01*
X134128014Y-57736000D01*
X134025310Y-57746493D01*
X134025303Y-57746494D01*
X133858881Y-57801641D01*
X133858876Y-57801643D01*
X133709655Y-57893684D01*
X133585684Y-58017655D01*
X133493643Y-58166876D01*
X133493641Y-58166881D01*
X133438494Y-58333303D01*
X133438493Y-58333310D01*
X133428000Y-58436014D01*
X116000000Y-58436014D01*
X116000000Y-58182027D01*
X115999999Y-58182014D01*
X115989506Y-58079310D01*
X115989505Y-58079303D01*
X115934358Y-57912881D01*
X115934356Y-57912876D01*
X115842315Y-57763655D01*
X115718344Y-57639684D01*
X115569123Y-57547643D01*
X115569118Y-57547641D01*
X115402696Y-57492494D01*
X115402689Y-57492493D01*
X115299985Y-57482000D01*
X114800000Y-57482000D01*
X114800000Y-58682000D01*
X114633973Y-58682000D01*
X114531591Y-58622889D01*
X114378991Y-58582000D01*
X114221009Y-58582000D01*
X114068409Y-58622889D01*
X113931592Y-58701881D01*
X113819881Y-58813592D01*
X113740889Y-58950409D01*
X113700000Y-59103009D01*
X108823351Y-59103009D01*
X108878423Y-58911851D01*
X108883016Y-58898727D01*
X108972787Y-58682000D01*
X109006430Y-58600775D01*
X109012452Y-58588269D01*
X109168467Y-58305983D01*
X109175845Y-58294240D01*
X109255474Y-58182014D01*
X112600000Y-58182014D01*
X112600000Y-58682000D01*
X113800000Y-58682000D01*
X113800000Y-57482000D01*
X113300014Y-57482000D01*
X113197310Y-57492493D01*
X113197303Y-57492494D01*
X113030881Y-57547641D01*
X113030876Y-57547643D01*
X112881655Y-57639684D01*
X112757684Y-57763655D01*
X112665643Y-57912876D01*
X112665641Y-57912881D01*
X112610494Y-58079303D01*
X112610493Y-58079310D01*
X112600000Y-58182014D01*
X109255474Y-58182014D01*
X109362488Y-58031192D01*
X109371128Y-58020358D01*
X109586049Y-57779861D01*
X109595861Y-57770049D01*
X109836358Y-57555128D01*
X109847201Y-57546482D01*
X110110228Y-57359854D01*
X110121983Y-57352467D01*
X110404269Y-57196452D01*
X110416775Y-57190430D01*
X110714727Y-57067016D01*
X110727847Y-57062424D01*
X111037753Y-56973141D01*
X111051299Y-56970049D01*
X111369253Y-56916027D01*
X111383048Y-56914473D01*
X111671283Y-56898286D01*
X111708529Y-56896195D01*
X111715481Y-56896000D01*
X147574000Y-56896000D01*
X149747339Y-56896000D01*
X149721500Y-57059139D01*
G37*
%TD.AperFunction*%
%TD*%
%TA.AperFunction,Conductor*%
%TO.N,/UNREG+*%
G36*
X182352295Y-45467939D02*
G01*
X182425600Y-45498302D01*
X182445212Y-45506426D01*
X182445215Y-45506427D01*
X182457737Y-45512456D01*
X182740006Y-45668461D01*
X182751779Y-45675859D01*
X183014789Y-45862475D01*
X183025649Y-45871135D01*
X183266127Y-46086039D01*
X183275960Y-46095872D01*
X183490859Y-46336344D01*
X183499528Y-46347216D01*
X183686139Y-46610219D01*
X183693538Y-46621993D01*
X183849539Y-46904255D01*
X183855572Y-46916784D01*
X183978983Y-47214727D01*
X183983576Y-47227851D01*
X184072856Y-47537747D01*
X184075950Y-47551304D01*
X184129970Y-47869240D01*
X184131527Y-47883058D01*
X184149805Y-48208527D01*
X184150000Y-48215480D01*
X184150000Y-59226519D01*
X184149805Y-59233472D01*
X184131527Y-59558941D01*
X184129970Y-59572759D01*
X184075950Y-59890695D01*
X184072856Y-59904252D01*
X183983576Y-60214148D01*
X183978983Y-60227272D01*
X183855572Y-60525215D01*
X183849539Y-60537744D01*
X183693538Y-60820006D01*
X183686139Y-60831780D01*
X183499528Y-61094783D01*
X183490859Y-61105655D01*
X183275960Y-61346127D01*
X183266127Y-61355960D01*
X183025655Y-61570859D01*
X183014783Y-61579528D01*
X182751780Y-61766139D01*
X182740006Y-61773538D01*
X182457744Y-61929539D01*
X182445215Y-61935572D01*
X182147272Y-62058983D01*
X182134148Y-62063576D01*
X181824252Y-62152856D01*
X181810695Y-62155950D01*
X181492759Y-62209970D01*
X181478941Y-62211527D01*
X181153472Y-62229805D01*
X181146519Y-62230000D01*
X164646894Y-62230000D01*
X164338000Y-61921106D01*
X164029106Y-62230000D01*
X159766000Y-62230000D01*
X159766000Y-61119552D01*
X163138000Y-61119552D01*
X163138000Y-61308447D01*
X163167547Y-61495002D01*
X163212264Y-61632627D01*
X163212265Y-61632627D01*
X163630894Y-61214000D01*
X163584816Y-61167922D01*
X163988000Y-61167922D01*
X163988000Y-61260078D01*
X164011852Y-61349095D01*
X164057930Y-61428905D01*
X164123095Y-61494070D01*
X164202905Y-61540148D01*
X164291922Y-61564000D01*
X164384078Y-61564000D01*
X164473095Y-61540148D01*
X164552905Y-61494070D01*
X164618070Y-61428905D01*
X164664148Y-61349095D01*
X164688000Y-61260078D01*
X164688000Y-61213999D01*
X165045106Y-61213999D01*
X165045106Y-61214000D01*
X165463734Y-61632628D01*
X165508452Y-61494998D01*
X165508452Y-61494997D01*
X165538000Y-61308447D01*
X165538000Y-61119552D01*
X165508451Y-60932997D01*
X165508451Y-60932994D01*
X165463734Y-60795371D01*
X165463733Y-60795370D01*
X165045106Y-61213999D01*
X164688000Y-61213999D01*
X164688000Y-61167922D01*
X164664148Y-61078905D01*
X164618070Y-60999095D01*
X164552905Y-60933930D01*
X164473095Y-60887852D01*
X164384078Y-60864000D01*
X164291922Y-60864000D01*
X164202905Y-60887852D01*
X164123095Y-60933930D01*
X164057930Y-60999095D01*
X164011852Y-61078905D01*
X163988000Y-61167922D01*
X163584816Y-61167922D01*
X163212265Y-60795371D01*
X163167548Y-60932997D01*
X163138000Y-61119552D01*
X159766000Y-61119552D01*
X159766000Y-60088265D01*
X163919371Y-60088265D01*
X164338000Y-60506894D01*
X164338001Y-60506894D01*
X164756627Y-60088265D01*
X164756627Y-60088264D01*
X164619002Y-60043547D01*
X164432447Y-60014000D01*
X164243553Y-60014000D01*
X164056997Y-60043548D01*
X163919371Y-60088265D01*
X159766000Y-60088265D01*
X159766000Y-56896000D01*
X152004661Y-56896000D01*
X152002072Y-56879654D01*
X152002071Y-56879650D01*
X152002071Y-56879649D01*
X151945918Y-56706828D01*
X151945916Y-56706825D01*
X151900588Y-56617862D01*
X151863417Y-56544910D01*
X151756603Y-56397894D01*
X151628106Y-56269397D01*
X151481090Y-56162583D01*
X151319174Y-56080083D01*
X151319171Y-56080081D01*
X151146349Y-56023928D01*
X151050008Y-56008669D01*
X151010884Y-56002472D01*
X150947750Y-55972544D01*
X150910819Y-55913232D01*
X150911817Y-55843370D01*
X150950427Y-55785137D01*
X151010884Y-55757527D01*
X151146346Y-55736072D01*
X151146349Y-55736071D01*
X151146350Y-55736071D01*
X151319171Y-55679918D01*
X151319171Y-55679917D01*
X151319174Y-55679917D01*
X151354073Y-55662135D01*
X168313500Y-55662135D01*
X168313500Y-60257870D01*
X168313501Y-60257876D01*
X168319908Y-60317483D01*
X168370202Y-60452328D01*
X168370206Y-60452335D01*
X168456452Y-60567544D01*
X168456455Y-60567547D01*
X168571664Y-60653793D01*
X168571671Y-60653797D01*
X168706517Y-60704091D01*
X168706516Y-60704091D01*
X168713444Y-60704835D01*
X168766127Y-60710500D01*
X171361872Y-60710499D01*
X171421483Y-60704091D01*
X171556331Y-60653796D01*
X171671546Y-60567546D01*
X171757796Y-60452331D01*
X171808091Y-60317483D01*
X171814500Y-60257873D01*
X171814499Y-56845258D01*
X173763500Y-56845258D01*
X173763500Y-59074741D01*
X173786157Y-59246825D01*
X173793452Y-59302238D01*
X173793453Y-59302240D01*
X173852842Y-59523887D01*
X173940650Y-59735876D01*
X173940657Y-59735890D01*
X174055392Y-59934617D01*
X174195081Y-60116661D01*
X174195089Y-60116670D01*
X174357330Y-60278911D01*
X174357338Y-60278918D01*
X174357339Y-60278919D01*
X174407595Y-60317482D01*
X174539382Y-60418607D01*
X174539385Y-60418608D01*
X174539388Y-60418611D01*
X174738112Y-60533344D01*
X174738117Y-60533346D01*
X174738123Y-60533349D01*
X174820678Y-60567544D01*
X174950113Y-60621158D01*
X175171762Y-60680548D01*
X175388312Y-60709057D01*
X175399250Y-60710498D01*
X175399266Y-60710500D01*
X175399273Y-60710500D01*
X175628727Y-60710500D01*
X175628734Y-60710500D01*
X175856238Y-60680548D01*
X176077887Y-60621158D01*
X176289888Y-60533344D01*
X176488612Y-60418611D01*
X176670661Y-60278919D01*
X176670665Y-60278914D01*
X176670670Y-60278911D01*
X176832911Y-60116670D01*
X176832914Y-60116665D01*
X176832919Y-60116661D01*
X176972611Y-59934612D01*
X177087344Y-59735888D01*
X177175158Y-59523887D01*
X177234548Y-59302238D01*
X177264500Y-59074734D01*
X177264500Y-56845305D01*
X179214000Y-56845305D01*
X179214000Y-57460000D01*
X180403340Y-57460000D01*
X180381437Y-57481903D01*
X180299359Y-57604742D01*
X180242822Y-57741233D01*
X180214000Y-57886131D01*
X180214000Y-58033869D01*
X180242822Y-58178767D01*
X180299359Y-58315258D01*
X180381437Y-58438097D01*
X180403340Y-58460000D01*
X179214000Y-58460000D01*
X179214000Y-59074694D01*
X179214001Y-59074710D01*
X179243942Y-59302137D01*
X179303318Y-59523730D01*
X179391102Y-59735659D01*
X179391106Y-59735668D01*
X179505809Y-59934338D01*
X179645455Y-60116329D01*
X179645461Y-60116336D01*
X179807663Y-60278538D01*
X179807670Y-60278544D01*
X179989661Y-60418190D01*
X180188331Y-60532893D01*
X180188340Y-60532897D01*
X180400264Y-60620679D01*
X180400274Y-60620682D01*
X180464000Y-60637757D01*
X180464000Y-58520660D01*
X180485903Y-58542563D01*
X180608742Y-58624641D01*
X180745233Y-58681178D01*
X180890131Y-58710000D01*
X181037869Y-58710000D01*
X181182767Y-58681178D01*
X181319258Y-58624641D01*
X181442097Y-58542563D01*
X181464000Y-58520660D01*
X181464000Y-60637756D01*
X181527725Y-60620682D01*
X181527735Y-60620679D01*
X181739659Y-60532897D01*
X181739668Y-60532893D01*
X181938338Y-60418190D01*
X182120329Y-60278544D01*
X182120336Y-60278538D01*
X182282538Y-60116336D01*
X182282544Y-60116329D01*
X182422190Y-59934338D01*
X182536893Y-59735668D01*
X182536897Y-59735659D01*
X182624681Y-59523730D01*
X182684057Y-59302137D01*
X182713998Y-59074710D01*
X182714000Y-59074694D01*
X182714000Y-58460000D01*
X181524660Y-58460000D01*
X181546563Y-58438097D01*
X181628641Y-58315258D01*
X181685178Y-58178767D01*
X181714000Y-58033869D01*
X181714000Y-57886131D01*
X181685178Y-57741233D01*
X181628641Y-57604742D01*
X181546563Y-57481903D01*
X181524660Y-57460000D01*
X182714000Y-57460000D01*
X182714000Y-56845305D01*
X182713998Y-56845289D01*
X182684057Y-56617862D01*
X182624681Y-56396269D01*
X182536897Y-56184340D01*
X182536893Y-56184331D01*
X182422190Y-55985661D01*
X182282544Y-55803670D01*
X182282538Y-55803663D01*
X182120336Y-55641461D01*
X182120329Y-55641455D01*
X181938338Y-55501809D01*
X181739668Y-55387106D01*
X181739654Y-55387099D01*
X181527727Y-55299317D01*
X181527720Y-55299315D01*
X181464000Y-55282240D01*
X181464000Y-57399340D01*
X181442097Y-57377437D01*
X181319258Y-57295359D01*
X181182767Y-57238822D01*
X181037869Y-57210000D01*
X180890131Y-57210000D01*
X180745233Y-57238822D01*
X180608742Y-57295359D01*
X180485903Y-57377437D01*
X180464000Y-57399340D01*
X180464000Y-55282241D01*
X180463999Y-55282240D01*
X180400279Y-55299315D01*
X180400272Y-55299317D01*
X180188345Y-55387099D01*
X180188331Y-55387106D01*
X179989661Y-55501809D01*
X179807670Y-55641455D01*
X179807663Y-55641461D01*
X179645461Y-55803663D01*
X179645455Y-55803670D01*
X179505809Y-55985661D01*
X179391106Y-56184331D01*
X179391102Y-56184340D01*
X179303318Y-56396269D01*
X179243942Y-56617862D01*
X179214001Y-56845289D01*
X179214000Y-56845305D01*
X177264500Y-56845305D01*
X177264500Y-56845266D01*
X177234548Y-56617762D01*
X177175158Y-56396113D01*
X177122670Y-56269397D01*
X177087349Y-56184123D01*
X177087346Y-56184117D01*
X177087344Y-56184112D01*
X176972611Y-55985388D01*
X176972608Y-55985385D01*
X176972607Y-55985382D01*
X176833173Y-55803670D01*
X176832919Y-55803339D01*
X176832918Y-55803338D01*
X176832911Y-55803330D01*
X176670670Y-55641089D01*
X176670661Y-55641081D01*
X176488617Y-55501392D01*
X176430210Y-55467671D01*
X176404620Y-55452896D01*
X176289890Y-55386657D01*
X176289876Y-55386650D01*
X176077887Y-55298842D01*
X175856238Y-55239452D01*
X175818215Y-55234446D01*
X175628741Y-55209500D01*
X175628734Y-55209500D01*
X175399266Y-55209500D01*
X175399258Y-55209500D01*
X175182715Y-55238009D01*
X175171762Y-55239452D01*
X175078076Y-55264554D01*
X174950112Y-55298842D01*
X174738123Y-55386650D01*
X174738109Y-55386657D01*
X174539382Y-55501392D01*
X174357338Y-55641081D01*
X174195081Y-55803338D01*
X174055392Y-55985382D01*
X173940657Y-56184109D01*
X173940650Y-56184123D01*
X173852842Y-56396112D01*
X173793453Y-56617759D01*
X173793451Y-56617770D01*
X173763500Y-56845258D01*
X171814499Y-56845258D01*
X171814499Y-55662128D01*
X171808091Y-55602517D01*
X171806188Y-55597416D01*
X171757797Y-55467671D01*
X171757793Y-55467664D01*
X171671547Y-55352455D01*
X171671544Y-55352452D01*
X171556335Y-55266206D01*
X171556328Y-55266202D01*
X171421482Y-55215908D01*
X171421483Y-55215908D01*
X171361883Y-55209501D01*
X171361881Y-55209500D01*
X171361873Y-55209500D01*
X171361864Y-55209500D01*
X168766129Y-55209500D01*
X168766123Y-55209501D01*
X168706516Y-55215908D01*
X168571671Y-55266202D01*
X168571664Y-55266206D01*
X168456455Y-55352452D01*
X168456452Y-55352455D01*
X168370206Y-55467664D01*
X168370202Y-55467671D01*
X168319908Y-55602517D01*
X168313501Y-55662116D01*
X168313501Y-55662123D01*
X168313500Y-55662135D01*
X151354073Y-55662135D01*
X151481090Y-55597417D01*
X151628106Y-55490603D01*
X151756603Y-55362106D01*
X151863417Y-55215090D01*
X151945917Y-55053174D01*
X152002072Y-54880346D01*
X152030500Y-54700861D01*
X152030500Y-54519139D01*
X152002072Y-54339654D01*
X152002071Y-54339650D01*
X152002071Y-54339649D01*
X151945918Y-54166828D01*
X151945916Y-54166825D01*
X151923115Y-54122074D01*
X151863417Y-54004910D01*
X151756603Y-53857894D01*
X151628106Y-53729397D01*
X151481090Y-53622583D01*
X151319174Y-53540083D01*
X151319171Y-53540081D01*
X151146348Y-53483928D01*
X151026689Y-53464976D01*
X150966861Y-53455500D01*
X150785139Y-53455500D01*
X150725310Y-53464976D01*
X150605652Y-53483928D01*
X150605649Y-53483928D01*
X150432828Y-53540081D01*
X150432825Y-53540083D01*
X150270909Y-53622583D01*
X150187030Y-53683525D01*
X150123894Y-53729397D01*
X150123892Y-53729399D01*
X150123891Y-53729399D01*
X149995399Y-53857891D01*
X149995399Y-53857892D01*
X149995397Y-53857894D01*
X149982883Y-53875118D01*
X149888583Y-54004909D01*
X149806083Y-54166825D01*
X149806081Y-54166828D01*
X149749928Y-54339649D01*
X149749928Y-54339652D01*
X149721500Y-54519139D01*
X149721500Y-54700860D01*
X149749928Y-54880347D01*
X149749928Y-54880350D01*
X149806081Y-55053171D01*
X149806083Y-55053174D01*
X149888583Y-55215090D01*
X149995397Y-55362106D01*
X150123894Y-55490603D01*
X150270910Y-55597417D01*
X150432826Y-55679917D01*
X150432828Y-55679918D01*
X150594029Y-55732294D01*
X150605654Y-55736072D01*
X150741114Y-55757527D01*
X150804249Y-55787456D01*
X150841180Y-55846768D01*
X150840182Y-55916630D01*
X150801572Y-55974863D01*
X150741114Y-56002473D01*
X150605652Y-56023928D01*
X150605649Y-56023928D01*
X150432828Y-56080081D01*
X150432825Y-56080083D01*
X150270909Y-56162583D01*
X150240964Y-56184340D01*
X150123894Y-56269397D01*
X150123892Y-56269399D01*
X150123891Y-56269399D01*
X149995399Y-56397891D01*
X149995399Y-56397892D01*
X149995397Y-56397894D01*
X149949525Y-56461030D01*
X149888583Y-56544909D01*
X149806083Y-56706825D01*
X149806081Y-56706828D01*
X149749928Y-56879649D01*
X149749928Y-56879652D01*
X149747339Y-56896000D01*
X147574000Y-56896000D01*
X147574000Y-53245513D01*
X154755500Y-53245513D01*
X154755500Y-53434486D01*
X154785059Y-53621118D01*
X154843454Y-53800836D01*
X154872526Y-53857892D01*
X154929240Y-53969199D01*
X155040310Y-54122073D01*
X155173927Y-54255690D01*
X155326801Y-54366760D01*
X155406347Y-54407290D01*
X155495163Y-54452545D01*
X155495165Y-54452545D01*
X155495168Y-54452547D01*
X155591497Y-54483846D01*
X155674881Y-54510940D01*
X155861514Y-54540500D01*
X155861519Y-54540500D01*
X156050486Y-54540500D01*
X156237118Y-54510940D01*
X156240974Y-54509687D01*
X156416832Y-54452547D01*
X156585199Y-54366760D01*
X156738073Y-54255690D01*
X156871690Y-54122073D01*
X156982760Y-53969199D01*
X157068547Y-53800832D01*
X157126940Y-53621118D01*
X157139775Y-53540081D01*
X157146201Y-53499513D01*
X163137500Y-53499513D01*
X163137500Y-53688486D01*
X163167059Y-53875118D01*
X163225454Y-54054836D01*
X163311240Y-54223199D01*
X163422310Y-54376073D01*
X163555927Y-54509690D01*
X163708801Y-54620760D01*
X163788347Y-54661290D01*
X163877163Y-54706545D01*
X163877165Y-54706545D01*
X163877168Y-54706547D01*
X163973497Y-54737846D01*
X164056881Y-54764940D01*
X164243514Y-54794500D01*
X164243519Y-54794500D01*
X164432486Y-54794500D01*
X164619118Y-54764940D01*
X164798832Y-54706547D01*
X164967199Y-54620760D01*
X165120073Y-54509690D01*
X165253690Y-54376073D01*
X165364760Y-54223199D01*
X165450547Y-54054832D01*
X165508940Y-53875118D01*
X165511668Y-53857892D01*
X165538500Y-53688486D01*
X165538500Y-53499513D01*
X165508940Y-53312881D01*
X165450545Y-53133163D01*
X165364759Y-52964800D01*
X165253690Y-52811927D01*
X165120073Y-52678310D01*
X164967199Y-52567240D01*
X164948915Y-52557924D01*
X164798836Y-52481454D01*
X164619118Y-52423059D01*
X164432486Y-52393500D01*
X164432481Y-52393500D01*
X164243519Y-52393500D01*
X164243514Y-52393500D01*
X164056881Y-52423059D01*
X163877163Y-52481454D01*
X163708800Y-52567240D01*
X163621579Y-52630610D01*
X163555927Y-52678310D01*
X163555925Y-52678312D01*
X163555924Y-52678312D01*
X163422312Y-52811924D01*
X163422312Y-52811925D01*
X163422310Y-52811927D01*
X163374610Y-52877579D01*
X163311240Y-52964800D01*
X163225454Y-53133163D01*
X163167059Y-53312881D01*
X163137500Y-53499513D01*
X157146201Y-53499513D01*
X157150044Y-53475249D01*
X157150044Y-53475248D01*
X157156500Y-53434487D01*
X157156500Y-53245513D01*
X157126940Y-53058881D01*
X157068545Y-52879163D01*
X156982759Y-52710800D01*
X156959155Y-52678312D01*
X156871690Y-52557927D01*
X156738073Y-52424310D01*
X156585199Y-52313240D01*
X156416836Y-52227454D01*
X156237118Y-52169059D01*
X156050486Y-52139500D01*
X156050481Y-52139500D01*
X155861519Y-52139500D01*
X155861514Y-52139500D01*
X155674881Y-52169059D01*
X155495163Y-52227454D01*
X155326800Y-52313240D01*
X155239579Y-52376610D01*
X155173927Y-52424310D01*
X155173925Y-52424312D01*
X155173924Y-52424312D01*
X155040312Y-52557924D01*
X155040312Y-52557925D01*
X155040310Y-52557927D01*
X155033544Y-52567240D01*
X154929240Y-52710800D01*
X154843454Y-52879163D01*
X154785059Y-53058881D01*
X154755500Y-53245513D01*
X147574000Y-53245513D01*
X147574000Y-48670135D01*
X156281000Y-48670135D01*
X156281000Y-50765870D01*
X156281001Y-50765876D01*
X156287408Y-50825483D01*
X156337702Y-50960328D01*
X156337706Y-50960335D01*
X156423952Y-51075544D01*
X156423955Y-51075547D01*
X156539164Y-51161793D01*
X156539171Y-51161797D01*
X156674017Y-51212091D01*
X156674016Y-51212091D01*
X156680944Y-51212835D01*
X156733627Y-51218500D01*
X158734372Y-51218499D01*
X158793983Y-51212091D01*
X158928831Y-51161796D01*
X159044046Y-51075546D01*
X159130296Y-50960331D01*
X159140690Y-50932460D01*
X159182560Y-50876527D01*
X159248023Y-50852108D01*
X159316297Y-50866958D01*
X159329746Y-50875465D01*
X159512462Y-51008217D01*
X159644599Y-51075544D01*
X159716244Y-51112049D01*
X159933751Y-51182721D01*
X159933752Y-51182721D01*
X159933755Y-51182722D01*
X160159646Y-51218500D01*
X160159647Y-51218500D01*
X160388353Y-51218500D01*
X160388354Y-51218500D01*
X160614245Y-51182722D01*
X160614248Y-51182721D01*
X160614249Y-51182721D01*
X160831755Y-51112049D01*
X160831755Y-51112048D01*
X160831758Y-51112048D01*
X161035538Y-51008217D01*
X161220566Y-50873786D01*
X161382286Y-50712066D01*
X161443683Y-50627559D01*
X161499012Y-50584896D01*
X161568625Y-50578917D01*
X161630420Y-50611523D01*
X161644314Y-50627556D01*
X161705714Y-50712066D01*
X161867434Y-50873786D01*
X162052462Y-51008217D01*
X162184599Y-51075544D01*
X162256244Y-51112049D01*
X162473751Y-51182721D01*
X162473752Y-51182721D01*
X162473755Y-51182722D01*
X162699646Y-51218500D01*
X162699647Y-51218500D01*
X162928353Y-51218500D01*
X162928354Y-51218500D01*
X163154245Y-51182722D01*
X163154248Y-51182721D01*
X163154249Y-51182721D01*
X163371755Y-51112049D01*
X163371755Y-51112048D01*
X163371758Y-51112048D01*
X163575538Y-51008217D01*
X163760566Y-50873786D01*
X163922286Y-50712066D01*
X164056717Y-50527038D01*
X164160548Y-50323258D01*
X164231222Y-50105745D01*
X164267000Y-49879854D01*
X164267000Y-49556146D01*
X164231222Y-49330255D01*
X164231221Y-49330251D01*
X164231221Y-49330250D01*
X164160549Y-49112744D01*
X164160548Y-49112742D01*
X164056717Y-48908962D01*
X163922286Y-48723934D01*
X163760566Y-48562214D01*
X163575538Y-48427783D01*
X163371755Y-48323950D01*
X163154248Y-48253278D01*
X162968812Y-48223908D01*
X162928354Y-48217500D01*
X162699646Y-48217500D01*
X162659188Y-48223908D01*
X162473753Y-48253278D01*
X162473750Y-48253278D01*
X162256244Y-48323950D01*
X162052461Y-48427783D01*
X161986550Y-48475671D01*
X161867434Y-48562214D01*
X161867432Y-48562216D01*
X161867431Y-48562216D01*
X161705715Y-48723932D01*
X161644318Y-48808438D01*
X161588987Y-48851103D01*
X161519374Y-48857082D01*
X161457579Y-48824476D01*
X161443682Y-48808438D01*
X161432773Y-48793423D01*
X161382286Y-48723934D01*
X161220566Y-48562214D01*
X161035538Y-48427783D01*
X160831755Y-48323950D01*
X160614248Y-48253278D01*
X160428812Y-48223908D01*
X160388354Y-48217500D01*
X160159646Y-48217500D01*
X160119188Y-48223908D01*
X159933753Y-48253278D01*
X159933750Y-48253278D01*
X159716244Y-48323950D01*
X159512461Y-48427783D01*
X159329759Y-48560525D01*
X159263952Y-48584005D01*
X159195898Y-48568180D01*
X159147203Y-48518074D01*
X159140690Y-48503538D01*
X159130296Y-48475669D01*
X159130293Y-48475664D01*
X159044047Y-48360455D01*
X159044044Y-48360452D01*
X158928835Y-48274206D01*
X158928828Y-48274202D01*
X158793982Y-48223908D01*
X158793983Y-48223908D01*
X158734383Y-48217501D01*
X158734381Y-48217500D01*
X158734373Y-48217500D01*
X158734364Y-48217500D01*
X156733629Y-48217500D01*
X156733623Y-48217501D01*
X156674016Y-48223908D01*
X156539171Y-48274202D01*
X156539164Y-48274206D01*
X156423955Y-48360452D01*
X156423952Y-48360455D01*
X156337706Y-48475664D01*
X156337702Y-48475671D01*
X156287408Y-48610517D01*
X156281001Y-48670116D01*
X156281000Y-48670135D01*
X147574000Y-48670135D01*
X147574000Y-48215480D01*
X147574195Y-48208528D01*
X147574800Y-48197753D01*
X147592473Y-47883048D01*
X147594027Y-47869253D01*
X147648049Y-47551299D01*
X147651143Y-47537747D01*
X147740423Y-47227851D01*
X147745016Y-47214727D01*
X147768728Y-47157479D01*
X147868430Y-46916775D01*
X147874452Y-46904269D01*
X148030467Y-46621983D01*
X148037854Y-46610228D01*
X148224482Y-46347201D01*
X148233128Y-46336358D01*
X148448049Y-46095861D01*
X148457861Y-46086049D01*
X148698358Y-45871128D01*
X148709201Y-45862482D01*
X148972228Y-45675854D01*
X148983983Y-45668467D01*
X149266269Y-45512452D01*
X149278761Y-45506437D01*
X149371707Y-45467937D01*
X149419157Y-45458500D01*
X182304843Y-45458500D01*
X182352295Y-45467939D01*
G37*
%TD.AperFunction*%
%TD*%
%TA.AperFunction,Conductor*%
%TO.N,GND*%
G36*
X142982295Y-45467939D02*
G01*
X143055600Y-45498302D01*
X143075212Y-45506426D01*
X143075215Y-45506427D01*
X143087737Y-45512456D01*
X143370006Y-45668461D01*
X143381779Y-45675859D01*
X143644789Y-45862475D01*
X143655649Y-45871135D01*
X143896127Y-46086039D01*
X143905960Y-46095872D01*
X144120859Y-46336344D01*
X144129528Y-46347216D01*
X144316139Y-46610219D01*
X144323538Y-46621993D01*
X144479539Y-46904255D01*
X144485572Y-46916784D01*
X144608983Y-47214727D01*
X144613576Y-47227851D01*
X144702856Y-47537747D01*
X144705950Y-47551304D01*
X144759970Y-47869240D01*
X144761527Y-47883058D01*
X144779805Y-48208527D01*
X144780000Y-48215480D01*
X144780000Y-52114519D01*
X144779805Y-52121472D01*
X144761527Y-52446941D01*
X144759970Y-52460759D01*
X144705950Y-52778695D01*
X144702856Y-52792252D01*
X144613576Y-53102148D01*
X144608983Y-53115272D01*
X144485572Y-53413215D01*
X144479539Y-53425744D01*
X144323538Y-53708006D01*
X144316139Y-53719780D01*
X144129528Y-53982783D01*
X144120859Y-53993655D01*
X143905960Y-54234127D01*
X143896127Y-54243960D01*
X143655655Y-54458859D01*
X143644783Y-54467528D01*
X143381780Y-54654139D01*
X143370006Y-54661538D01*
X143087744Y-54817539D01*
X143075215Y-54823572D01*
X142777272Y-54946983D01*
X142764148Y-54951576D01*
X142454252Y-55040856D01*
X142440695Y-55043950D01*
X142122759Y-55097970D01*
X142108941Y-55099527D01*
X141783472Y-55117805D01*
X141776519Y-55118000D01*
X64274932Y-55118000D01*
X64274903Y-55110141D01*
X64274903Y-55110130D01*
X64274861Y-55098396D01*
X64264881Y-55080195D01*
X64262000Y-55053623D01*
X64262000Y-53439304D01*
X134331800Y-53439304D01*
X134331800Y-53439305D01*
X134374487Y-53463950D01*
X134374488Y-53463951D01*
X134580381Y-53549236D01*
X134795632Y-53606911D01*
X134795645Y-53606914D01*
X135016575Y-53636000D01*
X135239425Y-53636000D01*
X135460354Y-53606914D01*
X135460367Y-53606911D01*
X135675618Y-53549236D01*
X135881500Y-53463956D01*
X135881516Y-53463948D01*
X135924198Y-53439305D01*
X135924198Y-53439304D01*
X135128001Y-52643106D01*
X135128000Y-52643106D01*
X134331800Y-53439304D01*
X64262000Y-53439304D01*
X64262000Y-53185304D01*
X113503800Y-53185304D01*
X113503800Y-53185305D01*
X113546487Y-53209950D01*
X113546488Y-53209951D01*
X113752381Y-53295236D01*
X113967632Y-53352911D01*
X113967645Y-53352914D01*
X114188575Y-53382000D01*
X114411425Y-53382000D01*
X114632354Y-53352914D01*
X114632367Y-53352911D01*
X114847618Y-53295236D01*
X114883673Y-53280302D01*
X115053500Y-53209956D01*
X115053516Y-53209948D01*
X115096198Y-53185305D01*
X115096198Y-53185304D01*
X114300001Y-52389106D01*
X114300000Y-52389106D01*
X113503800Y-53185304D01*
X64262000Y-53185304D01*
X64262000Y-51570575D01*
X112600000Y-51570575D01*
X112600000Y-51793424D01*
X112629085Y-52014354D01*
X112629088Y-52014367D01*
X112686763Y-52229618D01*
X112772041Y-52435497D01*
X112772044Y-52435502D01*
X112796694Y-52478197D01*
X113592893Y-51682000D01*
X113513902Y-51603009D01*
X113700000Y-51603009D01*
X113700000Y-51760991D01*
X113740889Y-51913591D01*
X113819881Y-52050408D01*
X113931592Y-52162119D01*
X114068409Y-52241111D01*
X114221009Y-52282000D01*
X114378991Y-52282000D01*
X114531591Y-52241111D01*
X114668408Y-52162119D01*
X114780119Y-52050408D01*
X114859111Y-51913591D01*
X114900000Y-51760991D01*
X114900000Y-51681999D01*
X115007106Y-51681999D01*
X115007106Y-51682000D01*
X115803304Y-52478198D01*
X115803305Y-52478198D01*
X115827948Y-52435516D01*
X115827956Y-52435500D01*
X115913236Y-52229618D01*
X115970911Y-52014367D01*
X115970914Y-52014354D01*
X115995899Y-51824575D01*
X133428000Y-51824575D01*
X133428000Y-52047424D01*
X133457085Y-52268354D01*
X133457088Y-52268367D01*
X133514763Y-52483618D01*
X133600041Y-52689497D01*
X133600044Y-52689502D01*
X133624694Y-52732197D01*
X134420893Y-51936000D01*
X134341902Y-51857009D01*
X134528000Y-51857009D01*
X134528000Y-52014991D01*
X134568889Y-52167591D01*
X134647881Y-52304408D01*
X134759592Y-52416119D01*
X134896409Y-52495111D01*
X135049009Y-52536000D01*
X135206991Y-52536000D01*
X135359591Y-52495111D01*
X135496408Y-52416119D01*
X135608119Y-52304408D01*
X135687111Y-52167591D01*
X135728000Y-52014991D01*
X135728000Y-51935999D01*
X135835106Y-51935999D01*
X135835106Y-51936000D01*
X136631304Y-52732198D01*
X136631305Y-52732198D01*
X136655948Y-52689516D01*
X136655956Y-52689500D01*
X136741236Y-52483618D01*
X136798911Y-52268367D01*
X136798914Y-52268354D01*
X136828000Y-52047424D01*
X136828000Y-51824575D01*
X136798914Y-51603645D01*
X136798911Y-51603632D01*
X136741236Y-51388381D01*
X136655951Y-51182488D01*
X136655950Y-51182487D01*
X136631304Y-51139800D01*
X135835106Y-51935999D01*
X135728000Y-51935999D01*
X135728000Y-51857009D01*
X135687111Y-51704409D01*
X135608119Y-51567592D01*
X135496408Y-51455881D01*
X135359591Y-51376889D01*
X135206991Y-51336000D01*
X135049009Y-51336000D01*
X134896409Y-51376889D01*
X134759592Y-51455881D01*
X134647881Y-51567592D01*
X134568889Y-51704409D01*
X134528000Y-51857009D01*
X134341902Y-51857009D01*
X133624694Y-51139801D01*
X133600043Y-51182499D01*
X133600040Y-51182505D01*
X133514763Y-51388381D01*
X133457088Y-51603632D01*
X133457085Y-51603645D01*
X133428000Y-51824575D01*
X115995899Y-51824575D01*
X115998564Y-51804332D01*
X115998564Y-51804331D01*
X116000000Y-51793423D01*
X116000000Y-51570575D01*
X115970914Y-51349645D01*
X115970911Y-51349632D01*
X115913236Y-51134381D01*
X115827951Y-50928488D01*
X115827950Y-50928487D01*
X115803304Y-50885800D01*
X115007106Y-51681999D01*
X114900000Y-51681999D01*
X114900000Y-51603009D01*
X114859111Y-51450409D01*
X114780119Y-51313592D01*
X114668408Y-51201881D01*
X114531591Y-51122889D01*
X114378991Y-51082000D01*
X114221009Y-51082000D01*
X114068409Y-51122889D01*
X113931592Y-51201881D01*
X113819881Y-51313592D01*
X113740889Y-51450409D01*
X113700000Y-51603009D01*
X113513902Y-51603009D01*
X112796694Y-50885801D01*
X112772043Y-50928499D01*
X112772040Y-50928505D01*
X112686763Y-51134381D01*
X112629088Y-51349632D01*
X112629085Y-51349645D01*
X112600000Y-51570575D01*
X64262000Y-51570575D01*
X64262000Y-49852187D01*
X64281685Y-49785148D01*
X64334489Y-49739393D01*
X64403647Y-49729449D01*
X64467203Y-49758474D01*
X64493387Y-49790188D01*
X64498064Y-49798290D01*
X64645733Y-49990736D01*
X64645739Y-49990743D01*
X64817256Y-50162260D01*
X64817263Y-50162266D01*
X64930321Y-50249018D01*
X65009711Y-50309936D01*
X65219788Y-50431224D01*
X65443900Y-50524054D01*
X65678211Y-50586838D01*
X65858586Y-50610584D01*
X65918711Y-50618500D01*
X65918712Y-50618500D01*
X66161289Y-50618500D01*
X66209388Y-50612167D01*
X66401789Y-50586838D01*
X66636100Y-50524054D01*
X66860212Y-50431224D01*
X67070289Y-50309936D01*
X67241327Y-50178694D01*
X113503801Y-50178694D01*
X114300000Y-50974893D01*
X114300001Y-50974893D01*
X114842199Y-50432694D01*
X134331801Y-50432694D01*
X135128000Y-51228893D01*
X135128001Y-51228893D01*
X135924198Y-50432694D01*
X135881502Y-50408044D01*
X135881497Y-50408041D01*
X135675618Y-50322763D01*
X135460367Y-50265088D01*
X135460354Y-50265085D01*
X135239425Y-50236000D01*
X135016575Y-50236000D01*
X134795645Y-50265085D01*
X134795632Y-50265088D01*
X134580381Y-50322763D01*
X134374505Y-50408040D01*
X134374499Y-50408043D01*
X134331801Y-50432694D01*
X114842199Y-50432694D01*
X114885439Y-50389454D01*
X115096198Y-50178694D01*
X115053502Y-50154044D01*
X115053497Y-50154041D01*
X114847618Y-50068763D01*
X114632367Y-50011088D01*
X114632354Y-50011085D01*
X114411425Y-49982000D01*
X114188575Y-49982000D01*
X113967645Y-50011085D01*
X113967632Y-50011088D01*
X113752381Y-50068763D01*
X113546505Y-50154040D01*
X113546499Y-50154043D01*
X113503801Y-50178694D01*
X67241327Y-50178694D01*
X67262738Y-50162265D01*
X67270963Y-50154040D01*
X67289550Y-50135454D01*
X67434260Y-49990743D01*
X67434265Y-49990738D01*
X67581936Y-49798289D01*
X67703224Y-49588212D01*
X67796054Y-49364100D01*
X67858838Y-49129789D01*
X67890500Y-48889288D01*
X67890500Y-48646712D01*
X67858838Y-48406211D01*
X67796054Y-48171900D01*
X67703224Y-47947788D01*
X67581936Y-47737711D01*
X67434265Y-47545262D01*
X67434260Y-47545256D01*
X67262743Y-47373739D01*
X67262736Y-47373733D01*
X67070293Y-47226067D01*
X67070292Y-47226066D01*
X67070289Y-47226064D01*
X66860212Y-47104776D01*
X66860205Y-47104773D01*
X66636104Y-47011947D01*
X66401785Y-46949161D01*
X66161289Y-46917500D01*
X66161288Y-46917500D01*
X65918712Y-46917500D01*
X65918711Y-46917500D01*
X65678214Y-46949161D01*
X65443895Y-47011947D01*
X65219794Y-47104773D01*
X65219785Y-47104777D01*
X65009706Y-47226067D01*
X64817263Y-47373733D01*
X64817256Y-47373739D01*
X64645739Y-47545256D01*
X64553668Y-47665246D01*
X64549282Y-47668448D01*
X64546902Y-47673327D01*
X64521367Y-47688830D01*
X64497240Y-47706448D01*
X64491820Y-47706770D01*
X64487179Y-47709589D01*
X64457312Y-47708826D01*
X64427494Y-47710603D01*
X64422760Y-47707944D01*
X64417333Y-47707806D01*
X64392624Y-47691020D01*
X64366573Y-47676391D01*
X64364027Y-47671594D01*
X64359537Y-47668544D01*
X64347824Y-47641060D01*
X64333821Y-47614673D01*
X64333706Y-47607934D01*
X64332144Y-47604268D01*
X64333043Y-47568992D01*
X64336051Y-47551291D01*
X64339143Y-47537747D01*
X64428423Y-47227851D01*
X64433016Y-47214727D01*
X64456728Y-47157479D01*
X64556430Y-46916775D01*
X64562452Y-46904269D01*
X64718467Y-46621983D01*
X64725854Y-46610228D01*
X64912482Y-46347201D01*
X64921128Y-46336358D01*
X65136049Y-46095861D01*
X65145861Y-46086049D01*
X65386358Y-45871128D01*
X65397201Y-45862482D01*
X65660228Y-45675854D01*
X65671983Y-45668467D01*
X65954269Y-45512452D01*
X65966761Y-45506437D01*
X66059707Y-45467937D01*
X66107157Y-45458500D01*
X142934843Y-45458500D01*
X142982295Y-45467939D01*
G37*
%TD.AperFunction*%
%TD*%
%TA.AperFunction,Conductor*%
%TO.N,GND*%
G36*
X187757471Y-79502195D02*
G01*
X187798136Y-79504478D01*
X188082949Y-79520473D01*
X188096748Y-79522027D01*
X188414695Y-79576049D01*
X188428252Y-79579143D01*
X188738148Y-79668423D01*
X188751272Y-79673016D01*
X189049215Y-79796427D01*
X189061737Y-79802456D01*
X189344006Y-79958461D01*
X189355779Y-79965859D01*
X189618789Y-80152475D01*
X189629649Y-80161135D01*
X189870127Y-80376039D01*
X189879960Y-80385872D01*
X190094859Y-80626344D01*
X190103528Y-80637216D01*
X190290139Y-80900219D01*
X190297538Y-80911993D01*
X190453539Y-81194255D01*
X190459572Y-81206784D01*
X190582983Y-81504727D01*
X190587576Y-81517851D01*
X190676856Y-81827747D01*
X190679950Y-81841304D01*
X190733970Y-82159240D01*
X190735527Y-82173058D01*
X190753805Y-82498527D01*
X190754000Y-82505480D01*
X190754000Y-90214519D01*
X190753805Y-90221472D01*
X190735527Y-90546941D01*
X190733970Y-90560759D01*
X190679950Y-90878695D01*
X190676856Y-90892252D01*
X190587576Y-91202148D01*
X190582983Y-91215272D01*
X190459572Y-91513215D01*
X190453539Y-91525744D01*
X190297538Y-91808006D01*
X190290139Y-91819780D01*
X190103528Y-92082783D01*
X190094859Y-92093655D01*
X189879960Y-92334127D01*
X189870127Y-92343960D01*
X189629655Y-92558859D01*
X189618783Y-92567528D01*
X189355780Y-92754139D01*
X189344006Y-92761538D01*
X189061744Y-92917539D01*
X189049215Y-92923572D01*
X188751272Y-93046983D01*
X188738148Y-93051576D01*
X188428252Y-93140856D01*
X188414695Y-93143950D01*
X188096759Y-93197970D01*
X188082941Y-93199527D01*
X187757472Y-93217805D01*
X187750519Y-93218000D01*
X157734000Y-93218000D01*
X157734000Y-90622919D01*
X168756185Y-90622919D01*
X168756185Y-90622920D01*
X168885517Y-90697590D01*
X168885528Y-90697595D01*
X169127744Y-90797924D01*
X169380979Y-90865777D01*
X169380990Y-90865779D01*
X169640905Y-90899999D01*
X169640920Y-90900000D01*
X169903080Y-90900000D01*
X169903094Y-90899999D01*
X170163009Y-90865779D01*
X170163020Y-90865777D01*
X170416255Y-90797924D01*
X170658471Y-90697595D01*
X170658482Y-90697590D01*
X170787813Y-90622920D01*
X170787813Y-90622919D01*
X175260185Y-90622919D01*
X175260185Y-90622920D01*
X175389517Y-90697590D01*
X175389528Y-90697595D01*
X175631744Y-90797924D01*
X175884979Y-90865777D01*
X175884990Y-90865779D01*
X176144905Y-90899999D01*
X176144920Y-90900000D01*
X176407080Y-90900000D01*
X176407094Y-90899999D01*
X176667009Y-90865779D01*
X176667020Y-90865777D01*
X176920255Y-90797924D01*
X177162471Y-90697595D01*
X177162482Y-90697590D01*
X177291813Y-90622920D01*
X177291813Y-90622919D01*
X176876738Y-90207844D01*
X183163000Y-90207844D01*
X183169401Y-90267372D01*
X183169403Y-90267379D01*
X183219645Y-90402086D01*
X183219649Y-90402093D01*
X183305809Y-90517187D01*
X183305812Y-90517190D01*
X183420906Y-90603350D01*
X183420913Y-90603354D01*
X183555620Y-90653596D01*
X183555627Y-90653598D01*
X183615155Y-90659999D01*
X183615172Y-90660000D01*
X184463000Y-90660000D01*
X185463000Y-90660000D01*
X186310828Y-90660000D01*
X186310844Y-90659999D01*
X186370372Y-90653598D01*
X186370379Y-90653596D01*
X186505086Y-90603354D01*
X186505093Y-90603350D01*
X186620187Y-90517190D01*
X186620190Y-90517187D01*
X186706350Y-90402093D01*
X186706354Y-90402086D01*
X186756596Y-90267379D01*
X186756598Y-90267372D01*
X186762999Y-90207844D01*
X186763000Y-90207827D01*
X186763000Y-89360000D01*
X185463000Y-89360000D01*
X185463000Y-90660000D01*
X184463000Y-90660000D01*
X184463000Y-89360000D01*
X183163000Y-89360000D01*
X183163000Y-90207844D01*
X176876738Y-90207844D01*
X176276001Y-89607106D01*
X176276000Y-89607106D01*
X175260185Y-90622919D01*
X170787813Y-90622919D01*
X169772001Y-89607106D01*
X169772000Y-89607106D01*
X168756185Y-90622919D01*
X157734000Y-90622919D01*
X157734000Y-88768905D01*
X167772000Y-88768905D01*
X167772000Y-89031094D01*
X167806220Y-89291009D01*
X167806222Y-89291020D01*
X167874075Y-89544255D01*
X167974403Y-89786468D01*
X167974407Y-89786477D01*
X168049079Y-89915812D01*
X168049080Y-89915813D01*
X169064893Y-88900000D01*
X169064893Y-88899999D01*
X169000875Y-88835981D01*
X169122000Y-88835981D01*
X169122000Y-88964019D01*
X169146979Y-89089598D01*
X169195978Y-89207890D01*
X169267112Y-89314351D01*
X169357649Y-89404888D01*
X169464110Y-89476022D01*
X169582402Y-89525021D01*
X169707981Y-89550000D01*
X169836019Y-89550000D01*
X169961598Y-89525021D01*
X170079890Y-89476022D01*
X170186351Y-89404888D01*
X170276888Y-89314351D01*
X170348022Y-89207890D01*
X170397021Y-89089598D01*
X170422000Y-88964019D01*
X170422000Y-88899999D01*
X170479106Y-88899999D01*
X170479106Y-88900000D01*
X171494919Y-89915813D01*
X171494920Y-89915813D01*
X171569590Y-89786482D01*
X171569595Y-89786471D01*
X171669924Y-89544255D01*
X171737777Y-89291020D01*
X171737779Y-89291009D01*
X171771999Y-89031094D01*
X171772000Y-89031080D01*
X171772000Y-88768919D01*
X171771999Y-88768905D01*
X174276000Y-88768905D01*
X174276000Y-89031094D01*
X174310220Y-89291009D01*
X174310222Y-89291020D01*
X174378075Y-89544255D01*
X174478403Y-89786468D01*
X174478407Y-89786477D01*
X174553079Y-89915812D01*
X174553080Y-89915813D01*
X175568893Y-88900000D01*
X175504874Y-88835981D01*
X175626000Y-88835981D01*
X175626000Y-88964019D01*
X175650979Y-89089598D01*
X175699978Y-89207890D01*
X175771112Y-89314351D01*
X175861649Y-89404888D01*
X175968110Y-89476022D01*
X176086402Y-89525021D01*
X176211981Y-89550000D01*
X176340019Y-89550000D01*
X176465598Y-89525021D01*
X176583890Y-89476022D01*
X176690351Y-89404888D01*
X176780888Y-89314351D01*
X176852022Y-89207890D01*
X176901021Y-89089598D01*
X176926000Y-88964019D01*
X176926000Y-88899999D01*
X176983106Y-88899999D01*
X176983106Y-88900000D01*
X177998919Y-89915813D01*
X177998920Y-89915813D01*
X178073590Y-89786482D01*
X178073595Y-89786471D01*
X178173924Y-89544255D01*
X178241777Y-89291020D01*
X178241779Y-89291009D01*
X178275999Y-89031094D01*
X178276000Y-89031080D01*
X178276000Y-88795981D01*
X184313000Y-88795981D01*
X184313000Y-88924019D01*
X184337979Y-89049598D01*
X184386978Y-89167890D01*
X184458112Y-89274351D01*
X184548649Y-89364888D01*
X184655110Y-89436022D01*
X184773402Y-89485021D01*
X184898981Y-89510000D01*
X185027019Y-89510000D01*
X185152598Y-89485021D01*
X185270890Y-89436022D01*
X185377351Y-89364888D01*
X185467888Y-89274351D01*
X185539022Y-89167890D01*
X185588021Y-89049598D01*
X185613000Y-88924019D01*
X185613000Y-88795981D01*
X185588021Y-88670402D01*
X185539022Y-88552110D01*
X185467888Y-88445649D01*
X185382239Y-88360000D01*
X185463000Y-88360000D01*
X186763000Y-88360000D01*
X186763000Y-87512172D01*
X186762999Y-87512155D01*
X186756598Y-87452627D01*
X186756596Y-87452620D01*
X186706354Y-87317913D01*
X186706350Y-87317906D01*
X186620190Y-87202812D01*
X186620187Y-87202809D01*
X186505093Y-87116649D01*
X186505086Y-87116645D01*
X186370379Y-87066403D01*
X186370372Y-87066401D01*
X186310844Y-87060000D01*
X185463000Y-87060000D01*
X185463000Y-88360000D01*
X185382239Y-88360000D01*
X185377351Y-88355112D01*
X185270890Y-88283978D01*
X185152598Y-88234979D01*
X185027019Y-88210000D01*
X184898981Y-88210000D01*
X184773402Y-88234979D01*
X184655110Y-88283978D01*
X184548649Y-88355112D01*
X184458112Y-88445649D01*
X184386978Y-88552110D01*
X184337979Y-88670402D01*
X184313000Y-88795981D01*
X178276000Y-88795981D01*
X178276000Y-88768919D01*
X178275999Y-88768905D01*
X178241779Y-88508990D01*
X178241777Y-88508979D01*
X178173924Y-88255744D01*
X178073595Y-88013528D01*
X178073590Y-88013517D01*
X177998919Y-87884185D01*
X176983106Y-88899999D01*
X176926000Y-88899999D01*
X176926000Y-88835981D01*
X176901021Y-88710402D01*
X176852022Y-88592110D01*
X176780888Y-88485649D01*
X176690351Y-88395112D01*
X176583890Y-88323978D01*
X176465598Y-88274979D01*
X176340019Y-88250000D01*
X176211981Y-88250000D01*
X176086402Y-88274979D01*
X175968110Y-88323978D01*
X175861649Y-88395112D01*
X175771112Y-88485649D01*
X175699978Y-88592110D01*
X175650979Y-88710402D01*
X175626000Y-88835981D01*
X175504874Y-88835981D01*
X174553079Y-87884186D01*
X174478405Y-88013526D01*
X174478403Y-88013531D01*
X174378075Y-88255744D01*
X174310222Y-88508979D01*
X174310220Y-88508990D01*
X174276000Y-88768905D01*
X171771999Y-88768905D01*
X171737779Y-88508990D01*
X171737777Y-88508979D01*
X171669924Y-88255744D01*
X171569595Y-88013528D01*
X171569590Y-88013517D01*
X171494919Y-87884185D01*
X170479106Y-88899999D01*
X170422000Y-88899999D01*
X170422000Y-88835981D01*
X170397021Y-88710402D01*
X170348022Y-88592110D01*
X170276888Y-88485649D01*
X170186351Y-88395112D01*
X170079890Y-88323978D01*
X169961598Y-88274979D01*
X169836019Y-88250000D01*
X169707981Y-88250000D01*
X169582402Y-88274979D01*
X169464110Y-88323978D01*
X169357649Y-88395112D01*
X169267112Y-88485649D01*
X169195978Y-88592110D01*
X169146979Y-88710402D01*
X169122000Y-88835981D01*
X169000875Y-88835981D01*
X168049079Y-87884186D01*
X167974405Y-88013526D01*
X167974403Y-88013531D01*
X167874075Y-88255744D01*
X167806222Y-88508979D01*
X167806220Y-88508990D01*
X167772000Y-88768905D01*
X157734000Y-88768905D01*
X157734000Y-87177079D01*
X168756186Y-87177079D01*
X169772000Y-88192893D01*
X169772001Y-88192893D01*
X170787813Y-87177079D01*
X175260186Y-87177079D01*
X176276000Y-88192893D01*
X176276001Y-88192893D01*
X176956738Y-87512155D01*
X183163000Y-87512155D01*
X183163000Y-88360000D01*
X184463000Y-88360000D01*
X184463000Y-87060000D01*
X183615155Y-87060000D01*
X183555627Y-87066401D01*
X183555620Y-87066403D01*
X183420913Y-87116645D01*
X183420906Y-87116649D01*
X183305812Y-87202809D01*
X183305809Y-87202812D01*
X183219649Y-87317906D01*
X183219645Y-87317913D01*
X183169403Y-87452620D01*
X183169401Y-87452627D01*
X183163000Y-87512155D01*
X176956738Y-87512155D01*
X177047723Y-87421170D01*
X177291813Y-87177080D01*
X177291812Y-87177079D01*
X177162477Y-87102407D01*
X177162468Y-87102403D01*
X176920255Y-87002075D01*
X176667020Y-86934222D01*
X176667009Y-86934220D01*
X176407094Y-86900000D01*
X176144905Y-86900000D01*
X175884990Y-86934220D01*
X175884979Y-86934222D01*
X175631744Y-87002075D01*
X175389531Y-87102403D01*
X175389526Y-87102405D01*
X175260186Y-87177079D01*
X170787813Y-87177079D01*
X170658477Y-87102407D01*
X170658468Y-87102403D01*
X170416255Y-87002075D01*
X170163020Y-86934222D01*
X170163009Y-86934220D01*
X169903094Y-86900000D01*
X169640905Y-86900000D01*
X169380990Y-86934220D01*
X169380979Y-86934222D01*
X169127744Y-87002075D01*
X168885531Y-87102403D01*
X168885526Y-87102405D01*
X168756186Y-87177079D01*
X157734000Y-87177079D01*
X157734000Y-85542919D01*
X168756185Y-85542919D01*
X168756185Y-85542920D01*
X168885517Y-85617590D01*
X168885528Y-85617595D01*
X169127744Y-85717924D01*
X169380979Y-85785777D01*
X169380990Y-85785779D01*
X169640905Y-85819999D01*
X169640920Y-85820000D01*
X169903080Y-85820000D01*
X169903094Y-85819999D01*
X170163009Y-85785779D01*
X170163020Y-85785777D01*
X170416255Y-85717924D01*
X170658471Y-85617595D01*
X170658482Y-85617590D01*
X170787813Y-85542920D01*
X170787813Y-85542919D01*
X175260185Y-85542919D01*
X175260185Y-85542920D01*
X175389517Y-85617590D01*
X175389528Y-85617595D01*
X175631744Y-85717924D01*
X175884979Y-85785777D01*
X175884990Y-85785779D01*
X176144905Y-85819999D01*
X176144920Y-85820000D01*
X176407080Y-85820000D01*
X176407094Y-85819999D01*
X176667009Y-85785779D01*
X176667020Y-85785777D01*
X176920255Y-85717924D01*
X177162471Y-85617595D01*
X177162482Y-85617590D01*
X177291813Y-85542920D01*
X177291813Y-85542919D01*
X177228643Y-85479749D01*
X177185403Y-85436509D01*
X184093594Y-85436509D01*
X184165168Y-85477833D01*
X184165183Y-85477840D01*
X184383163Y-85568129D01*
X184383161Y-85568129D01*
X184611085Y-85629200D01*
X184845014Y-85659999D01*
X184845029Y-85660000D01*
X185080971Y-85660000D01*
X185080985Y-85659999D01*
X185314914Y-85629200D01*
X185542837Y-85568129D01*
X185760819Y-85477839D01*
X185760828Y-85477834D01*
X185832404Y-85436509D01*
X184963000Y-84567106D01*
X184093594Y-85436509D01*
X177185403Y-85436509D01*
X176276001Y-84527106D01*
X176276000Y-84527106D01*
X175260185Y-85542919D01*
X170787813Y-85542919D01*
X169772001Y-84527106D01*
X169772000Y-84527106D01*
X168756185Y-85542919D01*
X157734000Y-85542919D01*
X157734000Y-83688905D01*
X167772000Y-83688905D01*
X167772000Y-83951094D01*
X167806220Y-84211009D01*
X167806222Y-84211020D01*
X167874075Y-84464255D01*
X167974403Y-84706468D01*
X167974407Y-84706477D01*
X168049079Y-84835812D01*
X168049080Y-84835813D01*
X169064893Y-83820000D01*
X169064893Y-83819999D01*
X169000875Y-83755981D01*
X169122000Y-83755981D01*
X169122000Y-83884019D01*
X169146979Y-84009598D01*
X169195978Y-84127890D01*
X169267112Y-84234351D01*
X169357649Y-84324888D01*
X169464110Y-84396022D01*
X169582402Y-84445021D01*
X169707981Y-84470000D01*
X169836019Y-84470000D01*
X169961598Y-84445021D01*
X170079890Y-84396022D01*
X170186351Y-84324888D01*
X170276888Y-84234351D01*
X170348022Y-84127890D01*
X170397021Y-84009598D01*
X170422000Y-83884019D01*
X170422000Y-83819999D01*
X170479106Y-83819999D01*
X170479106Y-83820000D01*
X171494919Y-84835813D01*
X171494920Y-84835813D01*
X171569590Y-84706482D01*
X171569595Y-84706471D01*
X171669924Y-84464255D01*
X171737777Y-84211020D01*
X171737779Y-84211009D01*
X171771999Y-83951094D01*
X171772000Y-83951080D01*
X171772000Y-83688919D01*
X171771999Y-83688905D01*
X174276000Y-83688905D01*
X174276000Y-83951094D01*
X174310220Y-84211009D01*
X174310222Y-84211020D01*
X174378075Y-84464255D01*
X174478403Y-84706468D01*
X174478407Y-84706477D01*
X174553079Y-84835812D01*
X174553080Y-84835813D01*
X175568893Y-83820000D01*
X175504874Y-83755981D01*
X175626000Y-83755981D01*
X175626000Y-83884019D01*
X175650979Y-84009598D01*
X175699978Y-84127890D01*
X175771112Y-84234351D01*
X175861649Y-84324888D01*
X175968110Y-84396022D01*
X176086402Y-84445021D01*
X176211981Y-84470000D01*
X176340019Y-84470000D01*
X176465598Y-84445021D01*
X176583890Y-84396022D01*
X176690351Y-84324888D01*
X176780888Y-84234351D01*
X176852022Y-84127890D01*
X176901021Y-84009598D01*
X176926000Y-83884019D01*
X176926000Y-83819999D01*
X176983106Y-83819999D01*
X176983106Y-83820000D01*
X177998919Y-84835813D01*
X177998920Y-84835813D01*
X178073590Y-84706482D01*
X178073595Y-84706471D01*
X178173924Y-84464255D01*
X178241777Y-84211020D01*
X178241779Y-84211009D01*
X178275999Y-83951094D01*
X178276000Y-83951080D01*
X178276000Y-83742014D01*
X183163000Y-83742014D01*
X183163000Y-83977985D01*
X183193799Y-84211914D01*
X183254870Y-84439837D01*
X183345159Y-84657816D01*
X183345164Y-84657826D01*
X183386489Y-84729403D01*
X184255894Y-83860000D01*
X184255894Y-83859999D01*
X184191876Y-83795981D01*
X184313000Y-83795981D01*
X184313000Y-83924019D01*
X184337979Y-84049598D01*
X184386978Y-84167890D01*
X184458112Y-84274351D01*
X184548649Y-84364888D01*
X184655110Y-84436022D01*
X184773402Y-84485021D01*
X184898981Y-84510000D01*
X185027019Y-84510000D01*
X185152598Y-84485021D01*
X185270890Y-84436022D01*
X185377351Y-84364888D01*
X185467888Y-84274351D01*
X185539022Y-84167890D01*
X185588021Y-84049598D01*
X185613000Y-83924019D01*
X185613000Y-83859999D01*
X185670106Y-83859999D01*
X185670106Y-83860000D01*
X186539509Y-84729404D01*
X186580834Y-84657828D01*
X186580839Y-84657819D01*
X186671129Y-84439837D01*
X186732200Y-84211914D01*
X186762999Y-83977985D01*
X186763000Y-83977971D01*
X186763000Y-83742028D01*
X186762999Y-83742014D01*
X186732200Y-83508085D01*
X186671129Y-83280162D01*
X186580840Y-83062183D01*
X186580833Y-83062168D01*
X186539509Y-82990594D01*
X185670106Y-83859999D01*
X185613000Y-83859999D01*
X185613000Y-83795981D01*
X185588021Y-83670402D01*
X185539022Y-83552110D01*
X185467888Y-83445649D01*
X185377351Y-83355112D01*
X185270890Y-83283978D01*
X185152598Y-83234979D01*
X185027019Y-83210000D01*
X184898981Y-83210000D01*
X184773402Y-83234979D01*
X184655110Y-83283978D01*
X184548649Y-83355112D01*
X184458112Y-83445649D01*
X184386978Y-83552110D01*
X184337979Y-83670402D01*
X184313000Y-83795981D01*
X184191876Y-83795981D01*
X183386489Y-82990595D01*
X183345166Y-83062170D01*
X183345163Y-83062176D01*
X183254869Y-83280165D01*
X183193799Y-83508085D01*
X183163000Y-83742014D01*
X178276000Y-83742014D01*
X178276000Y-83688919D01*
X178275999Y-83688905D01*
X178241779Y-83428990D01*
X178241777Y-83428979D01*
X178173924Y-83175744D01*
X178073595Y-82933528D01*
X178073590Y-82933517D01*
X177998919Y-82804185D01*
X176983106Y-83819999D01*
X176926000Y-83819999D01*
X176926000Y-83755981D01*
X176901021Y-83630402D01*
X176852022Y-83512110D01*
X176780888Y-83405649D01*
X176690351Y-83315112D01*
X176583890Y-83243978D01*
X176465598Y-83194979D01*
X176340019Y-83170000D01*
X176211981Y-83170000D01*
X176086402Y-83194979D01*
X175968110Y-83243978D01*
X175861649Y-83315112D01*
X175771112Y-83405649D01*
X175699978Y-83512110D01*
X175650979Y-83630402D01*
X175626000Y-83755981D01*
X175504874Y-83755981D01*
X174553079Y-82804186D01*
X174478405Y-82933526D01*
X174478403Y-82933531D01*
X174378075Y-83175744D01*
X174310222Y-83428979D01*
X174310220Y-83428990D01*
X174276000Y-83688905D01*
X171771999Y-83688905D01*
X171737779Y-83428990D01*
X171737777Y-83428979D01*
X171669924Y-83175744D01*
X171569595Y-82933528D01*
X171569590Y-82933517D01*
X171494919Y-82804185D01*
X170479106Y-83819999D01*
X170422000Y-83819999D01*
X170422000Y-83755981D01*
X170397021Y-83630402D01*
X170348022Y-83512110D01*
X170276888Y-83405649D01*
X170186351Y-83315112D01*
X170079890Y-83243978D01*
X169961598Y-83194979D01*
X169836019Y-83170000D01*
X169707981Y-83170000D01*
X169582402Y-83194979D01*
X169464110Y-83243978D01*
X169357649Y-83315112D01*
X169267112Y-83405649D01*
X169195978Y-83512110D01*
X169146979Y-83630402D01*
X169122000Y-83755981D01*
X169000875Y-83755981D01*
X168049079Y-82804186D01*
X167974405Y-82933526D01*
X167974403Y-82933531D01*
X167874075Y-83175744D01*
X167806222Y-83428979D01*
X167806220Y-83428990D01*
X167772000Y-83688905D01*
X157734000Y-83688905D01*
X157734000Y-82097079D01*
X168756186Y-82097079D01*
X169772000Y-83112893D01*
X169772001Y-83112893D01*
X170787813Y-82097079D01*
X175260186Y-82097079D01*
X176276000Y-83112893D01*
X176276001Y-83112893D01*
X177105404Y-82283489D01*
X184093595Y-82283489D01*
X184963000Y-83152894D01*
X184963001Y-83152894D01*
X185832404Y-82283489D01*
X185760826Y-82242164D01*
X185760816Y-82242159D01*
X185542836Y-82151870D01*
X185542838Y-82151870D01*
X185314914Y-82090799D01*
X185080985Y-82060000D01*
X184845014Y-82060000D01*
X184611085Y-82090799D01*
X184383165Y-82151869D01*
X184165176Y-82242163D01*
X184165170Y-82242166D01*
X184093595Y-82283489D01*
X177105404Y-82283489D01*
X177148644Y-82240249D01*
X177291813Y-82097080D01*
X177291812Y-82097079D01*
X177162477Y-82022407D01*
X177162468Y-82022403D01*
X176920255Y-81922075D01*
X176667020Y-81854222D01*
X176667009Y-81854220D01*
X176407094Y-81820000D01*
X176144905Y-81820000D01*
X175884990Y-81854220D01*
X175884979Y-81854222D01*
X175631744Y-81922075D01*
X175389531Y-82022403D01*
X175389526Y-82022405D01*
X175260186Y-82097079D01*
X170787813Y-82097079D01*
X170658477Y-82022407D01*
X170658468Y-82022403D01*
X170416255Y-81922075D01*
X170163020Y-81854222D01*
X170163009Y-81854220D01*
X169903094Y-81820000D01*
X169640905Y-81820000D01*
X169380990Y-81854220D01*
X169380979Y-81854222D01*
X169127744Y-81922075D01*
X168885531Y-82022403D01*
X168885526Y-82022405D01*
X168756186Y-82097079D01*
X157734000Y-82097079D01*
X157734000Y-79502000D01*
X159766000Y-79502000D01*
X187750519Y-79502000D01*
X187757471Y-79502195D01*
G37*
%TD.AperFunction*%
%TD*%
%TA.AperFunction,Conductor*%
%TO.N,/UNREG-*%
G36*
X181661471Y-110998195D02*
G01*
X181702136Y-111000478D01*
X181986949Y-111016473D01*
X182000748Y-111018027D01*
X182318695Y-111072049D01*
X182332252Y-111075143D01*
X182642148Y-111164423D01*
X182655272Y-111169016D01*
X182953215Y-111292427D01*
X182965737Y-111298456D01*
X183142708Y-111396265D01*
X183248006Y-111454461D01*
X183259779Y-111461859D01*
X183522789Y-111648475D01*
X183533649Y-111657135D01*
X183774127Y-111872039D01*
X183783958Y-111881870D01*
X183981903Y-112103371D01*
X183998859Y-112122344D01*
X184007528Y-112133216D01*
X184194139Y-112396219D01*
X184201538Y-112407993D01*
X184357539Y-112690255D01*
X184363572Y-112702784D01*
X184486983Y-113000727D01*
X184491576Y-113013851D01*
X184580856Y-113323747D01*
X184583950Y-113337304D01*
X184637970Y-113655240D01*
X184639527Y-113669058D01*
X184657805Y-113994527D01*
X184658000Y-114001480D01*
X184658000Y-125012519D01*
X184657805Y-125019472D01*
X184639527Y-125344941D01*
X184637970Y-125358759D01*
X184583950Y-125676695D01*
X184580856Y-125690252D01*
X184491576Y-126000148D01*
X184486983Y-126013272D01*
X184363572Y-126311215D01*
X184357539Y-126323744D01*
X184201538Y-126606006D01*
X184194139Y-126617780D01*
X184007528Y-126880783D01*
X183998859Y-126891655D01*
X183783960Y-127132127D01*
X183774127Y-127141960D01*
X183533655Y-127356859D01*
X183522783Y-127365528D01*
X183259780Y-127552139D01*
X183248006Y-127559538D01*
X182965744Y-127715539D01*
X182953216Y-127721572D01*
X182860296Y-127760061D01*
X182812843Y-127769500D01*
X149927157Y-127769500D01*
X149879704Y-127760061D01*
X149786783Y-127721572D01*
X149774255Y-127715539D01*
X149491993Y-127559538D01*
X149480219Y-127552139D01*
X149217216Y-127365528D01*
X149206344Y-127356859D01*
X148965872Y-127141960D01*
X148956039Y-127132127D01*
X148741140Y-126891655D01*
X148732475Y-126880789D01*
X148545859Y-126617779D01*
X148538461Y-126606006D01*
X148382460Y-126323744D01*
X148376427Y-126311215D01*
X148253016Y-126013272D01*
X148248423Y-126000148D01*
X148159143Y-125690252D01*
X148156049Y-125676695D01*
X148102027Y-125358748D01*
X148100473Y-125344949D01*
X148082195Y-125019471D01*
X148082000Y-125012519D01*
X148082000Y-122586146D01*
X156281000Y-122586146D01*
X156281000Y-122909853D01*
X156316778Y-123135746D01*
X156316778Y-123135749D01*
X156387450Y-123353255D01*
X156387452Y-123353258D01*
X156491283Y-123557038D01*
X156625714Y-123742066D01*
X156787434Y-123903786D01*
X156972462Y-124038217D01*
X157104599Y-124105544D01*
X157176244Y-124142049D01*
X157393751Y-124212721D01*
X157393752Y-124212721D01*
X157393755Y-124212722D01*
X157619646Y-124248500D01*
X157619647Y-124248500D01*
X157848353Y-124248500D01*
X157848354Y-124248500D01*
X158074245Y-124212722D01*
X158074248Y-124212721D01*
X158074249Y-124212721D01*
X158291755Y-124142049D01*
X158291755Y-124142048D01*
X158291758Y-124142048D01*
X158495538Y-124038217D01*
X158680566Y-123903786D01*
X158842286Y-123742066D01*
X158903683Y-123657559D01*
X158959012Y-123614896D01*
X159028625Y-123608917D01*
X159090420Y-123641523D01*
X159104314Y-123657556D01*
X159165714Y-123742066D01*
X159327434Y-123903786D01*
X159512462Y-124038217D01*
X159644599Y-124105544D01*
X159716244Y-124142049D01*
X159933751Y-124212721D01*
X159933752Y-124212721D01*
X159933755Y-124212722D01*
X160159646Y-124248500D01*
X160159647Y-124248500D01*
X160388353Y-124248500D01*
X160388354Y-124248500D01*
X160614245Y-124212722D01*
X160614248Y-124212721D01*
X160614249Y-124212721D01*
X160831755Y-124142049D01*
X160831755Y-124142048D01*
X160831758Y-124142048D01*
X161035538Y-124038217D01*
X161218245Y-123905472D01*
X161284046Y-123881994D01*
X161352100Y-123897819D01*
X161400795Y-123947924D01*
X161407308Y-123962459D01*
X161417702Y-123990328D01*
X161417706Y-123990335D01*
X161503952Y-124105544D01*
X161503955Y-124105547D01*
X161619164Y-124191793D01*
X161619171Y-124191797D01*
X161754017Y-124242091D01*
X161754016Y-124242091D01*
X161760944Y-124242835D01*
X161813627Y-124248500D01*
X163814372Y-124248499D01*
X163873983Y-124242091D01*
X164008831Y-124191796D01*
X164124046Y-124105546D01*
X164210296Y-123990331D01*
X164260591Y-123855483D01*
X164267000Y-123795873D01*
X164266999Y-121700128D01*
X164260591Y-121640517D01*
X164250660Y-121613891D01*
X164210297Y-121505671D01*
X164210293Y-121505664D01*
X164124047Y-121390455D01*
X164124044Y-121390452D01*
X164008835Y-121304206D01*
X164008828Y-121304202D01*
X163873982Y-121253908D01*
X163873983Y-121253908D01*
X163814383Y-121247501D01*
X163814381Y-121247500D01*
X163814373Y-121247500D01*
X163814364Y-121247500D01*
X161813629Y-121247500D01*
X161813623Y-121247501D01*
X161754016Y-121253908D01*
X161619171Y-121304202D01*
X161619164Y-121304206D01*
X161503955Y-121390452D01*
X161503952Y-121390455D01*
X161417706Y-121505664D01*
X161417703Y-121505670D01*
X161407308Y-121533541D01*
X161365436Y-121589474D01*
X161299972Y-121613891D01*
X161231699Y-121599039D01*
X161218250Y-121590531D01*
X161035538Y-121457783D01*
X160831755Y-121353950D01*
X160614248Y-121283278D01*
X160444826Y-121256444D01*
X160388354Y-121247500D01*
X160159646Y-121247500D01*
X160084349Y-121259426D01*
X159933753Y-121283278D01*
X159933750Y-121283278D01*
X159716244Y-121353950D01*
X159512461Y-121457783D01*
X159446551Y-121505670D01*
X159327434Y-121592214D01*
X159327432Y-121592216D01*
X159327431Y-121592216D01*
X159165715Y-121753932D01*
X159104318Y-121838438D01*
X159048987Y-121881103D01*
X158979374Y-121887082D01*
X158917579Y-121854476D01*
X158903682Y-121838438D01*
X158892773Y-121823423D01*
X158842286Y-121753934D01*
X158680566Y-121592214D01*
X158495538Y-121457783D01*
X158291755Y-121353950D01*
X158074248Y-121283278D01*
X157904826Y-121256444D01*
X157848354Y-121247500D01*
X157619646Y-121247500D01*
X157544349Y-121259426D01*
X157393753Y-121283278D01*
X157393750Y-121283278D01*
X157176244Y-121353950D01*
X156972461Y-121457783D01*
X156906551Y-121505670D01*
X156787434Y-121592214D01*
X156787432Y-121592216D01*
X156787431Y-121592216D01*
X156625716Y-121753931D01*
X156625716Y-121753932D01*
X156625714Y-121753934D01*
X156567980Y-121833396D01*
X156491283Y-121938961D01*
X156387450Y-122142744D01*
X156316778Y-122360250D01*
X156316778Y-122360253D01*
X156281000Y-122586146D01*
X148082000Y-122586146D01*
X148082000Y-120047513D01*
X155009500Y-120047513D01*
X155009500Y-120236486D01*
X155039059Y-120423118D01*
X155097454Y-120602836D01*
X155183240Y-120771199D01*
X155294310Y-120924073D01*
X155427927Y-121057690D01*
X155580801Y-121168760D01*
X155660347Y-121209290D01*
X155749163Y-121254545D01*
X155749165Y-121254545D01*
X155749168Y-121254547D01*
X155837592Y-121283278D01*
X155928881Y-121312940D01*
X156115514Y-121342500D01*
X156115519Y-121342500D01*
X156304486Y-121342500D01*
X156491118Y-121312940D01*
X156518004Y-121304204D01*
X156670832Y-121254547D01*
X156839199Y-121168760D01*
X156992073Y-121057690D01*
X157125690Y-120924073D01*
X157236760Y-120771199D01*
X157322547Y-120602832D01*
X157380940Y-120423118D01*
X157410500Y-120236486D01*
X157410500Y-120047513D01*
X164915500Y-120047513D01*
X164915500Y-120236486D01*
X164945059Y-120423118D01*
X165003454Y-120602836D01*
X165089240Y-120771199D01*
X165200310Y-120924073D01*
X165333927Y-121057690D01*
X165486801Y-121168760D01*
X165566347Y-121209290D01*
X165655163Y-121254545D01*
X165655165Y-121254545D01*
X165655168Y-121254547D01*
X165743592Y-121283278D01*
X165834881Y-121312940D01*
X166021514Y-121342500D01*
X166021519Y-121342500D01*
X166210486Y-121342500D01*
X166397118Y-121312940D01*
X166424004Y-121304204D01*
X166576832Y-121254547D01*
X166745199Y-121168760D01*
X166898073Y-121057690D01*
X167031690Y-120924073D01*
X167142760Y-120771199D01*
X167228547Y-120602832D01*
X167286940Y-120423118D01*
X167316500Y-120236486D01*
X167316500Y-120047513D01*
X167286940Y-119860881D01*
X167228545Y-119681163D01*
X167183290Y-119592347D01*
X167142760Y-119512801D01*
X167031690Y-119359927D01*
X166898073Y-119226310D01*
X166745199Y-119115240D01*
X166576836Y-119029454D01*
X166397118Y-118971059D01*
X166210486Y-118941500D01*
X166210481Y-118941500D01*
X166021519Y-118941500D01*
X166021514Y-118941500D01*
X165834881Y-118971059D01*
X165655163Y-119029454D01*
X165486800Y-119115240D01*
X165399579Y-119178610D01*
X165333927Y-119226310D01*
X165333925Y-119226312D01*
X165333924Y-119226312D01*
X165200312Y-119359924D01*
X165200312Y-119359925D01*
X165200310Y-119359927D01*
X165152610Y-119425579D01*
X165089240Y-119512800D01*
X165003454Y-119681163D01*
X164945059Y-119860881D01*
X164915500Y-120047513D01*
X157410500Y-120047513D01*
X157380940Y-119860881D01*
X157322545Y-119681163D01*
X157277290Y-119592347D01*
X157236760Y-119512801D01*
X157125690Y-119359927D01*
X156992073Y-119226310D01*
X156839199Y-119115240D01*
X156670836Y-119029454D01*
X156491118Y-118971059D01*
X156304486Y-118941500D01*
X156304481Y-118941500D01*
X156115519Y-118941500D01*
X156115514Y-118941500D01*
X155928881Y-118971059D01*
X155749163Y-119029454D01*
X155580800Y-119115240D01*
X155493579Y-119178610D01*
X155427927Y-119226310D01*
X155427925Y-119226312D01*
X155427924Y-119226312D01*
X155294312Y-119359924D01*
X155294312Y-119359925D01*
X155294310Y-119359927D01*
X155246610Y-119425579D01*
X155183240Y-119512800D01*
X155097454Y-119681163D01*
X155039059Y-119860881D01*
X155009500Y-120047513D01*
X148082000Y-120047513D01*
X148082000Y-116586000D01*
X150513291Y-116586000D01*
X150631894Y-116704603D01*
X150778910Y-116811417D01*
X150940826Y-116893917D01*
X150940828Y-116893918D01*
X151102029Y-116946294D01*
X151113654Y-116950072D01*
X151249114Y-116971527D01*
X151312249Y-117001456D01*
X151349180Y-117060768D01*
X151348182Y-117130630D01*
X151309572Y-117188863D01*
X151249114Y-117216473D01*
X151113652Y-117237928D01*
X151113649Y-117237928D01*
X150940828Y-117294081D01*
X150940825Y-117294083D01*
X150778909Y-117376583D01*
X150695030Y-117437525D01*
X150631894Y-117483397D01*
X150631892Y-117483399D01*
X150631891Y-117483399D01*
X150503399Y-117611891D01*
X150503399Y-117611892D01*
X150503397Y-117611894D01*
X150457525Y-117675030D01*
X150396583Y-117758909D01*
X150314083Y-117920825D01*
X150314081Y-117920828D01*
X150257928Y-118093649D01*
X150257928Y-118093652D01*
X150229500Y-118273139D01*
X150229500Y-118454860D01*
X150257928Y-118634347D01*
X150257928Y-118634350D01*
X150314081Y-118807171D01*
X150314083Y-118807174D01*
X150396583Y-118969090D01*
X150503397Y-119116106D01*
X150631894Y-119244603D01*
X150778910Y-119351417D01*
X150940826Y-119433917D01*
X150940828Y-119433918D01*
X151102029Y-119486294D01*
X151113654Y-119490072D01*
X151293139Y-119518500D01*
X151293140Y-119518500D01*
X151474860Y-119518500D01*
X151474861Y-119518500D01*
X151654346Y-119490072D01*
X151654349Y-119490071D01*
X151654350Y-119490071D01*
X151827171Y-119433918D01*
X151827171Y-119433917D01*
X151827174Y-119433917D01*
X151989090Y-119351417D01*
X152136106Y-119244603D01*
X152264603Y-119116106D01*
X152371417Y-118969090D01*
X152453917Y-118807174D01*
X152510072Y-118634346D01*
X152538500Y-118454861D01*
X152538500Y-118273139D01*
X152510072Y-118093654D01*
X152510071Y-118093650D01*
X152510071Y-118093649D01*
X152453918Y-117920828D01*
X152453916Y-117920825D01*
X152432852Y-117879483D01*
X152371417Y-117758910D01*
X152264603Y-117611894D01*
X152136106Y-117483397D01*
X151989090Y-117376583D01*
X151827174Y-117294083D01*
X151827171Y-117294081D01*
X151654349Y-117237928D01*
X151558008Y-117222669D01*
X151518884Y-117216472D01*
X151455750Y-117186544D01*
X151418819Y-117127232D01*
X151419817Y-117057370D01*
X151458427Y-116999137D01*
X151518884Y-116971527D01*
X151654346Y-116950072D01*
X151654349Y-116950071D01*
X151654350Y-116950071D01*
X151827171Y-116893918D01*
X151827171Y-116893917D01*
X151827174Y-116893917D01*
X151989090Y-116811417D01*
X152136106Y-116704603D01*
X152254709Y-116586000D01*
X160528000Y-116586000D01*
X160498951Y-114407305D01*
X168314000Y-114407305D01*
X168314000Y-115022000D01*
X169503340Y-115022000D01*
X169481437Y-115043903D01*
X169399359Y-115166742D01*
X169342822Y-115303233D01*
X169314000Y-115448131D01*
X169314000Y-115595869D01*
X169342822Y-115740767D01*
X169399359Y-115877258D01*
X169481437Y-116000097D01*
X169503340Y-116022000D01*
X168314000Y-116022000D01*
X168314000Y-116636694D01*
X168314001Y-116636710D01*
X168343942Y-116864137D01*
X168403318Y-117085730D01*
X168491102Y-117297659D01*
X168491106Y-117297668D01*
X168605809Y-117496338D01*
X168745455Y-117678329D01*
X168745461Y-117678336D01*
X168907663Y-117840538D01*
X168907670Y-117840544D01*
X169089661Y-117980190D01*
X169288331Y-118094893D01*
X169288340Y-118094897D01*
X169500264Y-118182679D01*
X169500274Y-118182682D01*
X169564000Y-118199757D01*
X169564000Y-116082660D01*
X169585903Y-116104563D01*
X169708742Y-116186641D01*
X169845233Y-116243178D01*
X169990131Y-116272000D01*
X170137869Y-116272000D01*
X170282767Y-116243178D01*
X170419258Y-116186641D01*
X170542097Y-116104563D01*
X170564000Y-116082660D01*
X170564000Y-118199756D01*
X170627725Y-118182682D01*
X170627735Y-118182679D01*
X170839659Y-118094897D01*
X170839668Y-118094893D01*
X171038338Y-117980190D01*
X171220329Y-117840544D01*
X171220336Y-117840538D01*
X171382538Y-117678336D01*
X171382544Y-117678329D01*
X171522190Y-117496338D01*
X171636893Y-117297668D01*
X171636897Y-117297659D01*
X171724681Y-117085730D01*
X171784057Y-116864137D01*
X171813998Y-116636710D01*
X171814000Y-116636694D01*
X171814000Y-116022000D01*
X170624660Y-116022000D01*
X170646563Y-116000097D01*
X170728641Y-115877258D01*
X170785178Y-115740767D01*
X170814000Y-115595869D01*
X170814000Y-115448131D01*
X170785178Y-115303233D01*
X170728641Y-115166742D01*
X170646563Y-115043903D01*
X170624660Y-115022000D01*
X171814000Y-115022000D01*
X171814000Y-114407297D01*
X171813995Y-114407258D01*
X173763500Y-114407258D01*
X173763500Y-116636741D01*
X173772435Y-116704603D01*
X173793452Y-116864238D01*
X173852800Y-117085730D01*
X173852842Y-117085887D01*
X173940650Y-117297876D01*
X173940656Y-117297888D01*
X174047760Y-117483399D01*
X174055392Y-117496617D01*
X174195081Y-117678661D01*
X174195089Y-117678670D01*
X174357330Y-117840911D01*
X174357338Y-117840918D01*
X174539382Y-117980607D01*
X174539385Y-117980608D01*
X174539388Y-117980611D01*
X174738112Y-118095344D01*
X174738117Y-118095346D01*
X174738123Y-118095349D01*
X174820678Y-118129544D01*
X174950113Y-118183158D01*
X175171762Y-118242548D01*
X175388312Y-118271057D01*
X175399250Y-118272498D01*
X175399266Y-118272500D01*
X175399273Y-118272500D01*
X175628727Y-118272500D01*
X175628734Y-118272500D01*
X175856238Y-118242548D01*
X176077887Y-118183158D01*
X176289888Y-118095344D01*
X176488612Y-117980611D01*
X176670661Y-117840919D01*
X176670665Y-117840914D01*
X176670670Y-117840911D01*
X176832911Y-117678670D01*
X176832914Y-117678665D01*
X176832919Y-117678661D01*
X176972611Y-117496612D01*
X177087344Y-117297888D01*
X177175158Y-117085887D01*
X177234548Y-116864238D01*
X177264500Y-116636734D01*
X177264500Y-114407266D01*
X177234548Y-114179762D01*
X177175158Y-113958113D01*
X177125190Y-113837480D01*
X177087349Y-113746123D01*
X177087346Y-113746117D01*
X177087344Y-113746112D01*
X176972611Y-113547388D01*
X176972608Y-113547385D01*
X176972607Y-113547382D01*
X176871764Y-113415962D01*
X176832919Y-113365339D01*
X176832918Y-113365338D01*
X176832911Y-113365330D01*
X176691716Y-113224135D01*
X179213500Y-113224135D01*
X179213500Y-117819870D01*
X179213501Y-117819876D01*
X179219908Y-117879483D01*
X179270202Y-118014328D01*
X179270206Y-118014335D01*
X179356452Y-118129544D01*
X179356455Y-118129547D01*
X179471664Y-118215793D01*
X179471671Y-118215797D01*
X179606517Y-118266091D01*
X179606516Y-118266091D01*
X179613444Y-118266835D01*
X179666127Y-118272500D01*
X182261872Y-118272499D01*
X182321483Y-118266091D01*
X182456331Y-118215796D01*
X182571546Y-118129546D01*
X182657796Y-118014331D01*
X182708091Y-117879483D01*
X182714500Y-117819873D01*
X182714499Y-113224128D01*
X182708091Y-113164517D01*
X182670529Y-113063809D01*
X182657797Y-113029671D01*
X182657793Y-113029664D01*
X182571547Y-112914455D01*
X182571544Y-112914452D01*
X182456335Y-112828206D01*
X182456328Y-112828202D01*
X182321482Y-112777908D01*
X182321483Y-112777908D01*
X182261883Y-112771501D01*
X182261881Y-112771500D01*
X182261873Y-112771500D01*
X182261864Y-112771500D01*
X179666129Y-112771500D01*
X179666123Y-112771501D01*
X179606516Y-112777908D01*
X179471671Y-112828202D01*
X179471664Y-112828206D01*
X179356455Y-112914452D01*
X179356452Y-112914455D01*
X179270206Y-113029664D01*
X179270202Y-113029671D01*
X179219908Y-113164517D01*
X179213501Y-113224116D01*
X179213501Y-113224123D01*
X179213500Y-113224135D01*
X176691716Y-113224135D01*
X176670670Y-113203089D01*
X176670661Y-113203081D01*
X176488617Y-113063392D01*
X176430210Y-113029671D01*
X176349083Y-112982832D01*
X176289890Y-112948657D01*
X176289876Y-112948650D01*
X176077887Y-112860842D01*
X175856238Y-112801452D01*
X175818215Y-112796446D01*
X175628741Y-112771500D01*
X175628734Y-112771500D01*
X175399266Y-112771500D01*
X175399258Y-112771500D01*
X175182715Y-112800009D01*
X175171762Y-112801452D01*
X175078076Y-112826554D01*
X174950112Y-112860842D01*
X174738123Y-112948650D01*
X174738109Y-112948657D01*
X174539382Y-113063392D01*
X174357338Y-113203081D01*
X174195081Y-113365338D01*
X174055392Y-113547382D01*
X173940657Y-113746109D01*
X173940650Y-113746123D01*
X173852842Y-113958112D01*
X173793453Y-114179759D01*
X173793451Y-114179770D01*
X173763500Y-114407258D01*
X171813995Y-114407258D01*
X171784057Y-114179862D01*
X171724681Y-113958269D01*
X171636897Y-113746340D01*
X171636893Y-113746331D01*
X171522190Y-113547661D01*
X171382544Y-113365670D01*
X171382538Y-113365663D01*
X171220336Y-113203461D01*
X171220329Y-113203455D01*
X171038338Y-113063809D01*
X170839668Y-112949106D01*
X170839654Y-112949099D01*
X170627727Y-112861317D01*
X170627720Y-112861315D01*
X170564000Y-112844240D01*
X170564000Y-114961340D01*
X170542097Y-114939437D01*
X170419258Y-114857359D01*
X170282767Y-114800822D01*
X170137869Y-114772000D01*
X169990131Y-114772000D01*
X169845233Y-114800822D01*
X169708742Y-114857359D01*
X169585903Y-114939437D01*
X169564000Y-114961340D01*
X169564000Y-112844241D01*
X169563999Y-112844240D01*
X169500279Y-112861315D01*
X169500272Y-112861317D01*
X169288345Y-112949099D01*
X169288331Y-112949106D01*
X169089661Y-113063809D01*
X168907670Y-113203455D01*
X168907663Y-113203461D01*
X168745461Y-113365663D01*
X168745455Y-113365670D01*
X168605809Y-113547661D01*
X168491106Y-113746331D01*
X168491102Y-113746340D01*
X168403318Y-113958269D01*
X168343942Y-114179862D01*
X168314001Y-114407289D01*
X168314000Y-114407305D01*
X160498951Y-114407305D01*
X160488823Y-113647733D01*
X165697370Y-113647733D01*
X165697371Y-113647734D01*
X165834996Y-113692451D01*
X166021553Y-113722000D01*
X166210447Y-113722000D01*
X166396997Y-113692452D01*
X166396998Y-113692452D01*
X166534628Y-113647734D01*
X166116001Y-113229106D01*
X166116000Y-113229106D01*
X165697370Y-113647733D01*
X160488823Y-113647733D01*
X160472554Y-112427552D01*
X164916000Y-112427552D01*
X164916000Y-112616447D01*
X164945547Y-112803002D01*
X164990264Y-112940627D01*
X164990265Y-112940627D01*
X165408894Y-112522000D01*
X165362816Y-112475922D01*
X165766000Y-112475922D01*
X165766000Y-112568078D01*
X165789852Y-112657095D01*
X165835930Y-112736905D01*
X165901095Y-112802070D01*
X165980905Y-112848148D01*
X166069922Y-112872000D01*
X166162078Y-112872000D01*
X166251095Y-112848148D01*
X166330905Y-112802070D01*
X166396070Y-112736905D01*
X166442148Y-112657095D01*
X166466000Y-112568078D01*
X166466000Y-112521999D01*
X166823106Y-112521999D01*
X166823106Y-112522000D01*
X167241734Y-112940628D01*
X167286452Y-112802998D01*
X167286452Y-112802997D01*
X167316000Y-112616447D01*
X167316000Y-112427552D01*
X167286451Y-112240997D01*
X167286451Y-112240994D01*
X167241734Y-112103371D01*
X167241733Y-112103370D01*
X166823106Y-112521999D01*
X166466000Y-112521999D01*
X166466000Y-112475922D01*
X166442148Y-112386905D01*
X166396070Y-112307095D01*
X166330905Y-112241930D01*
X166251095Y-112195852D01*
X166162078Y-112172000D01*
X166069922Y-112172000D01*
X165980905Y-112195852D01*
X165901095Y-112241930D01*
X165835930Y-112307095D01*
X165789852Y-112386905D01*
X165766000Y-112475922D01*
X165362816Y-112475922D01*
X164990265Y-112103371D01*
X164945548Y-112240997D01*
X164916000Y-112427552D01*
X160472554Y-112427552D01*
X160458803Y-111396265D01*
X165697371Y-111396265D01*
X166116000Y-111814894D01*
X166116001Y-111814894D01*
X166534627Y-111396265D01*
X166534627Y-111396264D01*
X166397002Y-111351547D01*
X166210447Y-111322000D01*
X166021553Y-111322000D01*
X165834997Y-111351548D01*
X165697371Y-111396265D01*
X160458803Y-111396265D01*
X160453493Y-110998000D01*
X160453494Y-110998000D01*
X181654519Y-110998000D01*
X181661471Y-110998195D01*
G37*
%TD.AperFunction*%
%TD*%
%TA.AperFunction,Conductor*%
%TO.N,GND*%
G36*
X72136000Y-81026000D02*
G01*
X74417933Y-81026000D01*
X74426043Y-81026265D01*
X74712291Y-81045026D01*
X74728347Y-81047141D01*
X75005699Y-81102310D01*
X75021350Y-81106504D01*
X75289122Y-81197400D01*
X75304093Y-81203601D01*
X75541432Y-81320643D01*
X75557710Y-81328671D01*
X75571756Y-81336781D01*
X75806870Y-81493878D01*
X75819739Y-81503752D01*
X76032335Y-81690195D01*
X76043804Y-81701664D01*
X76230247Y-81914260D01*
X76240121Y-81927129D01*
X76397218Y-82162243D01*
X76405328Y-82176289D01*
X76530395Y-82429898D01*
X76536602Y-82444884D01*
X76627493Y-82712643D01*
X76631691Y-82728309D01*
X76686856Y-83005638D01*
X76688974Y-83021720D01*
X76707735Y-83307956D01*
X76708000Y-83316066D01*
X76708000Y-91308572D01*
X76707684Y-91317418D01*
X76689242Y-91575265D01*
X76686724Y-91592777D01*
X76632720Y-91841030D01*
X76627736Y-91858006D01*
X76538946Y-92096059D01*
X76531596Y-92112152D01*
X76409837Y-92335138D01*
X76400272Y-92350021D01*
X76248017Y-92553410D01*
X76236431Y-92566781D01*
X76056781Y-92746431D01*
X76043410Y-92758017D01*
X75840021Y-92910272D01*
X75825138Y-92919837D01*
X75602152Y-93041596D01*
X75586059Y-93048946D01*
X75348006Y-93137736D01*
X75331030Y-93142720D01*
X75082777Y-93196724D01*
X75065265Y-93199242D01*
X74807418Y-93217684D01*
X74798572Y-93218000D01*
X72898000Y-93218000D01*
X72898000Y-118110000D01*
X64516000Y-118110000D01*
X64516000Y-121411951D01*
X64414576Y-93520412D01*
X64413184Y-93137736D01*
X64408658Y-91892919D01*
X72390185Y-91892919D01*
X72390185Y-91892920D01*
X72519517Y-91967590D01*
X72519528Y-91967595D01*
X72761744Y-92067924D01*
X73014979Y-92135777D01*
X73014990Y-92135779D01*
X73274905Y-92169999D01*
X73274920Y-92170000D01*
X73537080Y-92170000D01*
X73537094Y-92169999D01*
X73797009Y-92135779D01*
X73797020Y-92135777D01*
X74050255Y-92067924D01*
X74292471Y-91967595D01*
X74292482Y-91967590D01*
X74421813Y-91892920D01*
X74421813Y-91892919D01*
X73406001Y-90877106D01*
X73406000Y-90877106D01*
X72390185Y-91892919D01*
X64408658Y-91892919D01*
X64401916Y-90038905D01*
X71406000Y-90038905D01*
X71406000Y-90301094D01*
X71440220Y-90561009D01*
X71440222Y-90561020D01*
X71508075Y-90814255D01*
X71608403Y-91056468D01*
X71608407Y-91056477D01*
X71683079Y-91185812D01*
X71683080Y-91185813D01*
X72698893Y-90170000D01*
X72634874Y-90105981D01*
X72756000Y-90105981D01*
X72756000Y-90234019D01*
X72780979Y-90359598D01*
X72829978Y-90477890D01*
X72901112Y-90584351D01*
X72991649Y-90674888D01*
X73098110Y-90746022D01*
X73216402Y-90795021D01*
X73341981Y-90820000D01*
X73470019Y-90820000D01*
X73595598Y-90795021D01*
X73713890Y-90746022D01*
X73820351Y-90674888D01*
X73910888Y-90584351D01*
X73982022Y-90477890D01*
X74031021Y-90359598D01*
X74056000Y-90234019D01*
X74056000Y-90169999D01*
X74113106Y-90169999D01*
X74113106Y-90170000D01*
X75128919Y-91185813D01*
X75128920Y-91185813D01*
X75203590Y-91056482D01*
X75203595Y-91056471D01*
X75303924Y-90814255D01*
X75371777Y-90561020D01*
X75371779Y-90561009D01*
X75405999Y-90301094D01*
X75406000Y-90301080D01*
X75406000Y-90038919D01*
X75405999Y-90038905D01*
X75371779Y-89778990D01*
X75371777Y-89778979D01*
X75303924Y-89525744D01*
X75203595Y-89283528D01*
X75203590Y-89283517D01*
X75128919Y-89154185D01*
X74113106Y-90169999D01*
X74056000Y-90169999D01*
X74056000Y-90105981D01*
X74031021Y-89980402D01*
X73982022Y-89862110D01*
X73910888Y-89755649D01*
X73820351Y-89665112D01*
X73713890Y-89593978D01*
X73595598Y-89544979D01*
X73470019Y-89520000D01*
X73341981Y-89520000D01*
X73216402Y-89544979D01*
X73098110Y-89593978D01*
X72991649Y-89665112D01*
X72901112Y-89755649D01*
X72829978Y-89862110D01*
X72780979Y-89980402D01*
X72756000Y-90105981D01*
X72634874Y-90105981D01*
X71683079Y-89154186D01*
X71608405Y-89283526D01*
X71608403Y-89283531D01*
X71508075Y-89525744D01*
X71440222Y-89778979D01*
X71440220Y-89778990D01*
X71406000Y-90038905D01*
X64401916Y-90038905D01*
X64396127Y-88447079D01*
X72390186Y-88447079D01*
X73406000Y-89462893D01*
X73406001Y-89462893D01*
X74421813Y-88447080D01*
X74421812Y-88447079D01*
X74292477Y-88372407D01*
X74292468Y-88372403D01*
X74050255Y-88272075D01*
X73797020Y-88204222D01*
X73797009Y-88204220D01*
X73537094Y-88170000D01*
X73274905Y-88170000D01*
X73014990Y-88204220D01*
X73014979Y-88204222D01*
X72761744Y-88272075D01*
X72519531Y-88372403D01*
X72519526Y-88372405D01*
X72390186Y-88447079D01*
X64396127Y-88447079D01*
X64390185Y-86812919D01*
X72390185Y-86812919D01*
X72390185Y-86812920D01*
X72519517Y-86887590D01*
X72519528Y-86887595D01*
X72761744Y-86987924D01*
X73014979Y-87055777D01*
X73014990Y-87055779D01*
X73274905Y-87089999D01*
X73274920Y-87090000D01*
X73537080Y-87090000D01*
X73537094Y-87089999D01*
X73797009Y-87055779D01*
X73797020Y-87055777D01*
X74050255Y-86987924D01*
X74292471Y-86887595D01*
X74292482Y-86887590D01*
X74421813Y-86812920D01*
X74421813Y-86812919D01*
X73406001Y-85797106D01*
X73406000Y-85797106D01*
X72390185Y-86812919D01*
X64390185Y-86812919D01*
X64383443Y-84958905D01*
X71406000Y-84958905D01*
X71406000Y-85221094D01*
X71440220Y-85481009D01*
X71440222Y-85481020D01*
X71508075Y-85734255D01*
X71608403Y-85976468D01*
X71608407Y-85976477D01*
X71683079Y-86105812D01*
X71683080Y-86105813D01*
X72698893Y-85090000D01*
X72634874Y-85025981D01*
X72756000Y-85025981D01*
X72756000Y-85154019D01*
X72780979Y-85279598D01*
X72829978Y-85397890D01*
X72901112Y-85504351D01*
X72991649Y-85594888D01*
X73098110Y-85666022D01*
X73216402Y-85715021D01*
X73341981Y-85740000D01*
X73470019Y-85740000D01*
X73595598Y-85715021D01*
X73713890Y-85666022D01*
X73820351Y-85594888D01*
X73910888Y-85504351D01*
X73982022Y-85397890D01*
X74031021Y-85279598D01*
X74056000Y-85154019D01*
X74056000Y-85089999D01*
X74113106Y-85089999D01*
X74113106Y-85090000D01*
X75128919Y-86105813D01*
X75128920Y-86105813D01*
X75203590Y-85976482D01*
X75203595Y-85976471D01*
X75303924Y-85734255D01*
X75371777Y-85481020D01*
X75371779Y-85481009D01*
X75405999Y-85221094D01*
X75406000Y-85221080D01*
X75406000Y-84958919D01*
X75405999Y-84958905D01*
X75371779Y-84698990D01*
X75371777Y-84698979D01*
X75303924Y-84445744D01*
X75203595Y-84203528D01*
X75203590Y-84203517D01*
X75128919Y-84074185D01*
X74113106Y-85089999D01*
X74056000Y-85089999D01*
X74056000Y-85025981D01*
X74031021Y-84900402D01*
X73982022Y-84782110D01*
X73910888Y-84675649D01*
X73820351Y-84585112D01*
X73713890Y-84513978D01*
X73595598Y-84464979D01*
X73470019Y-84440000D01*
X73341981Y-84440000D01*
X73216402Y-84464979D01*
X73098110Y-84513978D01*
X72991649Y-84585112D01*
X72901112Y-84675649D01*
X72829978Y-84782110D01*
X72780979Y-84900402D01*
X72756000Y-85025981D01*
X72634874Y-85025981D01*
X71683079Y-84074186D01*
X71608405Y-84203526D01*
X71608403Y-84203531D01*
X71508075Y-84445744D01*
X71440222Y-84698979D01*
X71440220Y-84698990D01*
X71406000Y-84958905D01*
X64383443Y-84958905D01*
X64377655Y-83367079D01*
X72390186Y-83367079D01*
X73406000Y-84382893D01*
X73406001Y-84382893D01*
X74421813Y-83367080D01*
X74421812Y-83367079D01*
X74292477Y-83292407D01*
X74292468Y-83292403D01*
X74050255Y-83192075D01*
X73797020Y-83124222D01*
X73797009Y-83124220D01*
X73537094Y-83090000D01*
X73274905Y-83090000D01*
X73014990Y-83124220D01*
X73014979Y-83124222D01*
X72761744Y-83192075D01*
X72519531Y-83292403D01*
X72519526Y-83292405D01*
X72390186Y-83367079D01*
X64377655Y-83367079D01*
X64274955Y-55124465D01*
X64274954Y-55124464D01*
X64274953Y-55123997D01*
X64274952Y-55123993D01*
X64274930Y-55118000D01*
X72136000Y-55118000D01*
X72136000Y-81026000D01*
G37*
%TD.AperFunction*%
%TD*%
%TA.AperFunction,Conductor*%
%TO.N,GND*%
G36*
X142037471Y-118110195D02*
G01*
X142078136Y-118112478D01*
X142362949Y-118128473D01*
X142376748Y-118130027D01*
X142694695Y-118184049D01*
X142708252Y-118187143D01*
X143018148Y-118276423D01*
X143031272Y-118281016D01*
X143329215Y-118404427D01*
X143341737Y-118410456D01*
X143624006Y-118566461D01*
X143635779Y-118573859D01*
X143898789Y-118760475D01*
X143909649Y-118769135D01*
X144150127Y-118984039D01*
X144159960Y-118993872D01*
X144374859Y-119234344D01*
X144383528Y-119245216D01*
X144570139Y-119508219D01*
X144577538Y-119519993D01*
X144733539Y-119802255D01*
X144739572Y-119814784D01*
X144862983Y-120112727D01*
X144867576Y-120125851D01*
X144956856Y-120435747D01*
X144959950Y-120449304D01*
X145013970Y-120767240D01*
X145015527Y-120781058D01*
X145033805Y-121106527D01*
X145034000Y-121113480D01*
X145034000Y-125012519D01*
X145033805Y-125019472D01*
X145015527Y-125344941D01*
X145013970Y-125358759D01*
X144959950Y-125676695D01*
X144956856Y-125690252D01*
X144867576Y-126000148D01*
X144862983Y-126013272D01*
X144739572Y-126311215D01*
X144733539Y-126323744D01*
X144577538Y-126606006D01*
X144570139Y-126617780D01*
X144383528Y-126880783D01*
X144374859Y-126891655D01*
X144159960Y-127132127D01*
X144150127Y-127141960D01*
X143909655Y-127356859D01*
X143898783Y-127365528D01*
X143635780Y-127552139D01*
X143624006Y-127559538D01*
X143341744Y-127715539D01*
X143329216Y-127721572D01*
X143236296Y-127760061D01*
X143188843Y-127769500D01*
X66361157Y-127769500D01*
X66313704Y-127760061D01*
X66220783Y-127721572D01*
X66208255Y-127715539D01*
X65925993Y-127559538D01*
X65914219Y-127552139D01*
X65651216Y-127365528D01*
X65640344Y-127356859D01*
X65399872Y-127141960D01*
X65390039Y-127132127D01*
X65175140Y-126891655D01*
X65166475Y-126880789D01*
X64979859Y-126617779D01*
X64972461Y-126606006D01*
X64816460Y-126323744D01*
X64810427Y-126311215D01*
X64687016Y-126013272D01*
X64682423Y-126000148D01*
X64593143Y-125690252D01*
X64590049Y-125676697D01*
X64590049Y-125676695D01*
X64587044Y-125659010D01*
X64595220Y-125589624D01*
X64639613Y-125535669D01*
X64706128Y-125514280D01*
X64773648Y-125532248D01*
X64807668Y-125562754D01*
X64899733Y-125682736D01*
X64899739Y-125682743D01*
X65071256Y-125854260D01*
X65071262Y-125854265D01*
X65263711Y-126001936D01*
X65473788Y-126123224D01*
X65697900Y-126216054D01*
X65932211Y-126278838D01*
X66112586Y-126302584D01*
X66172711Y-126310500D01*
X66172712Y-126310500D01*
X66415289Y-126310500D01*
X66463388Y-126304167D01*
X66655789Y-126278838D01*
X66890100Y-126216054D01*
X67114212Y-126123224D01*
X67324289Y-126001936D01*
X67516738Y-125854265D01*
X67688265Y-125682738D01*
X67835936Y-125490289D01*
X67957224Y-125280212D01*
X68050054Y-125056100D01*
X68112838Y-124821789D01*
X68144500Y-124581288D01*
X68144500Y-124338712D01*
X68112838Y-124098211D01*
X68050054Y-123863900D01*
X67957224Y-123639788D01*
X67835936Y-123429711D01*
X67688265Y-123237262D01*
X67688260Y-123237256D01*
X67516743Y-123065739D01*
X67516736Y-123065733D01*
X67324293Y-122918067D01*
X67324292Y-122918066D01*
X67324289Y-122918064D01*
X67114212Y-122796776D01*
X67073178Y-122779779D01*
X66890104Y-122703947D01*
X66655785Y-122641161D01*
X66415289Y-122609500D01*
X66415288Y-122609500D01*
X66172712Y-122609500D01*
X66172711Y-122609500D01*
X65932214Y-122641161D01*
X65697895Y-122703947D01*
X65473794Y-122796773D01*
X65473785Y-122796777D01*
X65263706Y-122918067D01*
X65071263Y-123065733D01*
X65071256Y-123065739D01*
X64899739Y-123237256D01*
X64899733Y-123237263D01*
X64752065Y-123429708D01*
X64747385Y-123437815D01*
X64696817Y-123486029D01*
X64628209Y-123499250D01*
X64563345Y-123473280D01*
X64522819Y-123416365D01*
X64516000Y-123375812D01*
X64516000Y-122079765D01*
X112600000Y-122079765D01*
X112610493Y-122182469D01*
X112610494Y-122182476D01*
X112665641Y-122348898D01*
X112665643Y-122348903D01*
X112757684Y-122498124D01*
X112881655Y-122622095D01*
X113030876Y-122714136D01*
X113030881Y-122714138D01*
X113197303Y-122769285D01*
X113197310Y-122769286D01*
X113300014Y-122779779D01*
X113300027Y-122779780D01*
X113800000Y-122779780D01*
X114800000Y-122779780D01*
X115299973Y-122779780D01*
X115299985Y-122779779D01*
X115402689Y-122769286D01*
X115402696Y-122769285D01*
X115569118Y-122714138D01*
X115569123Y-122714136D01*
X115718344Y-122622095D01*
X115842315Y-122498124D01*
X115934356Y-122348903D01*
X115934358Y-122348898D01*
X115989505Y-122182476D01*
X115989506Y-122182469D01*
X115999999Y-122079765D01*
X133682000Y-122079765D01*
X133692493Y-122182469D01*
X133692494Y-122182476D01*
X133747641Y-122348898D01*
X133747643Y-122348903D01*
X133839684Y-122498124D01*
X133963655Y-122622095D01*
X134112876Y-122714136D01*
X134112881Y-122714138D01*
X134279303Y-122769285D01*
X134279310Y-122769286D01*
X134382014Y-122779779D01*
X134382027Y-122779780D01*
X134882000Y-122779780D01*
X135882000Y-122779780D01*
X136381973Y-122779780D01*
X136381985Y-122779779D01*
X136484689Y-122769286D01*
X136484696Y-122769285D01*
X136651118Y-122714138D01*
X136651123Y-122714136D01*
X136800344Y-122622095D01*
X136924315Y-122498124D01*
X137016356Y-122348903D01*
X137016358Y-122348898D01*
X137071505Y-122182476D01*
X137071506Y-122182469D01*
X137081999Y-122079765D01*
X137082000Y-122079752D01*
X137082000Y-121579780D01*
X135882000Y-121579780D01*
X135882000Y-122779780D01*
X134882000Y-122779780D01*
X134882000Y-121579780D01*
X133682000Y-121579780D01*
X133682000Y-122079765D01*
X115999999Y-122079765D01*
X116000000Y-122079752D01*
X116000000Y-121579780D01*
X114800000Y-121579780D01*
X114800000Y-122779780D01*
X113800000Y-122779780D01*
X113800000Y-121579780D01*
X112600000Y-121579780D01*
X112600000Y-122079765D01*
X64516000Y-122079765D01*
X64516000Y-121411951D01*
X64516000Y-121000789D01*
X113700000Y-121000789D01*
X113700000Y-121158771D01*
X113740889Y-121311371D01*
X113819881Y-121448188D01*
X113931592Y-121559899D01*
X114068409Y-121638891D01*
X114221009Y-121679780D01*
X114378991Y-121679780D01*
X114531591Y-121638891D01*
X114668408Y-121559899D01*
X114780119Y-121448188D01*
X114859111Y-121311371D01*
X114900000Y-121158771D01*
X114900000Y-121000789D01*
X134782000Y-121000789D01*
X134782000Y-121158771D01*
X134822889Y-121311371D01*
X134901881Y-121448188D01*
X135013592Y-121559899D01*
X135150409Y-121638891D01*
X135303009Y-121679780D01*
X135460991Y-121679780D01*
X135613591Y-121638891D01*
X135750408Y-121559899D01*
X135862119Y-121448188D01*
X135941111Y-121311371D01*
X135982000Y-121158771D01*
X135982000Y-121000789D01*
X135941111Y-120848189D01*
X135862119Y-120711372D01*
X135750408Y-120599661D01*
X135715973Y-120579780D01*
X135882000Y-120579780D01*
X137082000Y-120579780D01*
X137082000Y-120079807D01*
X137081999Y-120079794D01*
X137071506Y-119977090D01*
X137071505Y-119977083D01*
X137016358Y-119810661D01*
X137016356Y-119810656D01*
X136924315Y-119661435D01*
X136800344Y-119537464D01*
X136651123Y-119445423D01*
X136651118Y-119445421D01*
X136484696Y-119390274D01*
X136484689Y-119390273D01*
X136381985Y-119379780D01*
X135882000Y-119379780D01*
X135882000Y-120579780D01*
X135715973Y-120579780D01*
X135613591Y-120520669D01*
X135460991Y-120479780D01*
X135303009Y-120479780D01*
X135150409Y-120520669D01*
X135013592Y-120599661D01*
X134901881Y-120711372D01*
X134822889Y-120848189D01*
X134782000Y-121000789D01*
X114900000Y-121000789D01*
X114859111Y-120848189D01*
X114780119Y-120711372D01*
X114668408Y-120599661D01*
X114633973Y-120579780D01*
X114800000Y-120579780D01*
X116000000Y-120579780D01*
X116000000Y-120079807D01*
X115999999Y-120079794D01*
X133682000Y-120079794D01*
X133682000Y-120579780D01*
X134882000Y-120579780D01*
X134882000Y-119379780D01*
X134382014Y-119379780D01*
X134279310Y-119390273D01*
X134279303Y-119390274D01*
X134112881Y-119445421D01*
X134112876Y-119445423D01*
X133963655Y-119537464D01*
X133839684Y-119661435D01*
X133747643Y-119810656D01*
X133747641Y-119810661D01*
X133692494Y-119977083D01*
X133692493Y-119977090D01*
X133682000Y-120079794D01*
X115999999Y-120079794D01*
X115989506Y-119977090D01*
X115989505Y-119977083D01*
X115934358Y-119810661D01*
X115934356Y-119810656D01*
X115842315Y-119661435D01*
X115718344Y-119537464D01*
X115569123Y-119445423D01*
X115569118Y-119445421D01*
X115402696Y-119390274D01*
X115402689Y-119390273D01*
X115299985Y-119379780D01*
X114800000Y-119379780D01*
X114800000Y-120579780D01*
X114633973Y-120579780D01*
X114531591Y-120520669D01*
X114378991Y-120479780D01*
X114221009Y-120479780D01*
X114068409Y-120520669D01*
X113931592Y-120599661D01*
X113819881Y-120711372D01*
X113740889Y-120848189D01*
X113700000Y-121000789D01*
X64516000Y-121000789D01*
X64516000Y-120079794D01*
X112600000Y-120079794D01*
X112600000Y-120579780D01*
X113800000Y-120579780D01*
X113800000Y-119379780D01*
X113300014Y-119379780D01*
X113197310Y-119390273D01*
X113197303Y-119390274D01*
X113030881Y-119445421D01*
X113030876Y-119445423D01*
X112881655Y-119537464D01*
X112757684Y-119661435D01*
X112665643Y-119810656D01*
X112665641Y-119810661D01*
X112610494Y-119977083D01*
X112610493Y-119977090D01*
X112600000Y-120079794D01*
X64516000Y-120079794D01*
X64516000Y-118110000D01*
X72898000Y-118110000D01*
X142030519Y-118110000D01*
X142037471Y-118110195D01*
G37*
%TD.AperFunction*%
%TD*%
%TA.AperFunction,Conductor*%
%TO.N,/V-*%
G36*
X177597471Y-95504195D02*
G01*
X177638136Y-95506478D01*
X177922949Y-95522473D01*
X177936748Y-95524027D01*
X178254695Y-95578049D01*
X178268252Y-95581143D01*
X178578148Y-95670423D01*
X178591272Y-95675016D01*
X178889215Y-95798427D01*
X178901737Y-95804456D01*
X179184006Y-95960461D01*
X179195779Y-95967859D01*
X179458789Y-96154475D01*
X179469649Y-96163135D01*
X179710127Y-96378039D01*
X179719960Y-96387872D01*
X179934859Y-96628344D01*
X179943528Y-96639216D01*
X180130139Y-96902219D01*
X180137538Y-96913993D01*
X180293539Y-97196255D01*
X180299572Y-97208784D01*
X180422983Y-97506727D01*
X180427576Y-97519851D01*
X180516856Y-97829747D01*
X180519950Y-97843304D01*
X180573970Y-98161240D01*
X180575527Y-98175058D01*
X180593805Y-98500527D01*
X180594000Y-98507480D01*
X180594000Y-105200519D01*
X180593805Y-105207472D01*
X180575527Y-105532941D01*
X180573970Y-105546759D01*
X180519950Y-105864695D01*
X180516856Y-105878252D01*
X180427576Y-106188148D01*
X180422983Y-106201272D01*
X180299572Y-106499215D01*
X180293539Y-106511744D01*
X180137538Y-106794006D01*
X180130139Y-106805780D01*
X179943528Y-107068783D01*
X179934859Y-107079655D01*
X179719960Y-107320127D01*
X179710127Y-107329960D01*
X179469655Y-107544859D01*
X179458783Y-107553528D01*
X179195780Y-107740139D01*
X179184006Y-107747538D01*
X178901744Y-107903539D01*
X178889215Y-107909572D01*
X178591272Y-108032983D01*
X178578148Y-108037576D01*
X178268252Y-108126856D01*
X178254695Y-108129950D01*
X177936759Y-108183970D01*
X177922941Y-108185527D01*
X177597472Y-108203805D01*
X177590519Y-108204000D01*
X169119481Y-108204000D01*
X169112528Y-108203805D01*
X168787058Y-108185527D01*
X168773240Y-108183970D01*
X168455304Y-108129950D01*
X168441747Y-108126856D01*
X168131851Y-108037576D01*
X168118727Y-108032983D01*
X167820784Y-107909572D01*
X167808255Y-107903539D01*
X167525993Y-107747538D01*
X167514219Y-107740139D01*
X167251216Y-107553528D01*
X167240344Y-107544859D01*
X166999872Y-107329960D01*
X166990039Y-107320127D01*
X166775140Y-107079655D01*
X166766475Y-107068789D01*
X166579859Y-106805779D01*
X166572461Y-106794006D01*
X166416460Y-106511744D01*
X166410427Y-106499215D01*
X166287016Y-106201272D01*
X166282423Y-106188148D01*
X166193143Y-105878252D01*
X166190049Y-105864693D01*
X166189748Y-105862919D01*
X168756185Y-105862919D01*
X168756185Y-105862920D01*
X168885517Y-105937590D01*
X168885528Y-105937595D01*
X169127744Y-106037924D01*
X169380979Y-106105777D01*
X169380990Y-106105779D01*
X169640905Y-106139999D01*
X169640920Y-106140000D01*
X169903080Y-106140000D01*
X169903094Y-106139999D01*
X170163009Y-106105779D01*
X170163020Y-106105777D01*
X170416255Y-106037924D01*
X170658471Y-105937595D01*
X170658482Y-105937590D01*
X170787813Y-105862920D01*
X170787813Y-105862919D01*
X175260185Y-105862919D01*
X175260185Y-105862920D01*
X175389517Y-105937590D01*
X175389528Y-105937595D01*
X175631744Y-106037924D01*
X175884979Y-106105777D01*
X175884990Y-106105779D01*
X176144905Y-106139999D01*
X176144920Y-106140000D01*
X176407080Y-106140000D01*
X176407094Y-106139999D01*
X176667009Y-106105779D01*
X176667020Y-106105777D01*
X176920255Y-106037924D01*
X177162471Y-105937595D01*
X177162482Y-105937590D01*
X177291813Y-105862920D01*
X177291813Y-105862919D01*
X176276001Y-104847106D01*
X176276000Y-104847106D01*
X175260185Y-105862919D01*
X170787813Y-105862919D01*
X169772001Y-104847106D01*
X169772000Y-104847106D01*
X168756185Y-105862919D01*
X166189748Y-105862919D01*
X166185726Y-105839247D01*
X166158392Y-105678379D01*
X166136027Y-105546748D01*
X166134473Y-105532949D01*
X166116195Y-105207471D01*
X166116000Y-105200519D01*
X166116000Y-104008905D01*
X167772000Y-104008905D01*
X167772000Y-104271094D01*
X167806220Y-104531009D01*
X167806222Y-104531020D01*
X167874075Y-104784255D01*
X167974403Y-105026468D01*
X167974407Y-105026477D01*
X168049079Y-105155812D01*
X168049080Y-105155813D01*
X169064893Y-104140000D01*
X169064893Y-104139999D01*
X169000875Y-104075981D01*
X169122000Y-104075981D01*
X169122000Y-104204019D01*
X169146979Y-104329598D01*
X169195978Y-104447890D01*
X169267112Y-104554351D01*
X169357649Y-104644888D01*
X169464110Y-104716022D01*
X169582402Y-104765021D01*
X169707981Y-104790000D01*
X169836019Y-104790000D01*
X169961598Y-104765021D01*
X170079890Y-104716022D01*
X170186351Y-104644888D01*
X170276888Y-104554351D01*
X170348022Y-104447890D01*
X170397021Y-104329598D01*
X170422000Y-104204019D01*
X170422000Y-104139999D01*
X170479106Y-104139999D01*
X170479106Y-104140000D01*
X171494919Y-105155813D01*
X171494920Y-105155813D01*
X171569590Y-105026482D01*
X171569595Y-105026471D01*
X171669924Y-104784255D01*
X171737777Y-104531020D01*
X171737779Y-104531009D01*
X171771999Y-104271094D01*
X171772000Y-104271080D01*
X171772000Y-104008919D01*
X171771999Y-104008905D01*
X174276000Y-104008905D01*
X174276000Y-104271094D01*
X174310220Y-104531009D01*
X174310222Y-104531020D01*
X174378075Y-104784255D01*
X174478403Y-105026468D01*
X174478407Y-105026477D01*
X174553079Y-105155812D01*
X174553080Y-105155813D01*
X175568893Y-104140000D01*
X175504874Y-104075981D01*
X175626000Y-104075981D01*
X175626000Y-104204019D01*
X175650979Y-104329598D01*
X175699978Y-104447890D01*
X175771112Y-104554351D01*
X175861649Y-104644888D01*
X175968110Y-104716022D01*
X176086402Y-104765021D01*
X176211981Y-104790000D01*
X176340019Y-104790000D01*
X176465598Y-104765021D01*
X176583890Y-104716022D01*
X176690351Y-104644888D01*
X176780888Y-104554351D01*
X176852022Y-104447890D01*
X176901021Y-104329598D01*
X176926000Y-104204019D01*
X176926000Y-104139999D01*
X176983106Y-104139999D01*
X176983106Y-104140000D01*
X177998919Y-105155813D01*
X177998920Y-105155813D01*
X178073590Y-105026482D01*
X178073595Y-105026471D01*
X178173924Y-104784255D01*
X178241777Y-104531020D01*
X178241779Y-104531009D01*
X178275999Y-104271094D01*
X178276000Y-104271080D01*
X178276000Y-104008919D01*
X178275999Y-104008905D01*
X178241779Y-103748990D01*
X178241777Y-103748979D01*
X178173924Y-103495744D01*
X178073595Y-103253528D01*
X178073590Y-103253517D01*
X177998919Y-103124185D01*
X176983106Y-104139999D01*
X176926000Y-104139999D01*
X176926000Y-104075981D01*
X176901021Y-103950402D01*
X176852022Y-103832110D01*
X176780888Y-103725649D01*
X176690351Y-103635112D01*
X176583890Y-103563978D01*
X176465598Y-103514979D01*
X176340019Y-103490000D01*
X176211981Y-103490000D01*
X176086402Y-103514979D01*
X175968110Y-103563978D01*
X175861649Y-103635112D01*
X175771112Y-103725649D01*
X175699978Y-103832110D01*
X175650979Y-103950402D01*
X175626000Y-104075981D01*
X175504874Y-104075981D01*
X174553079Y-103124186D01*
X174478405Y-103253526D01*
X174478403Y-103253531D01*
X174378075Y-103495744D01*
X174310222Y-103748979D01*
X174310220Y-103748990D01*
X174276000Y-104008905D01*
X171771999Y-104008905D01*
X171737779Y-103748990D01*
X171737777Y-103748979D01*
X171669924Y-103495744D01*
X171569595Y-103253528D01*
X171569590Y-103253517D01*
X171494919Y-103124185D01*
X170479106Y-104139999D01*
X170422000Y-104139999D01*
X170422000Y-104075981D01*
X170397021Y-103950402D01*
X170348022Y-103832110D01*
X170276888Y-103725649D01*
X170186351Y-103635112D01*
X170079890Y-103563978D01*
X169961598Y-103514979D01*
X169836019Y-103490000D01*
X169707981Y-103490000D01*
X169582402Y-103514979D01*
X169464110Y-103563978D01*
X169357649Y-103635112D01*
X169267112Y-103725649D01*
X169195978Y-103832110D01*
X169146979Y-103950402D01*
X169122000Y-104075981D01*
X169000875Y-104075981D01*
X168049079Y-103124186D01*
X167974405Y-103253526D01*
X167974403Y-103253531D01*
X167874075Y-103495744D01*
X167806222Y-103748979D01*
X167806220Y-103748990D01*
X167772000Y-104008905D01*
X166116000Y-104008905D01*
X166116000Y-102417079D01*
X168756186Y-102417079D01*
X169772000Y-103432893D01*
X169772001Y-103432893D01*
X170787813Y-102417079D01*
X175260186Y-102417079D01*
X176276000Y-103432893D01*
X176276001Y-103432893D01*
X177291813Y-102417080D01*
X177291812Y-102417079D01*
X177162477Y-102342407D01*
X177162468Y-102342403D01*
X176920255Y-102242075D01*
X176667020Y-102174222D01*
X176667009Y-102174220D01*
X176407094Y-102140000D01*
X176144905Y-102140000D01*
X175884990Y-102174220D01*
X175884979Y-102174222D01*
X175631744Y-102242075D01*
X175389531Y-102342403D01*
X175389526Y-102342405D01*
X175260186Y-102417079D01*
X170787813Y-102417079D01*
X170658477Y-102342407D01*
X170658468Y-102342403D01*
X170416255Y-102242075D01*
X170163020Y-102174222D01*
X170163009Y-102174220D01*
X169903094Y-102140000D01*
X169640905Y-102140000D01*
X169380990Y-102174220D01*
X169380979Y-102174222D01*
X169127744Y-102242075D01*
X168885531Y-102342403D01*
X168885526Y-102342405D01*
X168756186Y-102417079D01*
X166116000Y-102417079D01*
X166116000Y-100782919D01*
X168756185Y-100782919D01*
X168756185Y-100782920D01*
X168885517Y-100857590D01*
X168885528Y-100857595D01*
X169127744Y-100957924D01*
X169380979Y-101025777D01*
X169380990Y-101025779D01*
X169640905Y-101059999D01*
X169640920Y-101060000D01*
X169903080Y-101060000D01*
X169903094Y-101059999D01*
X170163009Y-101025779D01*
X170163020Y-101025777D01*
X170416255Y-100957924D01*
X170658471Y-100857595D01*
X170658482Y-100857590D01*
X170787813Y-100782920D01*
X170787813Y-100782919D01*
X175260185Y-100782919D01*
X175260185Y-100782920D01*
X175389517Y-100857590D01*
X175389528Y-100857595D01*
X175631744Y-100957924D01*
X175884979Y-101025777D01*
X175884990Y-101025779D01*
X176144905Y-101059999D01*
X176144920Y-101060000D01*
X176407080Y-101060000D01*
X176407094Y-101059999D01*
X176667009Y-101025779D01*
X176667020Y-101025777D01*
X176920255Y-100957924D01*
X177162471Y-100857595D01*
X177162482Y-100857590D01*
X177291813Y-100782920D01*
X177291813Y-100782919D01*
X176276001Y-99767106D01*
X176276000Y-99767106D01*
X175260185Y-100782919D01*
X170787813Y-100782919D01*
X169772001Y-99767106D01*
X169772000Y-99767106D01*
X168756185Y-100782919D01*
X166116000Y-100782919D01*
X166116000Y-98928905D01*
X167772000Y-98928905D01*
X167772000Y-99191094D01*
X167806220Y-99451009D01*
X167806222Y-99451020D01*
X167874075Y-99704255D01*
X167974403Y-99946468D01*
X167974407Y-99946477D01*
X168049079Y-100075812D01*
X168049080Y-100075813D01*
X169064893Y-99060000D01*
X169064893Y-99059999D01*
X169000875Y-98995981D01*
X169122000Y-98995981D01*
X169122000Y-99124019D01*
X169146979Y-99249598D01*
X169195978Y-99367890D01*
X169267112Y-99474351D01*
X169357649Y-99564888D01*
X169464110Y-99636022D01*
X169582402Y-99685021D01*
X169707981Y-99710000D01*
X169836019Y-99710000D01*
X169961598Y-99685021D01*
X170079890Y-99636022D01*
X170186351Y-99564888D01*
X170276888Y-99474351D01*
X170348022Y-99367890D01*
X170397021Y-99249598D01*
X170422000Y-99124019D01*
X170422000Y-99059999D01*
X170479106Y-99059999D01*
X170479106Y-99060000D01*
X171494919Y-100075813D01*
X171494920Y-100075813D01*
X171569590Y-99946482D01*
X171569595Y-99946471D01*
X171669924Y-99704255D01*
X171737777Y-99451020D01*
X171737779Y-99451009D01*
X171771999Y-99191094D01*
X171772000Y-99191080D01*
X171772000Y-98928919D01*
X171771999Y-98928905D01*
X174276000Y-98928905D01*
X174276000Y-99191094D01*
X174310220Y-99451009D01*
X174310222Y-99451020D01*
X174378075Y-99704255D01*
X174478403Y-99946468D01*
X174478407Y-99946477D01*
X174553079Y-100075812D01*
X174553080Y-100075813D01*
X175568893Y-99060000D01*
X175504874Y-98995981D01*
X175626000Y-98995981D01*
X175626000Y-99124019D01*
X175650979Y-99249598D01*
X175699978Y-99367890D01*
X175771112Y-99474351D01*
X175861649Y-99564888D01*
X175968110Y-99636022D01*
X176086402Y-99685021D01*
X176211981Y-99710000D01*
X176340019Y-99710000D01*
X176465598Y-99685021D01*
X176583890Y-99636022D01*
X176690351Y-99564888D01*
X176780888Y-99474351D01*
X176852022Y-99367890D01*
X176901021Y-99249598D01*
X176926000Y-99124019D01*
X176926000Y-99059999D01*
X176983106Y-99059999D01*
X176983106Y-99060000D01*
X177998919Y-100075813D01*
X177998920Y-100075813D01*
X178073590Y-99946482D01*
X178073595Y-99946471D01*
X178173924Y-99704255D01*
X178241777Y-99451020D01*
X178241779Y-99451009D01*
X178275999Y-99191094D01*
X178276000Y-99191080D01*
X178276000Y-98928919D01*
X178275999Y-98928905D01*
X178241779Y-98668990D01*
X178241777Y-98668979D01*
X178173924Y-98415744D01*
X178073595Y-98173528D01*
X178073590Y-98173517D01*
X177998919Y-98044185D01*
X176983106Y-99059999D01*
X176926000Y-99059999D01*
X176926000Y-98995981D01*
X176901021Y-98870402D01*
X176852022Y-98752110D01*
X176780888Y-98645649D01*
X176690351Y-98555112D01*
X176583890Y-98483978D01*
X176465598Y-98434979D01*
X176340019Y-98410000D01*
X176211981Y-98410000D01*
X176086402Y-98434979D01*
X175968110Y-98483978D01*
X175861649Y-98555112D01*
X175771112Y-98645649D01*
X175699978Y-98752110D01*
X175650979Y-98870402D01*
X175626000Y-98995981D01*
X175504874Y-98995981D01*
X174553079Y-98044186D01*
X174478405Y-98173526D01*
X174478403Y-98173531D01*
X174378075Y-98415744D01*
X174310222Y-98668979D01*
X174310220Y-98668990D01*
X174276000Y-98928905D01*
X171771999Y-98928905D01*
X171737779Y-98668990D01*
X171737777Y-98668979D01*
X171669924Y-98415744D01*
X171569595Y-98173528D01*
X171569590Y-98173517D01*
X171494919Y-98044185D01*
X170479106Y-99059999D01*
X170422000Y-99059999D01*
X170422000Y-98995981D01*
X170397021Y-98870402D01*
X170348022Y-98752110D01*
X170276888Y-98645649D01*
X170186351Y-98555112D01*
X170079890Y-98483978D01*
X169961598Y-98434979D01*
X169836019Y-98410000D01*
X169707981Y-98410000D01*
X169582402Y-98434979D01*
X169464110Y-98483978D01*
X169357649Y-98555112D01*
X169267112Y-98645649D01*
X169195978Y-98752110D01*
X169146979Y-98870402D01*
X169122000Y-98995981D01*
X169000875Y-98995981D01*
X168049079Y-98044186D01*
X167974405Y-98173526D01*
X167974403Y-98173531D01*
X167874075Y-98415744D01*
X167806222Y-98668979D01*
X167806220Y-98668990D01*
X167772000Y-98928905D01*
X166116000Y-98928905D01*
X166116000Y-98507480D01*
X166116195Y-98500528D01*
X166124486Y-98352893D01*
X166134473Y-98175048D01*
X166136027Y-98161253D01*
X166190049Y-97843299D01*
X166193143Y-97829747D01*
X166282423Y-97519851D01*
X166287016Y-97506727D01*
X166305820Y-97461329D01*
X166357285Y-97337079D01*
X168756186Y-97337079D01*
X169772000Y-98352893D01*
X169772001Y-98352893D01*
X170787813Y-97337079D01*
X175260186Y-97337079D01*
X176276000Y-98352893D01*
X176276001Y-98352893D01*
X177291813Y-97337080D01*
X177291812Y-97337079D01*
X177162477Y-97262407D01*
X177162468Y-97262403D01*
X176920255Y-97162075D01*
X176667020Y-97094222D01*
X176667009Y-97094220D01*
X176407094Y-97060000D01*
X176144905Y-97060000D01*
X175884990Y-97094220D01*
X175884979Y-97094222D01*
X175631744Y-97162075D01*
X175389531Y-97262403D01*
X175389526Y-97262405D01*
X175260186Y-97337079D01*
X170787813Y-97337079D01*
X170658477Y-97262407D01*
X170658468Y-97262403D01*
X170416255Y-97162075D01*
X170163020Y-97094222D01*
X170163009Y-97094220D01*
X169903094Y-97060000D01*
X169640905Y-97060000D01*
X169380990Y-97094220D01*
X169380979Y-97094222D01*
X169127744Y-97162075D01*
X168885531Y-97262403D01*
X168885526Y-97262405D01*
X168756186Y-97337079D01*
X166357285Y-97337079D01*
X166410430Y-97208775D01*
X166416452Y-97196269D01*
X166572467Y-96913983D01*
X166579854Y-96902228D01*
X166766482Y-96639201D01*
X166775128Y-96628358D01*
X166990049Y-96387861D01*
X166999861Y-96378049D01*
X167240358Y-96163128D01*
X167251201Y-96154482D01*
X167514228Y-95967854D01*
X167525983Y-95960467D01*
X167808269Y-95804452D01*
X167820775Y-95798430D01*
X168118727Y-95675016D01*
X168131847Y-95670424D01*
X168441753Y-95581141D01*
X168455299Y-95578049D01*
X168773253Y-95524027D01*
X168787048Y-95522473D01*
X169075283Y-95506286D01*
X169112529Y-95504195D01*
X169119481Y-95504000D01*
X177590519Y-95504000D01*
X177597471Y-95504195D01*
G37*
%TD.AperFunction*%
%TD*%
%TA.AperFunction,Conductor*%
%TO.N,/V+*%
G36*
X177597471Y-64770195D02*
G01*
X177638136Y-64772478D01*
X177922949Y-64788473D01*
X177936748Y-64790027D01*
X178254695Y-64844049D01*
X178268252Y-64847143D01*
X178578148Y-64936423D01*
X178591272Y-64941016D01*
X178889215Y-65064427D01*
X178901737Y-65070456D01*
X179184006Y-65226461D01*
X179195779Y-65233859D01*
X179458789Y-65420475D01*
X179469649Y-65429135D01*
X179710127Y-65644039D01*
X179719960Y-65653872D01*
X179934859Y-65894344D01*
X179943528Y-65905216D01*
X180130139Y-66168219D01*
X180137538Y-66179993D01*
X180293539Y-66462255D01*
X180299572Y-66474784D01*
X180422983Y-66772727D01*
X180427576Y-66785851D01*
X180516856Y-67095747D01*
X180519950Y-67109304D01*
X180573970Y-67427240D01*
X180575527Y-67441058D01*
X180593805Y-67766527D01*
X180594000Y-67773480D01*
X180594000Y-74466519D01*
X180593805Y-74473472D01*
X180575527Y-74798941D01*
X180573970Y-74812759D01*
X180519950Y-75130695D01*
X180516856Y-75144252D01*
X180427576Y-75454148D01*
X180422983Y-75467272D01*
X180299572Y-75765215D01*
X180293539Y-75777744D01*
X180137538Y-76060006D01*
X180130139Y-76071780D01*
X179943528Y-76334783D01*
X179934859Y-76345655D01*
X179719960Y-76586127D01*
X179710127Y-76595960D01*
X179469655Y-76810859D01*
X179458783Y-76819528D01*
X179195780Y-77006139D01*
X179184006Y-77013538D01*
X178901744Y-77169539D01*
X178889215Y-77175572D01*
X178591272Y-77298983D01*
X178578148Y-77303576D01*
X178268252Y-77392856D01*
X178254695Y-77395950D01*
X177936759Y-77449970D01*
X177922941Y-77451527D01*
X177597472Y-77469805D01*
X177590519Y-77470000D01*
X169119481Y-77470000D01*
X169112528Y-77469805D01*
X168787058Y-77451527D01*
X168773240Y-77449970D01*
X168455304Y-77395950D01*
X168441747Y-77392856D01*
X168131851Y-77303576D01*
X168118727Y-77298983D01*
X167820784Y-77175572D01*
X167808255Y-77169539D01*
X167525993Y-77013538D01*
X167514219Y-77006139D01*
X167251216Y-76819528D01*
X167240344Y-76810859D01*
X166999872Y-76595960D01*
X166990039Y-76586127D01*
X166775140Y-76345655D01*
X166766475Y-76334789D01*
X166579859Y-76071779D01*
X166572461Y-76060006D01*
X166416460Y-75777744D01*
X166410427Y-75765215D01*
X166287016Y-75467272D01*
X166282423Y-75454148D01*
X166193143Y-75144252D01*
X166190049Y-75130693D01*
X166189748Y-75128919D01*
X168756185Y-75128919D01*
X168756185Y-75128920D01*
X168885517Y-75203590D01*
X168885528Y-75203595D01*
X169127744Y-75303924D01*
X169380979Y-75371777D01*
X169380990Y-75371779D01*
X169640905Y-75405999D01*
X169640920Y-75406000D01*
X169903080Y-75406000D01*
X169903094Y-75405999D01*
X170163009Y-75371779D01*
X170163020Y-75371777D01*
X170416255Y-75303924D01*
X170658471Y-75203595D01*
X170658482Y-75203590D01*
X170787813Y-75128920D01*
X170787813Y-75128919D01*
X175260185Y-75128919D01*
X175260185Y-75128920D01*
X175389517Y-75203590D01*
X175389528Y-75203595D01*
X175631744Y-75303924D01*
X175884979Y-75371777D01*
X175884990Y-75371779D01*
X176144905Y-75405999D01*
X176144920Y-75406000D01*
X176407080Y-75406000D01*
X176407094Y-75405999D01*
X176667009Y-75371779D01*
X176667020Y-75371777D01*
X176920255Y-75303924D01*
X177162471Y-75203595D01*
X177162482Y-75203590D01*
X177291813Y-75128920D01*
X177291813Y-75128919D01*
X176276001Y-74113106D01*
X176276000Y-74113106D01*
X175260185Y-75128919D01*
X170787813Y-75128919D01*
X169772001Y-74113106D01*
X169772000Y-74113106D01*
X168756185Y-75128919D01*
X166189748Y-75128919D01*
X166185726Y-75105247D01*
X166158392Y-74944379D01*
X166136027Y-74812748D01*
X166134473Y-74798949D01*
X166116195Y-74473471D01*
X166116000Y-74466519D01*
X166116000Y-73274905D01*
X167772000Y-73274905D01*
X167772000Y-73537094D01*
X167806220Y-73797009D01*
X167806222Y-73797020D01*
X167874075Y-74050255D01*
X167974403Y-74292468D01*
X167974407Y-74292477D01*
X168049079Y-74421812D01*
X168049080Y-74421813D01*
X169064893Y-73406000D01*
X169064893Y-73405999D01*
X169000875Y-73341981D01*
X169122000Y-73341981D01*
X169122000Y-73470019D01*
X169146979Y-73595598D01*
X169195978Y-73713890D01*
X169267112Y-73820351D01*
X169357649Y-73910888D01*
X169464110Y-73982022D01*
X169582402Y-74031021D01*
X169707981Y-74056000D01*
X169836019Y-74056000D01*
X169961598Y-74031021D01*
X170079890Y-73982022D01*
X170186351Y-73910888D01*
X170276888Y-73820351D01*
X170348022Y-73713890D01*
X170397021Y-73595598D01*
X170422000Y-73470019D01*
X170422000Y-73405999D01*
X170479106Y-73405999D01*
X170479106Y-73406000D01*
X171494919Y-74421813D01*
X171494920Y-74421813D01*
X171569590Y-74292482D01*
X171569595Y-74292471D01*
X171669924Y-74050255D01*
X171737777Y-73797020D01*
X171737779Y-73797009D01*
X171771999Y-73537094D01*
X171772000Y-73537080D01*
X171772000Y-73274919D01*
X171771999Y-73274905D01*
X174276000Y-73274905D01*
X174276000Y-73537094D01*
X174310220Y-73797009D01*
X174310222Y-73797020D01*
X174378075Y-74050255D01*
X174478403Y-74292468D01*
X174478407Y-74292477D01*
X174553079Y-74421812D01*
X174553080Y-74421813D01*
X175568893Y-73406000D01*
X175504874Y-73341981D01*
X175626000Y-73341981D01*
X175626000Y-73470019D01*
X175650979Y-73595598D01*
X175699978Y-73713890D01*
X175771112Y-73820351D01*
X175861649Y-73910888D01*
X175968110Y-73982022D01*
X176086402Y-74031021D01*
X176211981Y-74056000D01*
X176340019Y-74056000D01*
X176465598Y-74031021D01*
X176583890Y-73982022D01*
X176690351Y-73910888D01*
X176780888Y-73820351D01*
X176852022Y-73713890D01*
X176901021Y-73595598D01*
X176926000Y-73470019D01*
X176926000Y-73405999D01*
X176983106Y-73405999D01*
X176983106Y-73406000D01*
X177998919Y-74421813D01*
X177998920Y-74421813D01*
X178073590Y-74292482D01*
X178073595Y-74292471D01*
X178173924Y-74050255D01*
X178241777Y-73797020D01*
X178241779Y-73797009D01*
X178275999Y-73537094D01*
X178276000Y-73537080D01*
X178276000Y-73274919D01*
X178275999Y-73274905D01*
X178241779Y-73014990D01*
X178241777Y-73014979D01*
X178173924Y-72761744D01*
X178073595Y-72519528D01*
X178073590Y-72519517D01*
X177998919Y-72390185D01*
X176983106Y-73405999D01*
X176926000Y-73405999D01*
X176926000Y-73341981D01*
X176901021Y-73216402D01*
X176852022Y-73098110D01*
X176780888Y-72991649D01*
X176690351Y-72901112D01*
X176583890Y-72829978D01*
X176465598Y-72780979D01*
X176340019Y-72756000D01*
X176211981Y-72756000D01*
X176086402Y-72780979D01*
X175968110Y-72829978D01*
X175861649Y-72901112D01*
X175771112Y-72991649D01*
X175699978Y-73098110D01*
X175650979Y-73216402D01*
X175626000Y-73341981D01*
X175504874Y-73341981D01*
X174553079Y-72390186D01*
X174478405Y-72519526D01*
X174478403Y-72519531D01*
X174378075Y-72761744D01*
X174310222Y-73014979D01*
X174310220Y-73014990D01*
X174276000Y-73274905D01*
X171771999Y-73274905D01*
X171737779Y-73014990D01*
X171737777Y-73014979D01*
X171669924Y-72761744D01*
X171569595Y-72519528D01*
X171569590Y-72519517D01*
X171494919Y-72390185D01*
X170479106Y-73405999D01*
X170422000Y-73405999D01*
X170422000Y-73341981D01*
X170397021Y-73216402D01*
X170348022Y-73098110D01*
X170276888Y-72991649D01*
X170186351Y-72901112D01*
X170079890Y-72829978D01*
X169961598Y-72780979D01*
X169836019Y-72756000D01*
X169707981Y-72756000D01*
X169582402Y-72780979D01*
X169464110Y-72829978D01*
X169357649Y-72901112D01*
X169267112Y-72991649D01*
X169195978Y-73098110D01*
X169146979Y-73216402D01*
X169122000Y-73341981D01*
X169000875Y-73341981D01*
X168049079Y-72390186D01*
X167974405Y-72519526D01*
X167974403Y-72519531D01*
X167874075Y-72761744D01*
X167806222Y-73014979D01*
X167806220Y-73014990D01*
X167772000Y-73274905D01*
X166116000Y-73274905D01*
X166116000Y-71683079D01*
X168756186Y-71683079D01*
X169772000Y-72698893D01*
X169772001Y-72698893D01*
X170787813Y-71683079D01*
X175260186Y-71683079D01*
X176276000Y-72698893D01*
X176276001Y-72698893D01*
X177291813Y-71683080D01*
X177291812Y-71683079D01*
X177162477Y-71608407D01*
X177162468Y-71608403D01*
X176920255Y-71508075D01*
X176667020Y-71440222D01*
X176667009Y-71440220D01*
X176407094Y-71406000D01*
X176144905Y-71406000D01*
X175884990Y-71440220D01*
X175884979Y-71440222D01*
X175631744Y-71508075D01*
X175389531Y-71608403D01*
X175389526Y-71608405D01*
X175260186Y-71683079D01*
X170787813Y-71683079D01*
X170658477Y-71608407D01*
X170658468Y-71608403D01*
X170416255Y-71508075D01*
X170163020Y-71440222D01*
X170163009Y-71440220D01*
X169903094Y-71406000D01*
X169640905Y-71406000D01*
X169380990Y-71440220D01*
X169380979Y-71440222D01*
X169127744Y-71508075D01*
X168885531Y-71608403D01*
X168885526Y-71608405D01*
X168756186Y-71683079D01*
X166116000Y-71683079D01*
X166116000Y-70048919D01*
X168756185Y-70048919D01*
X168756185Y-70048920D01*
X168885517Y-70123590D01*
X168885528Y-70123595D01*
X169127744Y-70223924D01*
X169380979Y-70291777D01*
X169380990Y-70291779D01*
X169640905Y-70325999D01*
X169640920Y-70326000D01*
X169903080Y-70326000D01*
X169903094Y-70325999D01*
X170163009Y-70291779D01*
X170163020Y-70291777D01*
X170416255Y-70223924D01*
X170658471Y-70123595D01*
X170658482Y-70123590D01*
X170787813Y-70048920D01*
X170787813Y-70048919D01*
X175260185Y-70048919D01*
X175260185Y-70048920D01*
X175389517Y-70123590D01*
X175389528Y-70123595D01*
X175631744Y-70223924D01*
X175884979Y-70291777D01*
X175884990Y-70291779D01*
X176144905Y-70325999D01*
X176144920Y-70326000D01*
X176407080Y-70326000D01*
X176407094Y-70325999D01*
X176667009Y-70291779D01*
X176667020Y-70291777D01*
X176920255Y-70223924D01*
X177162471Y-70123595D01*
X177162482Y-70123590D01*
X177291813Y-70048920D01*
X177291813Y-70048919D01*
X176276001Y-69033106D01*
X176276000Y-69033106D01*
X175260185Y-70048919D01*
X170787813Y-70048919D01*
X169772001Y-69033106D01*
X169772000Y-69033106D01*
X168756185Y-70048919D01*
X166116000Y-70048919D01*
X166116000Y-68194905D01*
X167772000Y-68194905D01*
X167772000Y-68457094D01*
X167806220Y-68717009D01*
X167806222Y-68717020D01*
X167874075Y-68970255D01*
X167974403Y-69212468D01*
X167974407Y-69212477D01*
X168049079Y-69341812D01*
X168049080Y-69341813D01*
X169064893Y-68326000D01*
X169064893Y-68325999D01*
X169000875Y-68261981D01*
X169122000Y-68261981D01*
X169122000Y-68390019D01*
X169146979Y-68515598D01*
X169195978Y-68633890D01*
X169267112Y-68740351D01*
X169357649Y-68830888D01*
X169464110Y-68902022D01*
X169582402Y-68951021D01*
X169707981Y-68976000D01*
X169836019Y-68976000D01*
X169961598Y-68951021D01*
X170079890Y-68902022D01*
X170186351Y-68830888D01*
X170276888Y-68740351D01*
X170348022Y-68633890D01*
X170397021Y-68515598D01*
X170422000Y-68390019D01*
X170422000Y-68325999D01*
X170479106Y-68325999D01*
X170479106Y-68326000D01*
X171494919Y-69341813D01*
X171494920Y-69341813D01*
X171569590Y-69212482D01*
X171569595Y-69212471D01*
X171669924Y-68970255D01*
X171737777Y-68717020D01*
X171737779Y-68717009D01*
X171771999Y-68457094D01*
X171772000Y-68457080D01*
X171772000Y-68194919D01*
X171771999Y-68194905D01*
X174276000Y-68194905D01*
X174276000Y-68457094D01*
X174310220Y-68717009D01*
X174310222Y-68717020D01*
X174378075Y-68970255D01*
X174478403Y-69212468D01*
X174478407Y-69212477D01*
X174553079Y-69341812D01*
X174553080Y-69341813D01*
X175568893Y-68326000D01*
X175504874Y-68261981D01*
X175626000Y-68261981D01*
X175626000Y-68390019D01*
X175650979Y-68515598D01*
X175699978Y-68633890D01*
X175771112Y-68740351D01*
X175861649Y-68830888D01*
X175968110Y-68902022D01*
X176086402Y-68951021D01*
X176211981Y-68976000D01*
X176340019Y-68976000D01*
X176465598Y-68951021D01*
X176583890Y-68902022D01*
X176690351Y-68830888D01*
X176780888Y-68740351D01*
X176852022Y-68633890D01*
X176901021Y-68515598D01*
X176926000Y-68390019D01*
X176926000Y-68325999D01*
X176983106Y-68325999D01*
X176983106Y-68326000D01*
X177998919Y-69341813D01*
X177998920Y-69341813D01*
X178073590Y-69212482D01*
X178073595Y-69212471D01*
X178173924Y-68970255D01*
X178241777Y-68717020D01*
X178241779Y-68717009D01*
X178275999Y-68457094D01*
X178276000Y-68457080D01*
X178276000Y-68194919D01*
X178275999Y-68194905D01*
X178241779Y-67934990D01*
X178241777Y-67934979D01*
X178173924Y-67681744D01*
X178073595Y-67439528D01*
X178073590Y-67439517D01*
X177998919Y-67310185D01*
X176983106Y-68325999D01*
X176926000Y-68325999D01*
X176926000Y-68261981D01*
X176901021Y-68136402D01*
X176852022Y-68018110D01*
X176780888Y-67911649D01*
X176690351Y-67821112D01*
X176583890Y-67749978D01*
X176465598Y-67700979D01*
X176340019Y-67676000D01*
X176211981Y-67676000D01*
X176086402Y-67700979D01*
X175968110Y-67749978D01*
X175861649Y-67821112D01*
X175771112Y-67911649D01*
X175699978Y-68018110D01*
X175650979Y-68136402D01*
X175626000Y-68261981D01*
X175504874Y-68261981D01*
X174553079Y-67310186D01*
X174478405Y-67439526D01*
X174478403Y-67439531D01*
X174378075Y-67681744D01*
X174310222Y-67934979D01*
X174310220Y-67934990D01*
X174276000Y-68194905D01*
X171771999Y-68194905D01*
X171737779Y-67934990D01*
X171737777Y-67934979D01*
X171669924Y-67681744D01*
X171569595Y-67439528D01*
X171569590Y-67439517D01*
X171494919Y-67310185D01*
X170479106Y-68325999D01*
X170422000Y-68325999D01*
X170422000Y-68261981D01*
X170397021Y-68136402D01*
X170348022Y-68018110D01*
X170276888Y-67911649D01*
X170186351Y-67821112D01*
X170079890Y-67749978D01*
X169961598Y-67700979D01*
X169836019Y-67676000D01*
X169707981Y-67676000D01*
X169582402Y-67700979D01*
X169464110Y-67749978D01*
X169357649Y-67821112D01*
X169267112Y-67911649D01*
X169195978Y-68018110D01*
X169146979Y-68136402D01*
X169122000Y-68261981D01*
X169000875Y-68261981D01*
X168049079Y-67310186D01*
X167974405Y-67439526D01*
X167974403Y-67439531D01*
X167874075Y-67681744D01*
X167806222Y-67934979D01*
X167806220Y-67934990D01*
X167772000Y-68194905D01*
X166116000Y-68194905D01*
X166116000Y-67773480D01*
X166116195Y-67766528D01*
X166124486Y-67618893D01*
X166134473Y-67441048D01*
X166136027Y-67427253D01*
X166190049Y-67109299D01*
X166193143Y-67095747D01*
X166282423Y-66785851D01*
X166287016Y-66772727D01*
X166305820Y-66727329D01*
X166357285Y-66603079D01*
X168756186Y-66603079D01*
X169772000Y-67618893D01*
X169772001Y-67618893D01*
X170787813Y-66603079D01*
X175260186Y-66603079D01*
X176276000Y-67618893D01*
X176276001Y-67618893D01*
X177291813Y-66603080D01*
X177291812Y-66603079D01*
X177162477Y-66528407D01*
X177162468Y-66528403D01*
X176920255Y-66428075D01*
X176667020Y-66360222D01*
X176667009Y-66360220D01*
X176407094Y-66326000D01*
X176144905Y-66326000D01*
X175884990Y-66360220D01*
X175884979Y-66360222D01*
X175631744Y-66428075D01*
X175389531Y-66528403D01*
X175389526Y-66528405D01*
X175260186Y-66603079D01*
X170787813Y-66603079D01*
X170658477Y-66528407D01*
X170658468Y-66528403D01*
X170416255Y-66428075D01*
X170163020Y-66360222D01*
X170163009Y-66360220D01*
X169903094Y-66326000D01*
X169640905Y-66326000D01*
X169380990Y-66360220D01*
X169380979Y-66360222D01*
X169127744Y-66428075D01*
X168885531Y-66528403D01*
X168885526Y-66528405D01*
X168756186Y-66603079D01*
X166357285Y-66603079D01*
X166410430Y-66474775D01*
X166416452Y-66462269D01*
X166572467Y-66179983D01*
X166579854Y-66168228D01*
X166766482Y-65905201D01*
X166775128Y-65894358D01*
X166990049Y-65653861D01*
X166999861Y-65644049D01*
X167240358Y-65429128D01*
X167251201Y-65420482D01*
X167514228Y-65233854D01*
X167525983Y-65226467D01*
X167808269Y-65070452D01*
X167820775Y-65064430D01*
X168118727Y-64941016D01*
X168131847Y-64936424D01*
X168441753Y-64847141D01*
X168455299Y-64844049D01*
X168773253Y-64790027D01*
X168787048Y-64788473D01*
X169075283Y-64772286D01*
X169112529Y-64770195D01*
X169119481Y-64770000D01*
X177590519Y-64770000D01*
X177597471Y-64770195D01*
G37*
%TD.AperFunction*%
%TD*%
M02*
