M48
; DRILL file {KiCad 9.0.6} date 2025-11-16T15:46:10-0500
; FORMAT={-:-/ absolute / inch / decimal}
; #@! TF.CreationDate,2025-11-16T15:46:10-05:00
; #@! TF.GenerationSoftware,Kicad,Pcbnew,9.0.6
; #@! TF.FileFunction,Plated,1,2,PTH
FMAT,2
INCH
; #@! TA.AperFunction,Plated,PTH,ComponentDrill
T1C0.0236
; #@! TA.AperFunction,Plated,PTH,ComponentDrill
T2C0.0276
; #@! TA.AperFunction,Plated,PTH,ComponentDrill
T3C0.0315
; #@! TA.AperFunction,Plated,PTH,ComponentDrill
T4C0.0433
; #@! TA.AperFunction,Plated,PTH,ComponentDrill
T5C0.0472
; #@! TA.AperFunction,Plated,PTH,ComponentDrill
T6C0.0512
; #@! TA.AperFunction,Plated,PTH,ComponentDrill
T7C0.0591
; #@! TA.AperFunction,Plated,PTH,ComponentDrill
T8C0.0630
%
G90
G05
T1
X6.3696Y-2.54
X6.4013Y-4.27
X6.4483Y-2.54
X6.48Y-4.27
T2
X6.14Y-2.1
X6.14Y-2.4
X6.15Y-4.43
X6.15Y-4.73
X6.47Y-2.11
X6.47Y-2.41
X6.54Y-4.43
X6.54Y-4.73
T3
X5.94Y-2.15
X5.94Y-2.25
X5.94Y-2.35
X5.96Y-4.46
X5.96Y-4.56
X5.96Y-4.66
T4
X6.21Y-1.9574
X6.21Y-4.8326
X6.31Y-1.9574
X6.31Y-4.8326
X6.41Y-1.9574
X6.41Y-4.8326
T5
X4.5Y-2.0347
X4.5Y-2.33
X4.5Y-2.8447
X4.5Y-3.14
X4.5Y-3.6647
X4.5Y-3.96
X4.5Y-4.4716
X4.5Y-4.7669
X5.32Y-2.0447
X5.32Y-2.34
X5.32Y-2.8447
X5.32Y-3.14
X5.32Y-3.66
X5.32Y-3.9553
X5.33Y-4.4716
X5.33Y-4.7669
X6.13Y-2.84
X6.13Y-3.1353
X6.13Y-3.6647
X6.13Y-3.96
T6
X2.89Y-3.35
X2.89Y-3.55
X3.14Y-4.36
X3.17Y-2.49
X3.34Y-4.36
X3.37Y-2.49
X6.6839Y-2.69
X6.6839Y-2.89
X6.6839Y-3.3
X6.6839Y-3.5
X6.6839Y-3.9
X6.6839Y-4.1
X6.94Y-2.69
X6.94Y-2.89
X6.94Y-3.3
X6.94Y-3.5
X6.94Y-3.9
X6.94Y-4.1
X7.282Y-3.3016
X7.282Y-3.4984
T7
X6.6954Y-2.2819
X6.6954Y-4.5481
X6.91Y-2.2819
X6.91Y-4.5481
X7.1246Y-2.2819
X7.1246Y-4.5481
T8
X3.27Y-2.75
X3.27Y-3.25
X3.27Y-3.55
X3.27Y-4.05
X3.85Y-2.75
X3.85Y-3.25
X3.85Y-3.55
X3.85Y-4.05
M30
