%TF.GenerationSoftware,KiCad,Pcbnew,9.0.6*%
%TF.CreationDate,2025-11-16T15:46:06-05:00*%
%TF.ProjectId,power_supply,706f7765-725f-4737-9570-706c792e6b69,rev?*%
%TF.SameCoordinates,Original*%
%TF.FileFunction,Soldermask,Top*%
%TF.FilePolarity,Negative*%
%FSLAX46Y46*%
G04 Gerber Fmt 4.6, Leading zero omitted, Abs format (unit mm)*
G04 Created by KiCad (PCBNEW 9.0.6) date 2025-11-16 15:46:06*
%MOMM*%
%LPD*%
G01*
G04 APERTURE LIST*
G04 Aperture macros list*
%AMRoundRect*
0 Rectangle with rounded corners*
0 $1 Rounding radius*
0 $2 $3 $4 $5 $6 $7 $8 $9 X,Y pos of 4 corners*
0 Add a 4 corners polygon primitive as box body*
4,1,4,$2,$3,$4,$5,$6,$7,$8,$9,$2,$3,0*
0 Add four circle primitives for the rounded corners*
1,1,$1+$1,$2,$3*
1,1,$1+$1,$4,$5*
1,1,$1+$1,$6,$7*
1,1,$1+$1,$8,$9*
0 Add four rect primitives between the rounded corners*
20,1,$1+$1,$2,$3,$4,$5,0*
20,1,$1+$1,$4,$5,$6,$7,0*
20,1,$1+$1,$6,$7,$8,$9,0*
20,1,$1+$1,$8,$9,$2,$3,0*%
G04 Aperture macros list end*
%ADD10C,3.600000*%
%ADD11R,2.500000X4.500000*%
%ADD12O,2.500000X4.500000*%
%ADD13RoundRect,0.250001X0.949999X-0.949999X0.949999X0.949999X-0.949999X0.949999X-0.949999X-0.949999X0*%
%ADD14C,2.400000*%
%ADD15C,3.200000*%
%ADD16C,1.400000*%
%ADD17C,3.000000*%
%ADD18C,1.512000*%
%ADD19R,2.400000X2.400000*%
%ADD20R,3.200000X3.200000*%
%ADD21O,3.200000X3.200000*%
%ADD22RoundRect,0.250000X0.350000X0.350000X-0.350000X0.350000X-0.350000X-0.350000X0.350000X-0.350000X0*%
%ADD23C,1.200000*%
%ADD24R,1.905000X2.000000*%
%ADD25O,1.905000X2.000000*%
%ADD26R,2.600000X2.600000*%
%ADD27C,2.600000*%
G04 APERTURE END LIST*
D10*
%TO.C,Q2*%
X175514000Y-135382000D03*
D11*
X180964000Y-115522000D03*
D12*
X175514000Y-115522000D03*
X170064000Y-115522000D03*
%TD*%
D13*
%TO.C,C13*%
X114300000Y-59182000D03*
D14*
X114300000Y-51682000D03*
%TD*%
D15*
%TO.C,H4*%
X187960000Y-124460000D03*
%TD*%
D16*
%TO.C,R4*%
X156210000Y-120142000D03*
X156210000Y-112522000D03*
%TD*%
D17*
%TO.C,J5*%
X169772000Y-104140000D03*
X169772000Y-99060000D03*
%TD*%
D16*
%TO.C,R3*%
X166116000Y-112522000D03*
X166116000Y-120142000D03*
%TD*%
D18*
%TO.C,RV2*%
X151384000Y-113284000D03*
X151384000Y-115824000D03*
X151384000Y-118364000D03*
%TD*%
D19*
%TO.C,C2*%
X114300000Y-93084000D03*
D14*
X114300000Y-100584000D03*
%TD*%
D16*
%TO.C,R2*%
X155956000Y-53340000D03*
X155956000Y-60960000D03*
%TD*%
D15*
%TO.C,H1*%
X66040000Y-48768000D03*
%TD*%
D20*
%TO.C,D4*%
X97790000Y-90170000D03*
D21*
X97790000Y-102870000D03*
%TD*%
D13*
%TO.C,C12*%
X135382000Y-121079780D03*
D14*
X135382000Y-113579780D03*
%TD*%
D22*
%TO.C,C10*%
X164592000Y-108458000D03*
D23*
X162592000Y-108458000D03*
%TD*%
D19*
%TO.C,C5*%
X135128000Y-72256000D03*
D14*
X135128000Y-79756000D03*
%TD*%
D17*
%TO.C,J3*%
X176276000Y-88900000D03*
X176276000Y-83820000D03*
%TD*%
D20*
%TO.C,D3*%
X83058000Y-69850000D03*
D21*
X83058000Y-82550000D03*
%TD*%
D17*
%TO.C,J1*%
X79756000Y-110744000D03*
X84836000Y-110744000D03*
%TD*%
D15*
%TO.C,H3*%
X66294000Y-124460000D03*
%TD*%
D24*
%TO.C,U2*%
X162814000Y-122748000D03*
D25*
X160274000Y-122748000D03*
X157734000Y-122748000D03*
%TD*%
D10*
%TO.C,Q1*%
X175514000Y-38100000D03*
D11*
X170064000Y-57960000D03*
D12*
X175514000Y-57960000D03*
X180964000Y-57960000D03*
%TD*%
D24*
%TO.C,U1*%
X157734000Y-49718000D03*
D25*
X160274000Y-49718000D03*
X162814000Y-49718000D03*
%TD*%
D16*
%TO.C,R1*%
X164338000Y-61214000D03*
X164338000Y-53594000D03*
%TD*%
D13*
%TO.C,C11*%
X135128000Y-59436000D03*
D14*
X135128000Y-51936000D03*
%TD*%
D19*
%TO.C,C8*%
X155702000Y-93084000D03*
D14*
X155702000Y-100584000D03*
%TD*%
D19*
%TO.C,C7*%
X155702000Y-72136000D03*
D14*
X155702000Y-79636000D03*
%TD*%
D19*
%TO.C,C1*%
X114300000Y-72256000D03*
D14*
X114300000Y-79756000D03*
%TD*%
D26*
%TO.C,J7*%
X184963000Y-88860000D03*
D27*
X184963000Y-83860000D03*
%TD*%
D22*
%TO.C,C9*%
X163786600Y-64516000D03*
D23*
X161786600Y-64516000D03*
%TD*%
D17*
%TO.C,J6*%
X169772000Y-73406000D03*
X169772000Y-68326000D03*
%TD*%
D13*
%TO.C,C14*%
X114300000Y-121079780D03*
D14*
X114300000Y-113579780D03*
%TD*%
D17*
%TO.C,J4*%
X80518000Y-63246000D03*
X85598000Y-63246000D03*
%TD*%
D19*
%TO.C,C6*%
X135128000Y-92964000D03*
D14*
X135128000Y-100464000D03*
%TD*%
D17*
%TO.C,J6*%
X176276000Y-73406000D03*
X176276000Y-68326000D03*
%TD*%
D20*
%TO.C,D1*%
X97790000Y-69850000D03*
D21*
X97790000Y-82550000D03*
%TD*%
D17*
%TO.C,J5*%
X176276000Y-104140000D03*
X176276000Y-99060000D03*
%TD*%
%TO.C,J2*%
X73406000Y-90170000D03*
X73406000Y-85090000D03*
%TD*%
D20*
%TO.C,D2*%
X83058000Y-90170000D03*
D21*
X83058000Y-102870000D03*
%TD*%
D17*
%TO.C,J3*%
X169772000Y-88900000D03*
X169772000Y-83820000D03*
%TD*%
D18*
%TO.C,RV1*%
X150876000Y-54610000D03*
X150876000Y-57150000D03*
X150876000Y-59690000D03*
%TD*%
D15*
%TO.C,H2*%
X188214000Y-48768000D03*
%TD*%
M02*
