%TF.GenerationSoftware,KiCad,Pcbnew,9.0.6*%
%TF.CreationDate,2025-11-23T20:46:20-05:00*%
%TF.ProjectId,opamp-front,6f70616d-702d-4667-926f-6e742e6b6963,rev?*%
%TF.SameCoordinates,Original*%
%TF.FileFunction,Soldermask,Bot*%
%TF.FilePolarity,Negative*%
%FSLAX46Y46*%
G04 Gerber Fmt 4.6, Leading zero omitted, Abs format (unit mm)*
G04 Created by KiCad (PCBNEW 9.0.6) date 2025-11-23 20:46:20*
%MOMM*%
%LPD*%
G01*
G04 APERTURE LIST*
G04 Aperture macros list*
%AMRoundRect*
0 Rectangle with rounded corners*
0 $1 Rounding radius*
0 $2 $3 $4 $5 $6 $7 $8 $9 X,Y pos of 4 corners*
0 Add a 4 corners polygon primitive as box body*
4,1,4,$2,$3,$4,$5,$6,$7,$8,$9,$2,$3,0*
0 Add four circle primitives for the rounded corners*
1,1,$1+$1,$2,$3*
1,1,$1+$1,$4,$5*
1,1,$1+$1,$6,$7*
1,1,$1+$1,$8,$9*
0 Add four rect primitives between the rounded corners*
20,1,$1+$1,$2,$3,$4,$5,0*
20,1,$1+$1,$4,$5,$6,$7,0*
20,1,$1+$1,$6,$7,$8,$9,0*
20,1,$1+$1,$8,$9,$2,$3,0*%
G04 Aperture macros list end*
%ADD10C,2.400000*%
%ADD11R,2.500000X4.500000*%
%ADD12O,2.500000X4.500000*%
%ADD13C,1.600000*%
%ADD14RoundRect,0.250000X-0.550000X0.550000X-0.550000X-0.550000X0.550000X-0.550000X0.550000X0.550000X0*%
%ADD15C,1.400000*%
%ADD16C,3.000000*%
%ADD17RoundRect,0.250000X-0.550000X-0.550000X0.550000X-0.550000X0.550000X0.550000X-0.550000X0.550000X0*%
%ADD18RoundRect,0.249999X-0.850001X0.850001X-0.850001X-0.850001X0.850001X-0.850001X0.850001X0.850001X0*%
%ADD19C,2.200000*%
%ADD20R,1.100000X1.800000*%
%ADD21RoundRect,0.275000X-0.275000X-0.625000X0.275000X-0.625000X0.275000X0.625000X-0.275000X0.625000X0*%
%ADD22RoundRect,0.250000X0.550000X-0.550000X0.550000X0.550000X-0.550000X0.550000X-0.550000X-0.550000X0*%
%ADD23R,1.710000X1.800000*%
%ADD24O,1.710000X1.800000*%
%ADD25RoundRect,0.250000X-0.350000X-0.350000X0.350000X-0.350000X0.350000X0.350000X-0.350000X0.350000X0*%
%ADD26C,1.200000*%
%ADD27RoundRect,0.249999X0.850001X-0.850001X0.850001X0.850001X-0.850001X0.850001X-0.850001X-0.850001X0*%
%ADD28RoundRect,0.250000X0.550000X0.550000X-0.550000X0.550000X-0.550000X-0.550000X0.550000X-0.550000X0*%
%ADD29C,3.200000*%
%ADD30RoundRect,0.250000X0.350000X0.350000X-0.350000X0.350000X-0.350000X-0.350000X0.350000X-0.350000X0*%
%ADD31C,1.512000*%
%ADD32RoundRect,0.250001X-0.949999X-0.949999X0.949999X-0.949999X0.949999X0.949999X-0.949999X0.949999X0*%
G04 APERTURE END LIST*
D10*
%TO.C,R21*%
X92964000Y-86360000D03*
X108204000Y-86360000D03*
%TD*%
D11*
%TO.C,Q9*%
X65189000Y-41893000D03*
D12*
X70639000Y-41893000D03*
X76089000Y-41893000D03*
%TD*%
D13*
%TO.C,C2*%
X98298000Y-123698000D03*
X98298000Y-118698000D03*
%TD*%
D14*
%TO.C,D3*%
X80010000Y-94234000D03*
D13*
X80010000Y-101854000D03*
%TD*%
D15*
%TO.C,R25*%
X87884000Y-51816000D03*
X87884000Y-59436000D03*
%TD*%
D16*
%TO.C,J6*%
X137795000Y-49503000D03*
X142875000Y-49503000D03*
%TD*%
D15*
%TO.C,R27*%
X107569000Y-48514000D03*
X107569000Y-40894000D03*
%TD*%
D13*
%TO.C,C10*%
X97957000Y-79756000D03*
X102957000Y-79756000D03*
%TD*%
D17*
%TO.C,D1*%
X140007325Y-115969325D03*
D13*
X147627325Y-115969325D03*
%TD*%
%TO.C,C1*%
X92416000Y-129286000D03*
X87416000Y-129286000D03*
%TD*%
D18*
%TO.C,D17*%
X72925000Y-54456000D03*
D19*
X72925000Y-64616000D03*
%TD*%
D15*
%TO.C,R14*%
X145669000Y-100076000D03*
X145669000Y-92456000D03*
%TD*%
D20*
%TO.C,Q5*%
X94742000Y-98190000D03*
D21*
X96012000Y-96120000D03*
X97282000Y-98190000D03*
%TD*%
D18*
%TO.C,D12*%
X66548000Y-54356000D03*
D19*
X66548000Y-64516000D03*
%TD*%
D17*
%TO.C,C7*%
X140906674Y-107460325D03*
D13*
X145906674Y-107460325D03*
%TD*%
D15*
%TO.C,R26*%
X94869000Y-48133000D03*
X94869000Y-40513000D03*
%TD*%
%TO.C,R12*%
X134615000Y-112990000D03*
X134615000Y-105370000D03*
%TD*%
D16*
%TO.C,J2*%
X91948000Y-78486000D03*
X91948000Y-73406000D03*
%TD*%
D22*
%TO.C,D16*%
X123790000Y-76200000D03*
D13*
X123790000Y-68580000D03*
%TD*%
D14*
%TO.C,D9*%
X125476000Y-94488000D03*
D13*
X125476000Y-102108000D03*
%TD*%
D23*
%TO.C,Q1*%
X73108000Y-90170000D03*
D24*
X75388000Y-90170000D03*
X77668000Y-90170000D03*
%TD*%
D15*
%TO.C,R11*%
X120396000Y-102108000D03*
X120396000Y-94488000D03*
%TD*%
D25*
%TO.C,C4*%
X121687700Y-125984000D03*
D26*
X123687700Y-125984000D03*
%TD*%
D27*
%TO.C,D14*%
X127751000Y-64616000D03*
D19*
X127751000Y-54456000D03*
%TD*%
D15*
%TO.C,R9*%
X122104727Y-112990000D03*
X122104727Y-105370000D03*
%TD*%
%TO.C,R22*%
X138730000Y-76200000D03*
X138730000Y-68580000D03*
%TD*%
D28*
%TO.C,D2*%
X147627325Y-120142000D03*
D13*
X140007325Y-120142000D03*
%TD*%
D10*
%TO.C,R18*%
X80772000Y-64516000D03*
X80772000Y-49276000D03*
%TD*%
D13*
%TO.C,C11*%
X118110000Y-69890000D03*
X118110000Y-74890000D03*
%TD*%
%TO.C,C6*%
X129072000Y-117602000D03*
X134072000Y-117602000D03*
%TD*%
D17*
%TO.C,C8*%
X58247349Y-84836000D03*
D13*
X63247349Y-84836000D03*
%TD*%
D15*
%TO.C,R13*%
X128359864Y-112990000D03*
X128359864Y-105370000D03*
%TD*%
%TO.C,R29*%
X117834299Y-129286000D03*
X117834299Y-121666000D03*
%TD*%
D22*
%TO.C,D8*%
X96012000Y-113030000D03*
D13*
X96012000Y-105410000D03*
%TD*%
D15*
%TO.C,R7*%
X90170000Y-101854000D03*
X90170000Y-94234000D03*
%TD*%
%TO.C,R23*%
X133950000Y-76200000D03*
X133950000Y-68580000D03*
%TD*%
D23*
%TO.C,Q7*%
X125615000Y-90170000D03*
D24*
X127895000Y-90170000D03*
X130175000Y-90170000D03*
%TD*%
D16*
%TO.C,J3*%
X98044000Y-73379000D03*
X103124000Y-73379000D03*
%TD*%
D15*
%TO.C,R3*%
X63190000Y-91186000D03*
X63190000Y-98806000D03*
%TD*%
%TO.C,R8*%
X109194455Y-105624000D03*
X109194455Y-113244000D03*
%TD*%
D13*
%TO.C,C9*%
X83222105Y-69840105D03*
X83222105Y-74840105D03*
%TD*%
%TO.C,C3*%
X81534000Y-118658000D03*
X81534000Y-123658000D03*
%TD*%
D14*
%TO.C,D11*%
X77634105Y-68530105D03*
D13*
X77634105Y-76150105D03*
%TD*%
D16*
%TO.C,J4*%
X109320000Y-78486000D03*
X109320000Y-73406000D03*
%TD*%
D15*
%TO.C,R10*%
X115443000Y-102108000D03*
X115443000Y-94488000D03*
%TD*%
D17*
%TO.C,C16*%
X139583349Y-58674000D03*
D13*
X144583349Y-58674000D03*
%TD*%
D29*
%TO.C,REF\u002A\u002A*%
X56388000Y-38608000D03*
%TD*%
D15*
%TO.C,R1*%
X102340299Y-121666000D03*
X102340299Y-129286000D03*
%TD*%
D22*
%TO.C,D5*%
X70717136Y-113090000D03*
D13*
X70717136Y-105470000D03*
%TD*%
D15*
%TO.C,R4*%
X85090000Y-94234000D03*
X85090000Y-101854000D03*
%TD*%
D14*
%TO.C,D13*%
X72666905Y-68530105D03*
D13*
X72666905Y-76150105D03*
%TD*%
D23*
%TO.C,Q12*%
X112142000Y-42164000D03*
D24*
X114422000Y-42164000D03*
X116702000Y-42164000D03*
%TD*%
D22*
%TO.C,D15*%
X129032000Y-76200000D03*
D13*
X129032000Y-68580000D03*
%TD*%
D15*
%TO.C,R6*%
X64262000Y-105370000D03*
X64262000Y-112990000D03*
%TD*%
D10*
%TO.C,R20*%
X92964000Y-65532000D03*
X108204000Y-65532000D03*
%TD*%
D20*
%TO.C,Q2*%
X69540000Y-97936000D03*
D21*
X70810000Y-95866000D03*
X72080000Y-97936000D03*
%TD*%
D29*
%TO.C,REF\u002A\u002A*%
X145796000Y-128778000D03*
%TD*%
D10*
%TO.C,R28*%
X120893000Y-49276000D03*
X120893000Y-64516000D03*
%TD*%
D15*
%TO.C,R2*%
X58110000Y-91186000D03*
X58110000Y-98806000D03*
%TD*%
D30*
%TO.C,C15*%
X96488000Y-53086000D03*
D26*
X94488000Y-53086000D03*
%TD*%
D15*
%TO.C,R16*%
X63156105Y-68530105D03*
X63156105Y-76150105D03*
%TD*%
%TO.C,R19*%
X67839305Y-68530105D03*
X67839305Y-76150105D03*
%TD*%
D14*
%TO.C,D10*%
X115649591Y-105470000D03*
D13*
X115649591Y-113090000D03*
%TD*%
D27*
%TO.C,D18*%
X134112000Y-64516000D03*
D19*
X134112000Y-54356000D03*
%TD*%
D20*
%TO.C,Q3*%
X86106000Y-89554000D03*
D21*
X87376000Y-87484000D03*
X88646000Y-89554000D03*
%TD*%
D31*
%TO.C,RV1*%
X106426000Y-52832000D03*
X108966000Y-52832000D03*
X111506000Y-52832000D03*
%TD*%
D32*
%TO.C,J1*%
X108492299Y-126492000D03*
D10*
X111992299Y-126492000D03*
%TD*%
D15*
%TO.C,R24*%
X143510000Y-68580000D03*
X143510000Y-76200000D03*
%TD*%
D20*
%TO.C,Q6*%
X113030000Y-89554000D03*
D21*
X114300000Y-87484000D03*
X115570000Y-89554000D03*
%TD*%
D23*
%TO.C,Q10*%
X85102000Y-41910000D03*
D24*
X87382000Y-41910000D03*
X89662000Y-41910000D03*
%TD*%
D29*
%TO.C,REF\u002A\u002A*%
X56642000Y-129286000D03*
%TD*%
D23*
%TO.C,Q11*%
X98691000Y-42037000D03*
D24*
X100971000Y-42037000D03*
X103251000Y-42037000D03*
%TD*%
D15*
%TO.C,R15*%
X140589000Y-100076000D03*
X140589000Y-92456000D03*
%TD*%
D20*
%TO.C,Q8*%
X131318000Y-98190000D03*
D21*
X132588000Y-96120000D03*
X133858000Y-98190000D03*
%TD*%
D15*
%TO.C,R5*%
X77172273Y-112990000D03*
X77172273Y-105370000D03*
%TD*%
D20*
%TO.C,Q4*%
X102108000Y-98190000D03*
D21*
X103378000Y-96120000D03*
X104648000Y-98190000D03*
%TD*%
D29*
%TO.C,REF\u002A\u002A*%
X145796000Y-38354000D03*
%TD*%
D13*
%TO.C,C5*%
X112714299Y-119380000D03*
X107714299Y-119380000D03*
%TD*%
D16*
%TO.C,J5*%
X58574000Y-49503000D03*
X63654000Y-49503000D03*
%TD*%
D25*
%TO.C,C14*%
X86403401Y-48260000D03*
D26*
X88403401Y-48260000D03*
%TD*%
D14*
%TO.C,D4*%
X102360586Y-105410000D03*
D13*
X102360586Y-113030000D03*
%TD*%
D15*
%TO.C,R30*%
X127740299Y-129286000D03*
X127740299Y-121666000D03*
%TD*%
D28*
%TO.C,U1*%
X93699299Y-125436000D03*
D13*
X93699299Y-122896000D03*
X93699299Y-120356000D03*
X93699299Y-117816000D03*
X86079299Y-117816000D03*
X86079299Y-120356000D03*
X86079299Y-122896000D03*
X86079299Y-125436000D03*
%TD*%
D17*
%TO.C,C12*%
X140726349Y-84836000D03*
D13*
X145726349Y-84836000D03*
%TD*%
D15*
%TO.C,R17*%
X58584105Y-76150105D03*
X58584105Y-68530105D03*
%TD*%
D17*
%TO.C,C13*%
X55763349Y-57150000D03*
D13*
X60763349Y-57150000D03*
%TD*%
D11*
%TO.C,Q13*%
X124968000Y-42120000D03*
D12*
X130418000Y-42120000D03*
X135868000Y-42120000D03*
%TD*%
D22*
%TO.C,D6*%
X83820000Y-113030000D03*
D13*
X83820000Y-105410000D03*
%TD*%
D14*
%TO.C,D7*%
X90170000Y-105410000D03*
D13*
X90170000Y-113030000D03*
%TD*%
M02*
