%TF.GenerationSoftware,KiCad,Pcbnew,9.0.6*%
%TF.CreationDate,2025-11-16T15:42:17-05:00*%
%TF.ProjectId,opamp-front,6f70616d-702d-4667-926f-6e742e6b6963,rev?*%
%TF.SameCoordinates,Original*%
%TF.FileFunction,Copper,L1,Top*%
%TF.FilePolarity,Positive*%
%FSLAX46Y46*%
G04 Gerber Fmt 4.6, Leading zero omitted, Abs format (unit mm)*
G04 Created by KiCad (PCBNEW 9.0.6) date 2025-11-16 15:42:17*
%MOMM*%
%LPD*%
G01*
G04 APERTURE LIST*
G04 Aperture macros list*
%AMRoundRect*
0 Rectangle with rounded corners*
0 $1 Rounding radius*
0 $2 $3 $4 $5 $6 $7 $8 $9 X,Y pos of 4 corners*
0 Add a 4 corners polygon primitive as box body*
4,1,4,$2,$3,$4,$5,$6,$7,$8,$9,$2,$3,0*
0 Add four circle primitives for the rounded corners*
1,1,$1+$1,$2,$3*
1,1,$1+$1,$4,$5*
1,1,$1+$1,$6,$7*
1,1,$1+$1,$8,$9*
0 Add four rect primitives between the rounded corners*
20,1,$1+$1,$2,$3,$4,$5,0*
20,1,$1+$1,$4,$5,$6,$7,0*
20,1,$1+$1,$6,$7,$8,$9,0*
20,1,$1+$1,$8,$9,$2,$3,0*%
G04 Aperture macros list end*
%TA.AperFunction,ComponentPad*%
%ADD10C,2.400000*%
%TD*%
%TA.AperFunction,ComponentPad*%
%ADD11R,2.500000X4.500000*%
%TD*%
%TA.AperFunction,ComponentPad*%
%ADD12O,2.500000X4.500000*%
%TD*%
%TA.AperFunction,ComponentPad*%
%ADD13C,1.600000*%
%TD*%
%TA.AperFunction,ComponentPad*%
%ADD14RoundRect,0.250000X-0.550000X0.550000X-0.550000X-0.550000X0.550000X-0.550000X0.550000X0.550000X0*%
%TD*%
%TA.AperFunction,ComponentPad*%
%ADD15C,1.400000*%
%TD*%
%TA.AperFunction,ComponentPad*%
%ADD16C,3.000000*%
%TD*%
%TA.AperFunction,ComponentPad*%
%ADD17RoundRect,0.250000X-0.550000X-0.550000X0.550000X-0.550000X0.550000X0.550000X-0.550000X0.550000X0*%
%TD*%
%TA.AperFunction,ComponentPad*%
%ADD18RoundRect,0.249999X-0.850001X0.850001X-0.850001X-0.850001X0.850001X-0.850001X0.850001X0.850001X0*%
%TD*%
%TA.AperFunction,ComponentPad*%
%ADD19C,2.200000*%
%TD*%
%TA.AperFunction,ComponentPad*%
%ADD20R,1.100000X1.800000*%
%TD*%
%TA.AperFunction,ComponentPad*%
%ADD21RoundRect,0.275000X-0.275000X-0.625000X0.275000X-0.625000X0.275000X0.625000X-0.275000X0.625000X0*%
%TD*%
%TA.AperFunction,ComponentPad*%
%ADD22RoundRect,0.249999X0.850001X-0.850001X0.850001X0.850001X-0.850001X0.850001X-0.850001X-0.850001X0*%
%TD*%
%TA.AperFunction,ComponentPad*%
%ADD23RoundRect,0.250000X0.550000X-0.550000X0.550000X0.550000X-0.550000X0.550000X-0.550000X-0.550000X0*%
%TD*%
%TA.AperFunction,ComponentPad*%
%ADD24R,1.710000X1.800000*%
%TD*%
%TA.AperFunction,ComponentPad*%
%ADD25O,1.710000X1.800000*%
%TD*%
%TA.AperFunction,ComponentPad*%
%ADD26RoundRect,0.250000X-0.350000X-0.350000X0.350000X-0.350000X0.350000X0.350000X-0.350000X0.350000X0*%
%TD*%
%TA.AperFunction,ComponentPad*%
%ADD27C,1.200000*%
%TD*%
%TA.AperFunction,ComponentPad*%
%ADD28RoundRect,0.250000X0.550000X0.550000X-0.550000X0.550000X-0.550000X-0.550000X0.550000X-0.550000X0*%
%TD*%
%TA.AperFunction,ComponentPad*%
%ADD29RoundRect,0.250000X0.350000X0.350000X-0.350000X0.350000X-0.350000X-0.350000X0.350000X-0.350000X0*%
%TD*%
%TA.AperFunction,ComponentPad*%
%ADD30C,1.308000*%
%TD*%
%TA.AperFunction,ComponentPad*%
%ADD31RoundRect,0.250001X-0.949999X-0.949999X0.949999X-0.949999X0.949999X0.949999X-0.949999X0.949999X0*%
%TD*%
%TA.AperFunction,Conductor*%
%ADD32C,1.000000*%
%TD*%
%TA.AperFunction,Conductor*%
%ADD33C,4.000000*%
%TD*%
G04 APERTURE END LIST*
D10*
%TO.P,R21,1*%
%TO.N,Net-(C10-Pad2)*%
X92964000Y-86360000D03*
%TO.P,R21,2*%
%TO.N,Net-(D14-K)*%
X108204000Y-86360000D03*
%TD*%
D11*
%TO.P,Q9,1,B*%
%TO.N,Net-(Q10-E)*%
X65189000Y-41893000D03*
D12*
%TO.P,Q9,2,C*%
%TO.N,/B+*%
X70639000Y-41893000D03*
%TO.P,Q9,3,E*%
%TO.N,Net-(Q9-E)*%
X76089000Y-41893000D03*
%TD*%
D13*
%TO.P,C2,1*%
%TO.N,GND*%
X98298000Y-123698000D03*
%TO.P,C2,2*%
%TO.N,-15V*%
X98298000Y-118698000D03*
%TD*%
D14*
%TO.P,D3,1,K*%
%TO.N,Net-(D3-K)*%
X80010000Y-94234000D03*
D13*
%TO.P,D3,2,A*%
%TO.N,Net-(D11-A)*%
X80010000Y-101854000D03*
%TD*%
D15*
%TO.P,R25,1*%
%TO.N,Net-(Q10-E)*%
X87884000Y-51816000D03*
%TO.P,R25,2*%
%TO.N,Net-(Q12-E)*%
X87884000Y-59436000D03*
%TD*%
D16*
%TO.P,J6,1,1*%
%TO.N,/B-*%
X137795000Y-49503000D03*
%TO.P,J6,2,2*%
X142875000Y-49503000D03*
%TD*%
D15*
%TO.P,R27,1*%
%TO.N,Net-(D11-A)*%
X107569000Y-48514000D03*
%TO.P,R27,2*%
%TO.N,Net-(Q11-B)*%
X107569000Y-40894000D03*
%TD*%
D13*
%TO.P,C10,1*%
%TO.N,GND*%
X97957000Y-79756000D03*
%TO.P,C10,2*%
%TO.N,Net-(C10-Pad2)*%
X102957000Y-79756000D03*
%TD*%
D17*
%TO.P,D1,1,K*%
%TO.N,Net-(D1-K)*%
X140007325Y-115969325D03*
D13*
%TO.P,D1,2,A*%
%TO.N,GNDA*%
X147627325Y-115969325D03*
%TD*%
%TO.P,C1,1*%
%TO.N,Net-(U1A--)*%
X92416000Y-129286000D03*
%TO.P,C1,2*%
%TO.N,Net-(D7-K)*%
X87416000Y-129286000D03*
%TD*%
D18*
%TO.P,D17,1,K*%
%TO.N,/B+*%
X72925000Y-54456000D03*
D19*
%TO.P,D17,2,A*%
%TO.N,Net-(D14-K)*%
X72925000Y-64616000D03*
%TD*%
D15*
%TO.P,R14,1*%
%TO.N,Net-(Q7-E)*%
X145669000Y-100076000D03*
%TO.P,R14,2*%
%TO.N,Net-(Q8-E)*%
X145669000Y-92456000D03*
%TD*%
D20*
%TO.P,Q5,1,E*%
%TO.N,Net-(Q5-E)*%
X94742000Y-98190000D03*
D21*
%TO.P,Q5,2,B*%
%TO.N,Net-(D6-A)*%
X96012000Y-96120000D03*
%TO.P,Q5,3,C*%
%TO.N,Net-(D3-K)*%
X97282000Y-98190000D03*
%TD*%
D22*
%TO.P,D12,1,K*%
%TO.N,GND*%
X66548000Y-64616000D03*
D19*
%TO.P,D12,2,A*%
%TO.N,/B+*%
X66548000Y-54456000D03*
%TD*%
D17*
%TO.P,C7,1*%
%TO.N,Net-(D1-K)*%
X140906674Y-107460325D03*
D13*
%TO.P,C7,2*%
%TO.N,GNDA*%
X145906674Y-107460325D03*
%TD*%
D15*
%TO.P,R26,1*%
%TO.N,Net-(Q11-B)*%
X94869000Y-48133000D03*
%TO.P,R26,2*%
%TO.N,Net-(R26-Pad2)*%
X94869000Y-40513000D03*
%TD*%
%TO.P,R12,1*%
%TO.N,Net-(U1A--)*%
X134615000Y-112990000D03*
%TO.P,R12,2*%
%TO.N,Net-(D14-K)*%
X134615000Y-105370000D03*
%TD*%
D16*
%TO.P,J2,1,1*%
%TO.N,GND*%
X91948000Y-78486000D03*
%TO.P,J2,2,2*%
X91948000Y-73406000D03*
%TD*%
D23*
%TO.P,D16,1,K*%
%TO.N,Net-(D16-K)*%
X123790000Y-76200000D03*
D13*
%TO.P,D16,2,A*%
%TO.N,Net-(D16-A)*%
X123790000Y-68580000D03*
%TD*%
D14*
%TO.P,D9,1,K*%
%TO.N,Net-(D16-K)*%
X125476000Y-94488000D03*
D13*
%TO.P,D9,2,A*%
%TO.N,Net-(D9-A)*%
X125476000Y-102108000D03*
%TD*%
D24*
%TO.P,Q1,1,E*%
%TO.N,Net-(Q1-E)*%
X73108000Y-90170000D03*
D25*
%TO.P,Q1,2,C*%
%TO.N,Net-(D11-A)*%
X75388000Y-90170000D03*
%TO.P,Q1,3,B*%
%TO.N,Net-(D3-K)*%
X77668000Y-90170000D03*
%TD*%
D15*
%TO.P,R11,1*%
%TO.N,Net-(R10-Pad1)*%
X120396000Y-102108000D03*
%TO.P,R11,2*%
%TO.N,Net-(D14-K)*%
X120396000Y-94488000D03*
%TD*%
D26*
%TO.P,C4,1*%
%TO.N,Net-(J1-Pin_2)*%
X121687700Y-125984000D03*
D27*
%TO.P,C4,2*%
%TO.N,Net-(C4-Pad2)*%
X123687700Y-125984000D03*
%TD*%
D22*
%TO.P,D14,1,K*%
%TO.N,Net-(D14-K)*%
X127751000Y-64616000D03*
D19*
%TO.P,D14,2,A*%
%TO.N,/B-*%
X127751000Y-54456000D03*
%TD*%
D15*
%TO.P,R9,1*%
%TO.N,-15V*%
X122104727Y-112990000D03*
%TO.P,R9,2*%
%TO.N,Net-(Q8-E)*%
X122104727Y-105370000D03*
%TD*%
%TO.P,R22,1*%
%TO.N,Net-(Q8-E)*%
X138730000Y-76200000D03*
%TO.P,R22,2*%
%TO.N,/B-*%
X138730000Y-68580000D03*
%TD*%
D28*
%TO.P,D2,1,K*%
%TO.N,GNDA*%
X147627325Y-120142000D03*
D13*
%TO.P,D2,2,A*%
%TO.N,Net-(D1-K)*%
X140007325Y-120142000D03*
%TD*%
D10*
%TO.P,R18,1*%
%TO.N,Net-(D14-K)*%
X80772000Y-64516000D03*
%TO.P,R18,2*%
%TO.N,Net-(Q9-E)*%
X80772000Y-49276000D03*
%TD*%
D13*
%TO.P,C11,1*%
%TO.N,Net-(D16-K)*%
X118110000Y-69890000D03*
%TO.P,C11,2*%
%TO.N,Net-(Q6-B)*%
X118110000Y-74890000D03*
%TD*%
%TO.P,C6,1*%
%TO.N,Net-(U1A--)*%
X129072000Y-117602000D03*
%TO.P,C6,2*%
%TO.N,Net-(D14-K)*%
X134072000Y-117602000D03*
%TD*%
D17*
%TO.P,C8,1*%
%TO.N,Net-(Q2-E)*%
X58247349Y-84836000D03*
D13*
%TO.P,C8,2*%
%TO.N,GND*%
X63247349Y-84836000D03*
%TD*%
D15*
%TO.P,R13,1*%
%TO.N,Net-(U1A--)*%
X128359864Y-112990000D03*
%TO.P,R13,2*%
%TO.N,Net-(D1-K)*%
X128359864Y-105370000D03*
%TD*%
%TO.P,R29,1*%
%TO.N,Net-(C4-Pad2)*%
X117834299Y-129286000D03*
%TO.P,R29,2*%
%TO.N,Net-(U1A-+)*%
X117834299Y-121666000D03*
%TD*%
D14*
%TO.P,D8,1,K*%
%TO.N,Net-(D4-A)*%
X90170000Y-105370000D03*
D13*
%TO.P,D8,2,A*%
%TO.N,Net-(D7-K)*%
X90170000Y-112990000D03*
%TD*%
D15*
%TO.P,R7,1*%
%TO.N,Net-(R10-Pad1)*%
X90170000Y-101854000D03*
%TO.P,R7,2*%
%TO.N,Net-(Q4-E)*%
X90170000Y-94234000D03*
%TD*%
%TO.P,R23,1*%
%TO.N,Net-(D15-K)*%
X133950000Y-76200000D03*
%TO.P,R23,2*%
%TO.N,Net-(Q6-B)*%
X133950000Y-68580000D03*
%TD*%
D24*
%TO.P,Q7,1,E*%
%TO.N,Net-(Q7-E)*%
X125615000Y-90170000D03*
D25*
%TO.P,Q7,2,C*%
%TO.N,Net-(D16-K)*%
X127895000Y-90170000D03*
%TO.P,Q7,3,B*%
%TO.N,Net-(D9-A)*%
X130175000Y-90170000D03*
%TD*%
D16*
%TO.P,J3,1,1*%
%TO.N,/SPK*%
X98044000Y-73379000D03*
%TO.P,J3,2,2*%
X103124000Y-73379000D03*
%TD*%
D15*
%TO.P,R3,1*%
%TO.N,Net-(Q2-E)*%
X63190000Y-91186000D03*
%TO.P,R3,2*%
%TO.N,Net-(D3-K)*%
X63190000Y-98806000D03*
%TD*%
%TO.P,R8,1*%
%TO.N,Net-(D4-K)*%
X109194455Y-105624000D03*
%TO.P,R8,2*%
%TO.N,-15V*%
X109194455Y-113244000D03*
%TD*%
D13*
%TO.P,C9,1*%
%TO.N,Net-(Q3-B)*%
X83222105Y-69840105D03*
%TO.P,C9,2*%
%TO.N,Net-(D11-A)*%
X83222105Y-74840105D03*
%TD*%
%TO.P,C3,1*%
%TO.N,GND*%
X81534000Y-118658000D03*
%TO.P,C3,2*%
%TO.N,+15V*%
X81534000Y-123658000D03*
%TD*%
D14*
%TO.P,D11,1,K*%
%TO.N,Net-(D11-K)*%
X77634105Y-68530105D03*
D13*
%TO.P,D11,2,A*%
%TO.N,Net-(D11-A)*%
X77634105Y-76150105D03*
%TD*%
D16*
%TO.P,J4,1,1*%
%TO.N,GND*%
X109320000Y-78486000D03*
%TO.P,J4,2,2*%
X109320000Y-73406000D03*
%TD*%
D15*
%TO.P,R10,1*%
%TO.N,Net-(R10-Pad1)*%
X115443000Y-102108000D03*
%TO.P,R10,2*%
%TO.N,GND*%
X115443000Y-94488000D03*
%TD*%
D17*
%TO.P,C16,1*%
%TO.N,GND*%
X139583349Y-58674000D03*
D13*
%TO.P,C16,2*%
%TO.N,/B-*%
X144583349Y-58674000D03*
%TD*%
D15*
%TO.P,R1,1*%
%TO.N,Net-(U1A-+)*%
X102340299Y-121666000D03*
%TO.P,R1,2*%
%TO.N,GNDA*%
X102340299Y-129286000D03*
%TD*%
D23*
%TO.P,D5,1,K*%
%TO.N,+15V*%
X70717136Y-113090000D03*
D13*
%TO.P,D5,2,A*%
%TO.N,GND*%
X70717136Y-105470000D03*
%TD*%
D15*
%TO.P,R4,1*%
%TO.N,Net-(Q5-E)*%
X85090000Y-94234000D03*
%TO.P,R4,2*%
%TO.N,Net-(R10-Pad1)*%
X85090000Y-101854000D03*
%TD*%
D14*
%TO.P,D13,1,K*%
%TO.N,GND*%
X72666905Y-68530105D03*
D13*
%TO.P,D13,2,A*%
%TO.N,Net-(D13-A)*%
X72666905Y-76150105D03*
%TD*%
D24*
%TO.P,Q12,1,E*%
%TO.N,Net-(Q12-E)*%
X112142000Y-42164000D03*
D25*
%TO.P,Q12,2,C*%
%TO.N,/B-*%
X114422000Y-42164000D03*
%TO.P,Q12,3,B*%
%TO.N,Net-(D16-K)*%
X116702000Y-42164000D03*
%TD*%
D23*
%TO.P,D15,1,K*%
%TO.N,Net-(D15-K)*%
X129032000Y-76200000D03*
D13*
%TO.P,D15,2,A*%
%TO.N,GND*%
X129032000Y-68580000D03*
%TD*%
D15*
%TO.P,R6,1*%
%TO.N,Net-(Q2-E)*%
X64262000Y-105370000D03*
%TO.P,R6,2*%
%TO.N,+15V*%
X64262000Y-112990000D03*
%TD*%
D10*
%TO.P,R20,1*%
%TO.N,/SPK*%
X92964000Y-65532000D03*
%TO.P,R20,2*%
%TO.N,Net-(D14-K)*%
X108204000Y-65532000D03*
%TD*%
D20*
%TO.P,Q2,1,E*%
%TO.N,Net-(Q2-E)*%
X69540000Y-97936000D03*
D21*
%TO.P,Q2,2,B*%
%TO.N,Net-(Q1-E)*%
X70810000Y-95866000D03*
%TO.P,Q2,3,C*%
%TO.N,Net-(D3-K)*%
X72080000Y-97936000D03*
%TD*%
D10*
%TO.P,R28,1*%
%TO.N,Net-(Q13-E)*%
X120893000Y-49276000D03*
%TO.P,R28,2*%
%TO.N,Net-(D14-K)*%
X120893000Y-64516000D03*
%TD*%
D15*
%TO.P,R2,1*%
%TO.N,Net-(Q2-E)*%
X58110000Y-91186000D03*
%TO.P,R2,2*%
%TO.N,Net-(Q1-E)*%
X58110000Y-98806000D03*
%TD*%
D29*
%TO.P,C15,1*%
%TO.N,Net-(D11-A)*%
X96488000Y-53086000D03*
D27*
%TO.P,C15,2*%
%TO.N,Net-(D16-K)*%
X94488000Y-53086000D03*
%TD*%
D15*
%TO.P,R16,1*%
%TO.N,Net-(Q9-E)*%
X63156105Y-68530105D03*
%TO.P,R16,2*%
%TO.N,Net-(Q3-B)*%
X63156105Y-76150105D03*
%TD*%
%TO.P,R19,1*%
%TO.N,Net-(Q3-B)*%
X67839305Y-68530105D03*
%TO.P,R19,2*%
%TO.N,Net-(D13-A)*%
X67839305Y-76150105D03*
%TD*%
D14*
%TO.P,D10,1,K*%
%TO.N,GND*%
X115649591Y-105470000D03*
D13*
%TO.P,D10,2,A*%
%TO.N,-15V*%
X115649591Y-113090000D03*
%TD*%
D18*
%TO.P,D18,1,K*%
%TO.N,/B-*%
X134112000Y-54456000D03*
D19*
%TO.P,D18,2,A*%
%TO.N,GND*%
X134112000Y-64616000D03*
%TD*%
D20*
%TO.P,Q3,1,E*%
%TO.N,Net-(D14-K)*%
X86106000Y-89554000D03*
D21*
%TO.P,Q3,2,B*%
%TO.N,Net-(Q3-B)*%
X87376000Y-87484000D03*
%TO.P,Q3,3,C*%
%TO.N,Net-(D11-K)*%
X88646000Y-89554000D03*
%TD*%
D30*
%TO.P,RV1,1,1*%
%TO.N,Net-(R26-Pad2)*%
X106426000Y-52832000D03*
%TO.P,RV1,2,2*%
%TO.N,Net-(D16-K)*%
X108966000Y-52832000D03*
%TO.P,RV1,3,3*%
X111506000Y-52832000D03*
%TD*%
D31*
%TO.P,J1,1,Pin_1*%
%TO.N,GNDA*%
X108492299Y-126492000D03*
D10*
%TO.P,J1,2,Pin_2*%
%TO.N,Net-(J1-Pin_2)*%
X111992299Y-126492000D03*
%TD*%
D15*
%TO.P,R24,1*%
%TO.N,Net-(Q13-E)*%
X143510000Y-68580000D03*
%TO.P,R24,2*%
%TO.N,Net-(Q6-B)*%
X143510000Y-76200000D03*
%TD*%
D20*
%TO.P,Q6,1,E*%
%TO.N,Net-(D14-K)*%
X113030000Y-89554000D03*
D21*
%TO.P,Q6,2,B*%
%TO.N,Net-(Q6-B)*%
X114300000Y-87484000D03*
%TO.P,Q6,3,C*%
%TO.N,Net-(D16-A)*%
X115570000Y-89554000D03*
%TD*%
D24*
%TO.P,Q10,1,E*%
%TO.N,Net-(Q10-E)*%
X85102000Y-41910000D03*
D25*
%TO.P,Q10,2,C*%
%TO.N,/B+*%
X87382000Y-41910000D03*
%TO.P,Q10,3,B*%
%TO.N,Net-(D11-A)*%
X89662000Y-41910000D03*
%TD*%
D24*
%TO.P,Q11,1,E*%
%TO.N,Net-(D16-K)*%
X98691000Y-42037000D03*
D25*
%TO.P,Q11,2,C*%
%TO.N,Net-(D11-A)*%
X100971000Y-42037000D03*
%TO.P,Q11,3,B*%
%TO.N,Net-(Q11-B)*%
X103251000Y-42037000D03*
%TD*%
D15*
%TO.P,R15,1*%
%TO.N,Net-(D9-A)*%
X140589000Y-100076000D03*
%TO.P,R15,2*%
%TO.N,Net-(Q8-E)*%
X140589000Y-92456000D03*
%TD*%
D20*
%TO.P,Q8,1,E*%
%TO.N,Net-(Q8-E)*%
X131318000Y-98190000D03*
D21*
%TO.P,Q8,2,B*%
%TO.N,Net-(Q7-E)*%
X132588000Y-96120000D03*
%TO.P,Q8,3,C*%
%TO.N,Net-(D9-A)*%
X133858000Y-98190000D03*
%TD*%
D15*
%TO.P,R5,1*%
%TO.N,+15V*%
X77172273Y-112990000D03*
%TO.P,R5,2*%
%TO.N,Net-(D6-A)*%
X77172273Y-105370000D03*
%TD*%
D20*
%TO.P,Q4,1,E*%
%TO.N,Net-(Q4-E)*%
X102108000Y-98190000D03*
D21*
%TO.P,Q4,2,B*%
%TO.N,Net-(D4-K)*%
X103378000Y-96120000D03*
%TO.P,Q4,3,C*%
%TO.N,Net-(D9-A)*%
X104648000Y-98190000D03*
%TD*%
D13*
%TO.P,C5,1*%
%TO.N,Net-(U1A-+)*%
X112714299Y-119380000D03*
%TO.P,C5,2*%
%TO.N,GNDA*%
X107714299Y-119380000D03*
%TD*%
D16*
%TO.P,J5,1,1*%
%TO.N,/B+*%
X58574000Y-49503000D03*
%TO.P,J5,2,2*%
X63654000Y-49503000D03*
%TD*%
D26*
%TO.P,C14,1*%
%TO.N,Net-(Q10-E)*%
X86403401Y-48260000D03*
D27*
%TO.P,C14,2*%
%TO.N,Net-(Q12-E)*%
X88403401Y-48260000D03*
%TD*%
D14*
%TO.P,D4,1,K*%
%TO.N,Net-(D4-K)*%
X83627409Y-105370000D03*
D13*
%TO.P,D4,2,A*%
%TO.N,Net-(D4-A)*%
X83627409Y-112990000D03*
%TD*%
D15*
%TO.P,R30,1*%
%TO.N,GNDA*%
X127740299Y-129286000D03*
%TO.P,R30,2*%
%TO.N,GND*%
X127740299Y-121666000D03*
%TD*%
D28*
%TO.P,U1,1*%
%TO.N,Net-(D7-K)*%
X93699299Y-125436000D03*
D13*
%TO.P,U1,2,-*%
%TO.N,Net-(U1A--)*%
X93699299Y-122896000D03*
%TO.P,U1,3,+*%
%TO.N,Net-(U1A-+)*%
X93699299Y-120356000D03*
%TO.P,U1,4,V-*%
%TO.N,-15V*%
X93699299Y-117816000D03*
%TO.P,U1,5,+*%
%TO.N,GND*%
X86079299Y-117816000D03*
%TO.P,U1,6,-*%
%TO.N,Net-(U1B--)*%
X86079299Y-120356000D03*
%TO.P,U1,7*%
X86079299Y-122896000D03*
%TO.P,U1,8,V+*%
%TO.N,+15V*%
X86079299Y-125436000D03*
%TD*%
D17*
%TO.P,C12,1*%
%TO.N,GND*%
X140726349Y-84836000D03*
D13*
%TO.P,C12,2*%
%TO.N,Net-(Q8-E)*%
X145726349Y-84836000D03*
%TD*%
D15*
%TO.P,R17,1*%
%TO.N,Net-(Q2-E)*%
X58584105Y-76150105D03*
%TO.P,R17,2*%
%TO.N,/B+*%
X58584105Y-68530105D03*
%TD*%
D17*
%TO.P,C13,1*%
%TO.N,/B+*%
X55763349Y-57150000D03*
D13*
%TO.P,C13,2*%
%TO.N,GND*%
X60763349Y-57150000D03*
%TD*%
D11*
%TO.P,Q13,1,B*%
%TO.N,Net-(Q12-E)*%
X124968000Y-42120000D03*
D12*
%TO.P,Q13,2,C*%
%TO.N,/B-*%
X130418000Y-42120000D03*
%TO.P,Q13,3,E*%
%TO.N,Net-(Q13-E)*%
X135868000Y-42120000D03*
%TD*%
D23*
%TO.P,D6,1,K*%
%TO.N,Net-(D6-K)*%
X102739318Y-113090000D03*
D13*
%TO.P,D6,2,A*%
%TO.N,Net-(D6-A)*%
X102739318Y-105470000D03*
%TD*%
D23*
%TO.P,D7,1,K*%
%TO.N,Net-(D7-K)*%
X96084182Y-113090000D03*
D13*
%TO.P,D7,2,A*%
%TO.N,Net-(D6-K)*%
X96084182Y-105470000D03*
%TD*%
D32*
%TO.N,Net-(D7-K)*%
X92394299Y-126741000D02*
X93699299Y-125436000D01*
X89986000Y-117104944D02*
X94000944Y-113090000D01*
X93699299Y-125436000D02*
X89986000Y-121722701D01*
X94000944Y-113090000D02*
X96084182Y-113090000D01*
X87416000Y-129286000D02*
X89961000Y-126741000D01*
X90170000Y-112990000D02*
X96613667Y-112990000D01*
X89961000Y-126741000D02*
X92394299Y-126741000D01*
X89986000Y-121722701D02*
X89986000Y-117104944D01*
%TO.N,GNDA*%
X145906674Y-108025674D02*
X147627325Y-109746325D01*
X108492299Y-120158000D02*
X107714299Y-119380000D01*
X145906674Y-107460325D02*
X145906674Y-108025674D01*
X147627325Y-115969325D02*
X147627325Y-120142000D01*
X112687299Y-130687000D02*
X126339299Y-130687000D01*
X108492299Y-126492000D02*
X112687299Y-130687000D01*
X127740299Y-129286000D02*
X138483325Y-129286000D01*
X108492299Y-126492000D02*
X108492299Y-120158000D01*
X138483325Y-129286000D02*
X147627325Y-120142000D01*
X147627325Y-109746325D02*
X147627325Y-115969325D01*
X102340299Y-129286000D02*
X105150299Y-129286000D01*
X126339299Y-130687000D02*
X127740299Y-129286000D01*
X105150299Y-129286000D02*
X107944299Y-126492000D01*
%TO.N,Net-(C4-Pad2)*%
X117834299Y-129286000D02*
X120437544Y-129286000D01*
X120437544Y-129286000D02*
X123687700Y-126035844D01*
%TO.N,Net-(D3-K)*%
X90474686Y-96520000D02*
X93324108Y-96520000D01*
X81411000Y-92833000D02*
X86787686Y-92833000D01*
X80010000Y-94234000D02*
X81411000Y-92833000D01*
X86787686Y-92833000D02*
X90474686Y-96520000D01*
X96698892Y-94519000D02*
X97282000Y-95102108D01*
X63921000Y-99537000D02*
X63190000Y-98806000D01*
X72080000Y-98248000D02*
X70791000Y-99537000D01*
X95325108Y-94519000D02*
X96698892Y-94519000D01*
X70791000Y-99537000D02*
X63921000Y-99537000D01*
X80010000Y-94234000D02*
X80010000Y-92512000D01*
X93324108Y-96520000D02*
X95325108Y-94519000D01*
X80010000Y-92512000D02*
X77668000Y-90170000D01*
X97282000Y-95102108D02*
X97282000Y-97790000D01*
%TO.N,Net-(D4-A)*%
X83493000Y-112990000D02*
X90170000Y-106313000D01*
X90170000Y-106313000D02*
X90170000Y-105370000D01*
%TO.N,Net-(J1-Pin_2)*%
X112500299Y-125984000D02*
X111992299Y-126492000D01*
X121687700Y-125984000D02*
X112500299Y-125984000D01*
%TO.N,Net-(D1-K)*%
X140906674Y-107460325D02*
X130450189Y-107460325D01*
X140906674Y-107460325D02*
X140906674Y-115069976D01*
X140906674Y-115069976D02*
X140007325Y-115969325D01*
X140007325Y-115969325D02*
X140007325Y-120142000D01*
X130450189Y-107460325D02*
X128359864Y-105370000D01*
%TO.N,Net-(Q2-E)*%
X58584105Y-76150105D02*
X58584105Y-84499244D01*
X56642001Y-92653999D02*
X58110000Y-91186000D01*
X62692686Y-105370000D02*
X56642001Y-99319315D01*
X58584105Y-84499244D02*
X58247349Y-84836000D01*
X58110000Y-91186000D02*
X63190000Y-91186000D01*
X63190000Y-91186000D02*
X69540000Y-97536000D01*
X58247349Y-84836000D02*
X58247349Y-91048651D01*
X64262000Y-105370000D02*
X62692686Y-105370000D01*
X56642001Y-99319315D02*
X56642001Y-92653999D01*
D33*
%TO.N,Net-(D14-K)*%
X93218000Y-59182000D02*
X108712000Y-59182000D01*
D32*
X126958864Y-107654864D02*
X126958864Y-104789686D01*
D33*
X80772000Y-64516000D02*
X73025000Y-64516000D01*
D32*
X118216108Y-94488000D02*
X113030000Y-89301892D01*
D33*
X113792000Y-64262000D02*
X109982000Y-60452000D01*
X113810000Y-64280000D02*
X113810000Y-80754000D01*
D32*
X128570382Y-102662382D02*
X120396000Y-94488000D01*
D33*
X120893000Y-64516000D02*
X121032000Y-64377000D01*
X80772000Y-64516000D02*
X87884000Y-64516000D01*
D32*
X129132550Y-102616000D02*
X131861000Y-102616000D01*
X134072000Y-117602000D02*
X136906000Y-114768000D01*
D33*
X109982000Y-60452000D02*
X113810000Y-64280000D01*
D32*
X128570382Y-103178168D02*
X128570382Y-102662382D01*
X136906000Y-114768000D02*
X136906000Y-111760000D01*
D33*
X113810000Y-80754000D02*
X108204000Y-86360000D01*
D32*
X86106000Y-89301892D02*
X87959108Y-91155000D01*
D33*
X121032000Y-64377000D02*
X127751000Y-64377000D01*
D32*
X87959108Y-91155000D02*
X103409000Y-91155000D01*
X103409000Y-91155000D02*
X108204000Y-86360000D01*
D33*
X109982000Y-63754000D02*
X109982000Y-60452000D01*
X108204000Y-65532000D02*
X109982000Y-63754000D01*
X108712000Y-59182000D02*
X109982000Y-60452000D01*
D32*
X129032000Y-109728000D02*
X126958864Y-107654864D01*
D33*
X87884000Y-64516000D02*
X93218000Y-59182000D01*
D32*
X134874000Y-109728000D02*
X129032000Y-109728000D01*
X126958864Y-104789686D02*
X128570382Y-103178168D01*
X136906000Y-111760000D02*
X134874000Y-109728000D01*
X131861000Y-102616000D02*
X134615000Y-105370000D01*
X110998000Y-89154000D02*
X108204000Y-86360000D01*
D33*
X120639000Y-64262000D02*
X113792000Y-64262000D01*
D32*
X120396000Y-94488000D02*
X118216108Y-94488000D01*
D33*
X73025000Y-64516000D02*
X72925000Y-64616000D01*
D32*
X113030000Y-89154000D02*
X110998000Y-89154000D01*
%TO.N,Net-(Q3-B)*%
X68851105Y-70455105D02*
X69867105Y-70455105D01*
X69867105Y-70455105D02*
X67982105Y-68570105D01*
X83222105Y-69840105D02*
X82422106Y-70640104D01*
X87376000Y-87884000D02*
X86360000Y-86868000D01*
X86360000Y-71882000D02*
X84318105Y-69840105D01*
X63156105Y-76150105D02*
X68851105Y-70455105D01*
X84318105Y-69840105D02*
X83222105Y-69840105D01*
X70052104Y-70640104D02*
X69867105Y-70455105D01*
X82422106Y-70640104D02*
X70052104Y-70640104D01*
X86360000Y-86868000D02*
X86360000Y-71882000D01*
%TO.N,Net-(Q1-E)*%
X72697892Y-96266000D02*
X70810000Y-96266000D01*
X60042000Y-100738000D02*
X71565892Y-100738000D01*
X70810000Y-96266000D02*
X70810000Y-92468000D01*
X70810000Y-92468000D02*
X73108000Y-90170000D01*
X73331000Y-98972892D02*
X73331000Y-96899108D01*
X58110000Y-98806000D02*
X60042000Y-100738000D01*
X73331000Y-96899108D02*
X72697892Y-96266000D01*
X71565892Y-100738000D02*
X73331000Y-98972892D01*
%TO.N,Net-(D13-A)*%
X67839305Y-76150105D02*
X72666905Y-76150105D01*
%TO.N,Net-(D11-A)*%
X96488000Y-53086000D02*
X100971000Y-48603000D01*
X77634105Y-78067895D02*
X75388000Y-80314000D01*
X75388000Y-90170000D02*
X75388000Y-97232000D01*
X77634105Y-76150105D02*
X77634105Y-76912105D01*
X100971000Y-48603000D02*
X100971000Y-42037000D01*
X77634105Y-76912105D02*
X77634105Y-78067895D01*
X83222105Y-74840105D02*
X78944105Y-74840105D01*
X78944105Y-74840105D02*
X77634105Y-76150105D01*
X75388000Y-97232000D02*
X80010000Y-101854000D01*
X75388000Y-80314000D02*
X75388000Y-90170000D01*
X107448000Y-48514000D02*
X100971000Y-42037000D01*
D33*
%TO.N,/B-*%
X136200000Y-35870000D02*
X142875000Y-42545000D01*
X142875000Y-42545000D02*
X142875000Y-49503000D01*
X127751000Y-54456000D02*
X134112000Y-54456000D01*
D32*
X144090314Y-69981000D02*
X145383348Y-68687966D01*
D33*
X134112000Y-54456000D02*
X134112000Y-53186000D01*
D32*
X138730000Y-68580000D02*
X140131000Y-69981000D01*
X145383348Y-68687966D02*
X145383348Y-59473999D01*
X140131000Y-69981000D02*
X144090314Y-69981000D01*
D33*
X130418000Y-42120000D02*
X130418000Y-35870000D01*
D32*
X117346516Y-40563000D02*
X118258000Y-41474484D01*
X118258000Y-41474484D02*
X118258000Y-45071000D01*
X115146000Y-41474484D02*
X116057484Y-40563000D01*
D33*
X144583349Y-51211349D02*
X144583349Y-58674000D01*
X137795000Y-49503000D02*
X142875000Y-49503000D01*
D32*
X114422000Y-42164000D02*
X115111516Y-41474484D01*
X118258000Y-45071000D02*
X127467000Y-45071000D01*
X116057484Y-40563000D02*
X117346516Y-40563000D01*
X127467000Y-45071000D02*
X130418000Y-42120000D01*
X115111516Y-41474484D02*
X115146000Y-41474484D01*
X145383348Y-59473999D02*
X144583349Y-58674000D01*
D33*
X142875000Y-49503000D02*
X144583349Y-51211349D01*
X130418000Y-35870000D02*
X136200000Y-35870000D01*
X134112000Y-53186000D02*
X137795000Y-49503000D01*
%TO.N,Net-(C10-Pad2)*%
X92964000Y-86360000D02*
X96353000Y-86360000D01*
X96353000Y-86360000D02*
X102957000Y-79756000D01*
%TO.N,/B+*%
X70639000Y-41893000D02*
X70639000Y-44345000D01*
X58574000Y-49276000D02*
X63654000Y-49276000D01*
X66548000Y-52170000D02*
X63654000Y-49276000D01*
D32*
X64439000Y-37741000D02*
X58574000Y-43606000D01*
X58574000Y-43606000D02*
X58574000Y-49276000D01*
D33*
X55763349Y-57150000D02*
X55763349Y-52086651D01*
X55763349Y-52086651D02*
X58574000Y-49276000D01*
X66548000Y-54456000D02*
X72925000Y-54456000D01*
D32*
X87382000Y-38094000D02*
X87029000Y-37741000D01*
X55763349Y-64653349D02*
X59690000Y-68580000D01*
D33*
X65708000Y-49276000D02*
X63654000Y-49276000D01*
X70639000Y-44345000D02*
X65708000Y-49276000D01*
X66548000Y-54456000D02*
X66548000Y-52170000D01*
D32*
X87382000Y-41910000D02*
X87382000Y-38094000D01*
X87029000Y-37741000D02*
X64439000Y-37741000D01*
X55763349Y-57150000D02*
X55763349Y-64653349D01*
%TO.N,Net-(Q6-B)*%
X118110000Y-84074000D02*
X118110000Y-74890000D01*
X132449000Y-67079000D02*
X133950000Y-68580000D01*
X114300000Y-87884000D02*
X118110000Y-84074000D01*
X135890000Y-68580000D02*
X143510000Y-76200000D01*
X118110000Y-74890000D02*
X118110000Y-72137265D01*
X123168265Y-67079000D02*
X132449000Y-67079000D01*
X133950000Y-68580000D02*
X135890000Y-68580000D01*
X118110000Y-72137265D02*
X123168265Y-67079000D01*
%TO.N,Net-(Q8-E)*%
X147070000Y-100656314D02*
X145049314Y-102677000D01*
X145669000Y-92456000D02*
X140589000Y-92456000D01*
X138730000Y-77839651D02*
X145726349Y-84836000D01*
X140589000Y-92456000D02*
X147070000Y-98937000D01*
X138730000Y-76200000D02*
X138730000Y-77839651D01*
X134360052Y-102677000D02*
X131318000Y-99634948D01*
X145049314Y-102677000D02*
X134360052Y-102677000D01*
X131318000Y-99634948D02*
X131318000Y-97790000D01*
X145726349Y-84836000D02*
X145726349Y-92398651D01*
X147070000Y-98937000D02*
X147070000Y-100656314D01*
%TO.N,Net-(Q10-E)*%
X86403401Y-48260000D02*
X86403401Y-50335401D01*
X68140000Y-38942000D02*
X82134000Y-38942000D01*
X86403401Y-48260000D02*
X86403401Y-43211401D01*
X86403401Y-50335401D02*
X87884000Y-51816000D01*
X86403401Y-43211401D02*
X85102000Y-41910000D01*
X65189000Y-41893000D02*
X68140000Y-38942000D01*
X82134000Y-38942000D02*
X85102000Y-41910000D01*
%TO.N,Net-(D4-K)*%
X96603000Y-103969000D02*
X96705917Y-103969000D01*
X96705917Y-103969000D02*
X97033693Y-104296776D01*
X87718156Y-105370000D02*
X89219156Y-103869000D01*
X105344455Y-109474000D02*
X109194455Y-105624000D01*
X102360586Y-109474000D02*
X105344455Y-109474000D01*
X89219156Y-103869000D02*
X96503000Y-103869000D01*
X96503000Y-103869000D02*
X96603000Y-103969000D01*
X97183362Y-104296776D02*
X102360586Y-109474000D01*
X97033693Y-104296776D02*
X97183362Y-104296776D01*
X83493000Y-105370000D02*
X87718156Y-105370000D01*
%TO.N,Net-(Q12-E)*%
X91218000Y-42182686D02*
X95364686Y-38036000D01*
X87884000Y-59436000D02*
X89408000Y-57912000D01*
X112142000Y-42164000D02*
X114943000Y-39363000D01*
X91218000Y-45445401D02*
X91218000Y-42182686D01*
X122211000Y-39363000D02*
X124968000Y-42120000D01*
X112142000Y-40264000D02*
X112142000Y-42164000D01*
X109914000Y-38036000D02*
X112142000Y-40264000D01*
X88403401Y-48260000D02*
X91218000Y-45445401D01*
X89408000Y-57912000D02*
X89408000Y-49264599D01*
X95364686Y-38036000D02*
X109914000Y-38036000D01*
X89408000Y-49264599D02*
X88403401Y-48260000D01*
X114943000Y-39363000D02*
X122211000Y-39363000D01*
%TO.N,Net-(Q13-E)*%
X126492000Y-59944000D02*
X120893000Y-54345000D01*
X134874000Y-59944000D02*
X126492000Y-59944000D01*
D33*
X120893000Y-49276000D02*
X129203111Y-49276000D01*
D32*
X120893000Y-54345000D02*
X120893000Y-49276000D01*
X143510000Y-68580000D02*
X134874000Y-59944000D01*
D33*
X135868000Y-42611111D02*
X135868000Y-42120000D01*
X129203111Y-49276000D02*
X135868000Y-42611111D01*
D32*
%TO.N,Net-(D6-K)*%
X96084182Y-109038182D02*
X100136000Y-113090000D01*
X96084182Y-105470000D02*
X96084182Y-109038182D01*
X100136000Y-113090000D02*
X103324000Y-113090000D01*
%TO.N,Net-(D6-A)*%
X84195735Y-99791000D02*
X78616735Y-105370000D01*
X78616735Y-105370000D02*
X77172273Y-105370000D01*
X96012000Y-99060000D02*
X96012000Y-96520000D01*
X102739318Y-104009318D02*
X98521000Y-99791000D01*
X102739318Y-105470000D02*
X102739318Y-104009318D01*
X98521000Y-99791000D02*
X84195735Y-99791000D01*
X96031000Y-99226892D02*
X96031000Y-99079000D01*
%TO.N,Net-(D9-A)*%
X133858000Y-97790000D02*
X133858000Y-93853000D01*
X121158000Y-97790000D02*
X104648000Y-97790000D01*
X140589000Y-100076000D02*
X136144000Y-100076000D01*
X133858000Y-93853000D02*
X130175000Y-90170000D01*
X125476000Y-102108000D02*
X121158000Y-97790000D01*
X136144000Y-100076000D02*
X133858000Y-97790000D01*
%TO.N,Net-(D11-K)*%
X88646000Y-71393315D02*
X88646000Y-89154000D01*
X85591790Y-68339105D02*
X88646000Y-71393315D01*
X77825105Y-68339105D02*
X85591790Y-68339105D01*
%TO.N,Net-(D16-K)*%
X107411000Y-54387000D02*
X94940472Y-54387000D01*
X94488000Y-50495314D02*
X98691000Y-46292314D01*
X116702000Y-47636000D02*
X111506000Y-52832000D01*
X127895000Y-80305000D02*
X127895000Y-90170000D01*
X94488000Y-53934528D02*
X94488000Y-53086000D01*
X94940472Y-54387000D02*
X94488000Y-53934528D01*
X94488000Y-53086000D02*
X94488000Y-50495314D01*
X108966000Y-52832000D02*
X107411000Y-54387000D01*
X116702000Y-42164000D02*
X116702000Y-47636000D01*
X123790000Y-76200000D02*
X127895000Y-80305000D01*
X111506000Y-52832000D02*
X108966000Y-52832000D01*
X125476000Y-94488000D02*
X127895000Y-92069000D01*
X127895000Y-92069000D02*
X127895000Y-90170000D01*
X98691000Y-46292314D02*
X98691000Y-42037000D01*
%TO.N,Net-(D15-K)*%
X129032000Y-76200000D02*
X133950000Y-76200000D01*
%TO.N,Net-(D16-A)*%
X122289000Y-70081000D02*
X123790000Y-68580000D01*
X122289000Y-82435000D02*
X122289000Y-70081000D01*
X115570000Y-89154000D02*
X122289000Y-82435000D01*
%TO.N,Net-(Q11-B)*%
X97135000Y-40436000D02*
X101650000Y-40436000D01*
X94869000Y-42702000D02*
X97135000Y-40436000D01*
X104394000Y-40894000D02*
X103251000Y-42037000D01*
X101650000Y-40436000D02*
X103251000Y-42037000D01*
X94869000Y-48133000D02*
X94869000Y-42702000D01*
X107569000Y-40894000D02*
X104394000Y-40894000D01*
%TO.N,Net-(Q4-E)*%
X97637000Y-93319000D02*
X91085000Y-93319000D01*
X91085000Y-93319000D02*
X90170000Y-94234000D01*
X102108000Y-97790000D02*
X97637000Y-93319000D01*
%TO.N,Net-(Q5-E)*%
X88646000Y-97790000D02*
X94742000Y-97790000D01*
X85090000Y-94234000D02*
X88646000Y-97790000D01*
%TO.N,Net-(Q7-E)*%
X145669000Y-100076000D02*
X144268000Y-101477000D01*
X132569000Y-99188892D02*
X132569000Y-96589000D01*
X132588000Y-96520000D02*
X131826000Y-96520000D01*
X132500000Y-96520000D02*
X131826000Y-96520000D01*
X123975000Y-91810000D02*
X125615000Y-90170000D01*
X144268000Y-101477000D02*
X134857108Y-101477000D01*
X134857108Y-101477000D02*
X132569000Y-99188892D01*
X131826000Y-96520000D02*
X125056156Y-96520000D01*
X123975000Y-95438844D02*
X123975000Y-91810000D01*
X125056156Y-96520000D02*
X123975000Y-95438844D01*
X132569000Y-96589000D02*
X132500000Y-96520000D01*
D33*
%TO.N,/SPK*%
X98044000Y-73379000D02*
X103124000Y-73379000D01*
X98044000Y-70612000D02*
X93521556Y-66089556D01*
X98044000Y-73379000D02*
X98044000Y-70612000D01*
D32*
%TO.N,Net-(U1A--)*%
X92198299Y-117097701D02*
X92198299Y-121395000D01*
X95200299Y-124397000D02*
X93699299Y-122896000D01*
X125351864Y-109982000D02*
X109220000Y-109982000D01*
X129072000Y-117602000D02*
X129072000Y-113702136D01*
X92416000Y-129286000D02*
X95200299Y-126501701D01*
X94095000Y-115201000D02*
X92198299Y-117097701D01*
X128359864Y-112990000D02*
X134615000Y-112990000D01*
X128359864Y-112990000D02*
X125351864Y-109982000D01*
X95200299Y-126501701D02*
X95200299Y-124397000D01*
X104001000Y-115201000D02*
X94095000Y-115201000D01*
X109220000Y-109982000D02*
X104001000Y-115201000D01*
X92198299Y-121395000D02*
X93699299Y-122896000D01*
X129072000Y-113702136D02*
X128359864Y-112990000D01*
D33*
%TO.N,Net-(Q9-E)*%
X76089000Y-44593000D02*
X80772000Y-49276000D01*
D32*
X80772000Y-50973056D02*
X80772000Y-49276000D01*
X63246000Y-68440210D02*
X63246000Y-64866156D01*
X72563056Y-59182000D02*
X80772000Y-50973056D01*
X68930156Y-59182000D02*
X72563056Y-59182000D01*
X63246000Y-64866156D02*
X68930156Y-59182000D01*
D33*
X76089000Y-41893000D02*
X76089000Y-44593000D01*
D32*
%TO.N,+15V*%
X77172273Y-120606273D02*
X80224000Y-123658000D01*
X64262000Y-112990000D02*
X70572333Y-112990000D01*
X77172273Y-112990000D02*
X77172273Y-120606273D01*
X84301299Y-123658000D02*
X86079299Y-125436000D01*
X70672333Y-113090000D02*
X77370000Y-113090000D01*
X80224000Y-123658000D02*
X84301299Y-123658000D01*
%TO.N,-15V*%
X94581299Y-118698000D02*
X93699299Y-117816000D01*
X102790000Y-118698000D02*
X108244000Y-113244000D01*
X109474000Y-113244000D02*
X115990667Y-113244000D01*
X98298000Y-118698000D02*
X102790000Y-118698000D01*
X108244000Y-113244000D02*
X109194455Y-113244000D01*
X98298000Y-118698000D02*
X94581299Y-118698000D01*
X116144667Y-113090000D02*
X122455000Y-113090000D01*
%TO.N,Net-(R10-Pad1)*%
X110236000Y-102108000D02*
X115443000Y-102108000D01*
X90170000Y-101854000D02*
X96854944Y-101854000D01*
X85090000Y-101854000D02*
X90170000Y-101854000D01*
X105373000Y-106971000D02*
X110236000Y-102108000D01*
X101971944Y-106971000D02*
X105373000Y-106971000D01*
X96854944Y-101854000D02*
X101971944Y-106971000D01*
X115443000Y-102108000D02*
X120396000Y-102108000D01*
%TO.N,Net-(R26-Pad2)*%
X96146000Y-39236000D02*
X107892314Y-39236000D01*
X94869000Y-40513000D02*
X96146000Y-39236000D01*
X108970000Y-50288000D02*
X106426000Y-52832000D01*
X108970000Y-40313686D02*
X108970000Y-50288000D01*
X107892314Y-39236000D02*
X108970000Y-40313686D01*
%TO.N,Net-(U1B--)*%
X86079299Y-120356000D02*
X86079299Y-122896000D01*
%TO.N,Net-(U1A-+)*%
X112714299Y-119380000D02*
X115548299Y-119380000D01*
X101030299Y-120356000D02*
X102340299Y-121666000D01*
X112714299Y-119380000D02*
X110936299Y-117602000D01*
X115548299Y-119380000D02*
X117834299Y-121666000D01*
X106533511Y-117602000D02*
X102469511Y-121666000D01*
X93699299Y-120356000D02*
X101030299Y-120356000D01*
X102469511Y-121666000D02*
X102340299Y-121666000D01*
X110936299Y-117602000D02*
X106533511Y-117602000D01*
%TD*%
M02*
