M48
; DRILL file {KiCad 9.0.6} date 2025-11-26T21:28:28-0500
; FORMAT={-:-/ absolute / inch / decimal}
; #@! TF.CreationDate,2025-11-26T21:28:28-05:00
; #@! TF.GenerationSoftware,Kicad,Pcbnew,9.0.6
; #@! TF.FileFunction,Plated,1,2,PTH
FMAT,2
INCH
; #@! TA.AperFunction,Plated,PTH,ComponentDrill
T1C0.0236
; #@! TA.AperFunction,Plated,PTH,ComponentDrill
T2C0.0276
; #@! TA.AperFunction,Plated,PTH,ComponentDrill
T3C0.0295
; #@! TA.AperFunction,Plated,PTH,ComponentDrill
T4C0.0315
; #@! TA.AperFunction,Plated,PTH,ComponentDrill
T5C0.0394
; #@! TA.AperFunction,Plated,PTH,ComponentDrill
T6C0.0433
; #@! TA.AperFunction,Plated,PTH,ComponentDrill
T7C0.0472
; #@! TA.AperFunction,Plated,PTH,ComponentDrill
T8C0.0551
; #@! TA.AperFunction,Plated,PTH,ComponentDrill
T9C0.0591
%
G90
G05
T1
X3.4113Y-1.87
X3.49Y-1.87
X3.72Y-2.09
X3.7987Y-2.09
X4.7909Y-4.96
X4.8696Y-4.96
T2
X2.2878Y-3.59
X2.2878Y-3.89
X2.3Y-4.15
X2.3Y-4.45
X2.3065Y-2.698
X2.3065Y-2.998
X2.4865Y-2.698
X2.4865Y-2.998
X2.4878Y-3.59
X2.4878Y-3.89
X2.6708Y-2.698
X2.6708Y-2.998
X2.8083Y-4.15
X2.8083Y-4.45
X3.35Y-3.71
X3.35Y-4.01
X3.46Y-2.04
X3.46Y-2.34
X3.55Y-3.71
X3.55Y-4.01
X3.55Y-4.15
X3.55Y-4.45
X3.735Y-1.595
X3.735Y-1.895
X4.0291Y-4.79
X4.0291Y-5.09
X4.235Y-1.61
X4.235Y-1.91
X4.299Y-4.15
X4.299Y-4.45
X4.545Y-3.72
X4.545Y-4.02
X4.6391Y-4.79
X4.6391Y-5.09
X4.74Y-3.72
X4.74Y-4.02
X4.8073Y-4.15
X4.8073Y-4.45
X5.0291Y-4.79
X5.0291Y-5.09
X5.0535Y-4.1484
X5.0535Y-4.4484
X5.2736Y-2.7
X5.2736Y-3.0
X5.2998Y-4.1484
X5.2998Y-4.4484
X5.4618Y-2.7
X5.4618Y-3.0
X5.535Y-3.64
X5.535Y-3.94
X5.65Y-2.7
X5.65Y-3.0
X5.735Y-3.64
X5.735Y-3.94
T3
X2.7378Y-3.84
X2.7878Y-3.79
X2.8378Y-3.84
X3.39Y-3.51
X3.44Y-3.46
X3.49Y-3.51
X3.73Y-3.85
X3.78Y-3.8
X3.83Y-3.85
X4.07Y-3.85
X4.12Y-3.8
X4.17Y-3.85
X4.45Y-3.51
X4.5Y-3.46
X4.55Y-3.51
X5.17Y-3.85
X5.22Y-3.8
X5.27Y-3.85
T4
X2.1954Y-2.25
X2.2932Y-3.34
X2.3923Y-2.25
X2.4901Y-3.34
X2.5541Y-4.1539
X2.5541Y-4.4539
X2.8609Y-2.698
X2.8609Y-2.998
X3.0565Y-2.698
X3.0565Y-2.998
X3.07Y-4.1539
X3.07Y-4.4539
X3.15Y-3.71
X3.15Y-4.01
X3.21Y-4.6716
X3.21Y-4.8684
X3.2765Y-2.7496
X3.2765Y-2.9465
X3.32Y-4.1539
X3.32Y-4.4539
X3.3889Y-4.6384
X3.3889Y-4.7384
X3.3889Y-4.8384
X3.3889Y-4.9384
X3.4416Y-5.09
X3.6384Y-5.09
X3.6889Y-4.6384
X3.6889Y-4.7384
X3.6889Y-4.8384
X3.6889Y-4.9384
X3.78Y-4.1539
X3.78Y-4.4539
X3.8566Y-3.14
X3.87Y-4.6731
X3.87Y-4.87
X4.0299Y-4.1539
X4.0299Y-4.4539
X4.0534Y-3.14
X4.19Y-2.11
X4.2407Y-4.7
X4.29Y-2.11
X4.39Y-2.11
X4.4376Y-4.7
X4.5531Y-4.1539
X4.5531Y-4.4539
X4.65Y-2.7516
X4.65Y-2.9484
X4.8736Y-2.7
X4.8736Y-3.0
X4.94Y-3.72
X4.94Y-4.02
X5.08Y-2.7
X5.08Y-3.0
X5.0816Y-4.63
X5.27Y-4.8216
X5.27Y-5.0184
X5.2784Y-4.63
X5.4954Y-2.31
X5.5121Y-4.5657
X5.5121Y-4.73
X5.5404Y-3.34
X5.5475Y-4.2307
X5.6923Y-2.31
X5.7373Y-3.34
X5.7444Y-4.2307
X5.8121Y-4.5657
X5.8121Y-4.73
T5
X2.8783Y-3.55
X2.968Y-3.55
X3.0578Y-3.55
X3.3505Y-1.65
X3.4402Y-1.65
X3.53Y-1.65
X3.8855Y-1.655
X3.9752Y-1.655
X4.065Y-1.655
X4.415Y-1.66
X4.5048Y-1.66
X4.5946Y-1.66
X4.9455Y-3.55
X5.0352Y-3.55
X5.125Y-3.55
T6
X2.62Y-2.14
X2.62Y-2.54
X2.8711Y-2.1439
X2.8711Y-2.5439
X5.0296Y-2.1439
X5.0296Y-2.5439
X5.28Y-2.14
X5.28Y-2.54
T7
X3.18Y-1.94
X3.18Y-2.54
X3.66Y-2.58
X3.66Y-3.4
X4.26Y-2.58
X4.26Y-3.4
X4.2714Y-4.98
X4.4091Y-4.98
X4.7596Y-1.94
X4.7596Y-2.54
T8
X2.3061Y-1.9489
X2.5061Y-1.9489
X3.62Y-2.89
X3.62Y-3.09
X3.86Y-2.8889
X4.06Y-2.8889
X4.3039Y-2.89
X4.3039Y-3.09
X5.425Y-1.9489
X5.625Y-1.9489
T9
X2.5665Y-1.6493
X2.7811Y-1.6493
X2.9956Y-1.6493
X4.92Y-1.6583
X5.1346Y-1.6583
X5.3491Y-1.6583
M30
